M48
; DRILL file {KiCad (5.1.4)-1} date 10/25/2020 2:57:49 PM
; FORMAT={-:-/ absolute / inch / decimal}
; #@! TF.CreationDate,2020-10-25T14:57:49-07:00
; #@! TF.GenerationSoftware,Kicad,Pcbnew,(5.1.4)-1
; #@! TF.FileFunction,Plated,1,2,PTH
FMAT,2
INCH
T1C0.0157
T2C0.0906
%
G90
G05
T1
X10.5034Y-1.25
X10.5208Y-1.2083
X10.5208Y-1.2917
X10.5625Y-1.1909
X10.5625Y-1.3091
X10.6042Y-1.2083
X10.6042Y-1.2917
X10.6216Y-1.25
X1.7534Y-1.25
X1.7708Y-1.2083
X1.7708Y-1.2917
X1.8125Y-1.1909
X1.8125Y-1.3091
X1.8542Y-1.2083
X1.8542Y-1.2917
X1.8716Y-1.25
X6.1284Y-1.5
X6.1458Y-1.4583
X6.1458Y-1.5417
X6.1875Y-1.4409
X6.1875Y-1.5591
X6.2292Y-1.4583
X6.2292Y-1.5417
X6.2466Y-1.5
X10.5034Y-4.0
X10.5208Y-3.9583
X10.5208Y-4.0417
X10.5625Y-3.9409
X10.5625Y-4.0591
X10.6042Y-3.9583
X10.6042Y-4.0417
X10.6216Y-4.0
X6.1284Y-3.75
X6.1458Y-3.7083
X6.1458Y-3.7917
X6.1875Y-3.6909
X6.1875Y-3.8091
X6.2292Y-3.7083
X6.2292Y-3.7917
X6.2466Y-3.75
X1.7534Y-4.0
X1.7708Y-3.9583
X1.7708Y-4.0417
X1.8125Y-3.9409
X1.8125Y-4.0591
X1.8542Y-3.9583
X1.8542Y-4.0417
X1.8716Y-4.0
T2
X10.5625Y-1.25
X1.8125Y-1.25
X6.1875Y-1.5
X10.5625Y-4.0
X6.1875Y-3.75
X1.8125Y-4.0
T0
M30
