G04 #@! TF.GenerationSoftware,KiCad,Pcbnew,(5.1.4)-1*
G04 #@! TF.CreationDate,2020-10-25T14:57:06-07:00*
G04 #@! TF.ProjectId,cheepcheep,63686565-7063-4686-9565-702e6b696361,rev?*
G04 #@! TF.SameCoordinates,Original*
G04 #@! TF.FileFunction,Copper,L2,Bot*
G04 #@! TF.FilePolarity,Positive*
%FSLAX46Y46*%
G04 Gerber Fmt 4.6, Leading zero omitted, Abs format (unit mm)*
G04 Created by KiCad (PCBNEW (5.1.4)-1) date 2020-10-25 14:57:06*
%MOMM*%
%LPD*%
G04 APERTURE LIST*
%ADD10C,2.250000*%
%ADD11R,1.800000X1.100000*%
%ADD12C,4.000000*%
%ADD13C,0.500000*%
%ADD14C,1.752600*%
%ADD15R,1.752600X1.752600*%
%ADD16R,1.600000X1.600000*%
%ADD17O,1.600000X1.600000*%
%ADD18C,0.250000*%
G04 APERTURE END LIST*
D10*
X54927500Y-33020000D03*
X48577500Y-35560000D03*
D11*
X55487500Y-46300000D03*
X49287500Y-42600000D03*
X55487500Y-42600000D03*
X49287500Y-46300000D03*
D10*
X169227500Y-33020000D03*
X162877500Y-35560000D03*
X83502500Y-52070000D03*
X77152500Y-54610000D03*
X165258750Y-92710000D03*
X171608750Y-90170000D03*
D12*
X157162500Y-95337500D03*
D13*
X158662500Y-95337500D03*
X155662500Y-95337500D03*
X157162500Y-96837500D03*
X157162500Y-93837500D03*
X158222500Y-96397500D03*
X156102500Y-96397500D03*
X156102500Y-94277500D03*
X158222500Y-94277500D03*
X158222500Y-37040000D03*
X156102500Y-37040000D03*
X156102500Y-39160000D03*
X158222500Y-39160000D03*
X157162500Y-36600000D03*
X157162500Y-39600000D03*
X155662500Y-38100000D03*
X158662500Y-38100000D03*
D12*
X157162500Y-38100000D03*
X46037500Y-31750000D03*
D13*
X47537500Y-31750000D03*
X44537500Y-31750000D03*
X46037500Y-33250000D03*
X46037500Y-30250000D03*
X47097500Y-32810000D03*
X44977500Y-32810000D03*
X44977500Y-30690000D03*
X47097500Y-30690000D03*
X269347500Y-30690000D03*
X267227500Y-30690000D03*
X267227500Y-32810000D03*
X269347500Y-32810000D03*
X268287500Y-30250000D03*
X268287500Y-33250000D03*
X266787500Y-31750000D03*
X269787500Y-31750000D03*
D12*
X268287500Y-31750000D03*
D13*
X269347500Y-100540000D03*
X267227500Y-100540000D03*
X267227500Y-102660000D03*
X269347500Y-102660000D03*
X268287500Y-100100000D03*
X268287500Y-103100000D03*
X266787500Y-101600000D03*
X269787500Y-101600000D03*
D12*
X268287500Y-101600000D03*
D13*
X47097500Y-100540000D03*
X44977500Y-100540000D03*
X44977500Y-102660000D03*
X47097500Y-102660000D03*
X46037500Y-100100000D03*
X46037500Y-103100000D03*
X44537500Y-101600000D03*
X47537500Y-101600000D03*
D12*
X46037500Y-101600000D03*
D10*
X262096250Y-90170000D03*
X255746250Y-92710000D03*
X81121250Y-90170000D03*
X74771250Y-92710000D03*
X57308750Y-90170000D03*
X50958750Y-92710000D03*
X254952500Y-71120000D03*
X248602500Y-73660000D03*
X64452500Y-71120000D03*
X58102500Y-73660000D03*
X259715000Y-52070000D03*
X253365000Y-54610000D03*
X59690000Y-52070000D03*
X53340000Y-54610000D03*
D14*
X47942500Y-49530000D03*
X75882500Y-64770000D03*
X50482500Y-49530000D03*
X53022500Y-49530000D03*
X55562500Y-49530000D03*
X58102500Y-49530000D03*
X60642500Y-49530000D03*
X63182500Y-49530000D03*
X65722500Y-49530000D03*
X68262500Y-49530000D03*
X70802500Y-49530000D03*
X73342500Y-49530000D03*
X75882500Y-49530000D03*
X73342500Y-64770000D03*
X70802500Y-64770000D03*
X68262500Y-64770000D03*
X65722500Y-64770000D03*
X63182500Y-64770000D03*
X60642500Y-64770000D03*
X58102500Y-64770000D03*
X55562500Y-64770000D03*
X53022500Y-64770000D03*
X50482500Y-64770000D03*
D15*
X47942500Y-64770000D03*
D10*
X240665000Y-90170000D03*
X234315000Y-92710000D03*
X102552500Y-90170000D03*
X96202500Y-92710000D03*
X226377500Y-71120000D03*
X220027500Y-73660000D03*
X207327500Y-71120000D03*
X200977500Y-73660000D03*
X188277500Y-71120000D03*
X181927500Y-73660000D03*
X169227500Y-71120000D03*
X162877500Y-73660000D03*
X150177500Y-71120000D03*
X143827500Y-73660000D03*
X131127500Y-71120000D03*
X124777500Y-73660000D03*
X112077500Y-71120000D03*
X105727500Y-73660000D03*
X93027500Y-71120000D03*
X86677500Y-73660000D03*
X235902500Y-52070000D03*
X229552500Y-54610000D03*
X216852500Y-52070000D03*
X210502500Y-54610000D03*
X197802500Y-52070000D03*
X191452500Y-54610000D03*
X178752500Y-52070000D03*
X172402500Y-54610000D03*
X159702500Y-52070000D03*
X153352500Y-54610000D03*
X140652500Y-52070000D03*
X134302500Y-54610000D03*
X121602500Y-52070000D03*
X115252500Y-54610000D03*
X102552500Y-52070000D03*
X96202500Y-54610000D03*
X264477500Y-33020000D03*
X258127500Y-35560000D03*
X245427500Y-33020000D03*
X239077500Y-35560000D03*
X226377500Y-33020000D03*
X220027500Y-35560000D03*
X207327500Y-33020000D03*
X200977500Y-35560000D03*
X188277500Y-33020000D03*
X181927500Y-35560000D03*
X150177500Y-33020000D03*
X143827500Y-35560000D03*
X131127500Y-33020000D03*
X124777500Y-35560000D03*
X112077500Y-33020000D03*
X105727500Y-35560000D03*
X93027500Y-33020000D03*
X86677500Y-35560000D03*
X73977500Y-33020000D03*
X67627500Y-35560000D03*
D16*
X268287500Y-97313750D03*
D17*
X268287500Y-89693750D03*
D16*
X246856250Y-99218750D03*
D17*
X246856250Y-91598750D03*
D16*
X177800000Y-99218750D03*
D17*
X177800000Y-91598750D03*
D16*
X108743750Y-99218750D03*
D17*
X108743750Y-91598750D03*
D16*
X87312500Y-99218750D03*
D17*
X87312500Y-91598750D03*
D16*
X63500000Y-99218750D03*
D17*
X63500000Y-91598750D03*
D16*
X261143750Y-80168750D03*
D17*
X261143750Y-72548750D03*
D16*
X232568750Y-80168750D03*
D17*
X232568750Y-72548750D03*
D16*
X213518750Y-80168750D03*
D17*
X213518750Y-72548750D03*
D16*
X194468750Y-80168750D03*
D17*
X194468750Y-72548750D03*
D16*
X175418750Y-80168750D03*
D17*
X175418750Y-72548750D03*
D16*
X156368750Y-80168750D03*
D17*
X156368750Y-72548750D03*
D16*
X137318750Y-80168750D03*
D17*
X137318750Y-72548750D03*
D16*
X118268750Y-80168750D03*
D17*
X118268750Y-72548750D03*
D16*
X99218750Y-80168750D03*
D17*
X99218750Y-72548750D03*
D16*
X70643750Y-80168750D03*
D17*
X70643750Y-72548750D03*
D16*
X265906250Y-61118750D03*
D17*
X265906250Y-53498750D03*
D16*
X242093750Y-61118750D03*
D17*
X242093750Y-53498750D03*
D16*
X223043750Y-61118750D03*
D17*
X223043750Y-53498750D03*
D16*
X203993750Y-61118750D03*
D17*
X203993750Y-53498750D03*
D16*
X184943750Y-61118750D03*
D17*
X184943750Y-53498750D03*
D16*
X165893750Y-61118750D03*
D17*
X165893750Y-53498750D03*
D16*
X146843750Y-61118750D03*
D17*
X146843750Y-53498750D03*
D16*
X127793750Y-61118750D03*
D17*
X127793750Y-53498750D03*
D16*
X108743750Y-61118750D03*
D17*
X108743750Y-53498750D03*
D16*
X89693750Y-61118750D03*
D17*
X89693750Y-53498750D03*
D16*
X65881250Y-61118750D03*
D17*
X65881250Y-53498750D03*
D16*
X269875000Y-43656250D03*
D17*
X269875000Y-36036250D03*
D16*
X251618750Y-42068750D03*
D17*
X251618750Y-34448750D03*
D16*
X232568750Y-42068750D03*
D17*
X232568750Y-34448750D03*
D16*
X213518750Y-42068750D03*
D17*
X213518750Y-34448750D03*
D16*
X194468750Y-42068750D03*
D17*
X194468750Y-34448750D03*
D16*
X175418750Y-42068750D03*
D17*
X175418750Y-34448750D03*
D16*
X161131250Y-46831250D03*
D17*
X153511250Y-46831250D03*
D16*
X137318750Y-42068750D03*
D17*
X137318750Y-34448750D03*
D16*
X118268750Y-42068750D03*
D17*
X118268750Y-34448750D03*
D16*
X99218750Y-42068750D03*
D17*
X99218750Y-34448750D03*
D16*
X80168750Y-42068750D03*
D17*
X80168750Y-34448750D03*
D16*
X61118750Y-42068750D03*
D17*
X61118750Y-34448750D03*
D18*
X56356250Y-34448750D02*
X61118750Y-34448750D01*
X54927500Y-33020000D02*
X56356250Y-34448750D01*
X75406250Y-34448750D02*
X80486250Y-34448750D01*
X73977500Y-33020000D02*
X75406250Y-34448750D01*
X94456250Y-34448750D02*
X99218750Y-34448750D01*
X93027500Y-33020000D02*
X94456250Y-34448750D01*
X113506250Y-34448750D02*
X118268750Y-34448750D01*
X112077500Y-33020000D02*
X113506250Y-34448750D01*
X132556250Y-34448750D02*
X137318750Y-34448750D01*
X131127500Y-33020000D02*
X132556250Y-34448750D01*
X141128750Y-33020000D02*
X139700000Y-34448750D01*
X150177500Y-33020000D02*
X141128750Y-33020000D01*
X170656250Y-34448750D02*
X175418750Y-34448750D01*
X169227500Y-33020000D02*
X170656250Y-34448750D01*
X189706250Y-34448750D02*
X194468750Y-34448750D01*
X188277500Y-33020000D02*
X189706250Y-34448750D01*
X208756250Y-34448750D02*
X213518750Y-34448750D01*
X207327500Y-33020000D02*
X208756250Y-34448750D01*
X227806250Y-34448750D02*
X232568750Y-34448750D01*
X226377500Y-33020000D02*
X227806250Y-34448750D01*
X246856250Y-34448750D02*
X251618750Y-34448750D01*
X245427500Y-33020000D02*
X246856250Y-34448750D01*
X267493750Y-36036250D02*
X269875000Y-36036250D01*
X264477500Y-33020000D02*
X267493750Y-36036250D01*
X61118750Y-53498750D02*
X65881250Y-53498750D01*
X59690000Y-52070000D02*
X61118750Y-53498750D01*
X84931250Y-53498750D02*
X89693750Y-53498750D01*
X83502500Y-52070000D02*
X84931250Y-53498750D01*
X103981250Y-53498750D02*
X108743750Y-53498750D01*
X102552500Y-52070000D02*
X103981250Y-53498750D01*
X123031250Y-53498750D02*
X127793750Y-53498750D01*
X121602500Y-52070000D02*
X123031250Y-53498750D01*
X142081250Y-53498750D02*
X146843750Y-53498750D01*
X140652500Y-52070000D02*
X142081250Y-53498750D01*
X161131250Y-53498750D02*
X165893750Y-53498750D01*
X159702500Y-52070000D02*
X161131250Y-53498750D01*
X180181250Y-53498750D02*
X184943750Y-53498750D01*
X178752500Y-52070000D02*
X180181250Y-53498750D01*
X199231250Y-53498750D02*
X203993750Y-53498750D01*
X197802500Y-52070000D02*
X199231250Y-53498750D01*
X218281250Y-53498750D02*
X223043750Y-53498750D01*
X216852500Y-52070000D02*
X218281250Y-53498750D01*
X237331250Y-53498750D02*
X242093750Y-53498750D01*
X235902500Y-52070000D02*
X237331250Y-53498750D01*
X261143750Y-53498750D02*
X265906250Y-53498750D01*
X259715000Y-52070000D02*
X261143750Y-53498750D01*
X65881250Y-72548750D02*
X70643750Y-72548750D01*
X64452500Y-71120000D02*
X65881250Y-72548750D01*
X97790000Y-71120000D02*
X99218750Y-72548750D01*
X93027500Y-71120000D02*
X97790000Y-71120000D01*
X113506250Y-72548750D02*
X118268750Y-72548750D01*
X112077500Y-71120000D02*
X113506250Y-72548750D01*
X135890000Y-71120000D02*
X137318750Y-72548750D01*
X131127500Y-71120000D02*
X135890000Y-71120000D01*
X151606250Y-72548750D02*
X156368750Y-72548750D01*
X150177500Y-71120000D02*
X151606250Y-72548750D01*
X173990000Y-71120000D02*
X175418750Y-72548750D01*
X169227500Y-71120000D02*
X173990000Y-71120000D01*
X193040000Y-71120000D02*
X194468750Y-72548750D01*
X188277500Y-71120000D02*
X193040000Y-71120000D01*
X212090000Y-71120000D02*
X213518750Y-72548750D01*
X207327500Y-71120000D02*
X212090000Y-71120000D01*
X227806250Y-72548750D02*
X232568750Y-72548750D01*
X226377500Y-71120000D02*
X227806250Y-72548750D01*
X256381250Y-72548750D02*
X261143750Y-72548750D01*
X254952500Y-71120000D02*
X256381250Y-72548750D01*
X58737500Y-91598750D02*
X63500000Y-91598750D01*
X57308750Y-90170000D02*
X58737500Y-91598750D01*
X85883750Y-90170000D02*
X87312500Y-91598750D01*
X81121250Y-90170000D02*
X85883750Y-90170000D01*
X107612380Y-91598750D02*
X108743750Y-91598750D01*
X103981250Y-91598750D02*
X107612380Y-91598750D01*
X102552500Y-90170000D02*
X103981250Y-91598750D01*
X173037500Y-91598750D02*
X177800000Y-91598750D01*
X171608750Y-90170000D02*
X173037500Y-91598750D01*
X245427500Y-90170000D02*
X246856250Y-91598750D01*
X240665000Y-90170000D02*
X245427500Y-90170000D01*
X267811250Y-90170000D02*
X268287500Y-89693750D01*
X262096250Y-90170000D02*
X267811250Y-90170000D01*
X251618750Y-43118750D02*
X251618750Y-42068750D01*
X252156250Y-43656250D02*
X251618750Y-43118750D01*
X269875000Y-43656250D02*
X252156250Y-43656250D01*
X250568750Y-42068750D02*
X232568750Y-42068750D01*
X251618750Y-42068750D02*
X250568750Y-42068750D01*
X232568750Y-42068750D02*
X213518750Y-42068750D01*
X213518750Y-42068750D02*
X194468750Y-42068750D01*
X194468750Y-42068750D02*
X175418750Y-42068750D01*
X137318750Y-42068750D02*
X118268750Y-42068750D01*
X118268750Y-42068750D02*
X99218750Y-42068750D01*
X99218750Y-42068750D02*
X80168750Y-42068750D01*
X80168750Y-42068750D02*
X61118750Y-42068750D01*
X60068750Y-42068750D02*
X61118750Y-42068750D01*
X58102500Y-44035000D02*
X60068750Y-42068750D01*
X58102500Y-49530000D02*
X58102500Y-44035000D01*
X137318750Y-42068750D02*
X139700000Y-42068750D01*
X139700000Y-42068750D02*
X175418750Y-42068750D01*
X175418750Y-43118750D02*
X175418750Y-42068750D01*
X171706250Y-46831250D02*
X175418750Y-43118750D01*
X161131250Y-46831250D02*
X171706250Y-46831250D01*
X66931250Y-61118750D02*
X89693750Y-61118750D01*
X65881250Y-61118750D02*
X66931250Y-61118750D01*
X89693750Y-61118750D02*
X108743750Y-61118750D01*
X109793750Y-61118750D02*
X127793750Y-61118750D01*
X108743750Y-61118750D02*
X109793750Y-61118750D01*
X127793750Y-61118750D02*
X146843750Y-61118750D01*
X146843750Y-61118750D02*
X165893750Y-61118750D01*
X165893750Y-61118750D02*
X184943750Y-61118750D01*
X184943750Y-61118750D02*
X203993750Y-61118750D01*
X203993750Y-61118750D02*
X223043750Y-61118750D01*
X223043750Y-61118750D02*
X242093750Y-61118750D01*
X242093750Y-61118750D02*
X265906250Y-61118750D01*
X65722500Y-61277500D02*
X65881250Y-61118750D01*
X65722500Y-64770000D02*
X65722500Y-61277500D01*
X261143750Y-80168750D02*
X232568750Y-80168750D01*
X232568750Y-80168750D02*
X213518750Y-80168750D01*
X213518750Y-80168750D02*
X194468750Y-80168750D01*
X194468750Y-80168750D02*
X175418750Y-80168750D01*
X175418750Y-80168750D02*
X156368750Y-80168750D01*
X156368750Y-80168750D02*
X137318750Y-80168750D01*
X137318750Y-80168750D02*
X118268750Y-80168750D01*
X118268750Y-80168750D02*
X99218750Y-80168750D01*
X99218750Y-80168750D02*
X70643750Y-80168750D01*
X69593750Y-80168750D02*
X70643750Y-80168750D01*
X69185248Y-80168750D02*
X69593750Y-80168750D01*
X62306201Y-73289703D02*
X69185248Y-80168750D01*
X62306201Y-65646299D02*
X62306201Y-73289703D01*
X63182500Y-64770000D02*
X62306201Y-65646299D01*
X63500000Y-99218750D02*
X87312500Y-99218750D01*
X87312500Y-99218750D02*
X108743750Y-99218750D01*
X108743750Y-99218750D02*
X177800000Y-99218750D01*
X177800000Y-99218750D02*
X246856250Y-99218750D01*
X246856250Y-99218750D02*
X263525000Y-99218750D01*
X265430000Y-97313750D02*
X268287500Y-97313750D01*
X263525000Y-99218750D02*
X265430000Y-97313750D01*
X49606201Y-65646299D02*
X50482500Y-64770000D01*
X47687349Y-67565151D02*
X49606201Y-65646299D01*
X51881498Y-99218750D02*
X47687349Y-95024601D01*
X47687349Y-95024601D02*
X47687349Y-67565151D01*
X63500000Y-99218750D02*
X51881498Y-99218750D01*
X113661510Y-54610000D02*
X115252500Y-54610000D01*
X76186249Y-59993749D02*
X108277761Y-59993749D01*
X108277761Y-59993749D02*
X113661510Y-54610000D01*
X65722500Y-49530000D02*
X76186249Y-59993749D01*
X68262500Y-50769275D02*
X68262500Y-49530000D01*
X68262500Y-51306002D02*
X68262500Y-50769275D01*
X76425399Y-59468901D02*
X68262500Y-51306002D01*
X85499601Y-59468901D02*
X76425399Y-59468901D01*
X94348503Y-50619999D02*
X85499601Y-59468901D01*
X132711510Y-54610000D02*
X128721509Y-50619999D01*
X128721509Y-50619999D02*
X94348503Y-50619999D01*
X134302500Y-54610000D02*
X132711510Y-54610000D01*
X152227501Y-53485001D02*
X153352500Y-54610000D01*
X148912490Y-50169990D02*
X152227501Y-53485001D01*
X70802500Y-49530000D02*
X70802500Y-51752500D01*
X74612500Y-55562500D02*
X75702499Y-54472501D01*
X70802500Y-51752500D02*
X74612500Y-55562500D01*
X75702499Y-53913999D02*
X79446508Y-50169990D01*
X75702499Y-54472501D02*
X75702499Y-53913999D01*
X79446508Y-50169990D02*
X148912490Y-50169990D01*
X149998909Y-50619999D02*
X148591410Y-49212500D01*
X172402500Y-54610000D02*
X168412499Y-50619999D01*
X168412499Y-50619999D02*
X149998909Y-50619999D01*
X79767588Y-49212500D02*
X77386338Y-51593750D01*
X148591410Y-49212500D02*
X79767588Y-49212500D01*
X75406250Y-51593750D02*
X73342500Y-49530000D01*
X77386338Y-51593750D02*
X75406250Y-51593750D01*
X190327501Y-53485001D02*
X191452500Y-54610000D01*
X185261250Y-48418750D02*
X190327501Y-53485001D01*
X76993750Y-48418750D02*
X185261250Y-48418750D01*
X75882500Y-49530000D02*
X76993750Y-48418750D01*
X68262500Y-64770000D02*
X68262500Y-68262500D01*
X68262500Y-68262500D02*
X73025000Y-73025000D01*
X73025000Y-73025000D02*
X78581250Y-73025000D01*
X218902501Y-72535001D02*
X220027500Y-73660000D01*
X81936251Y-69669999D02*
X216037499Y-69669999D01*
X216037499Y-69669999D02*
X218902501Y-72535001D01*
X78581250Y-73025000D02*
X81936251Y-69669999D01*
X247477501Y-74784999D02*
X248602500Y-73660000D01*
X70802500Y-64770000D02*
X70802500Y-68897500D01*
X227896497Y-74784999D02*
X247477501Y-74784999D01*
X70802500Y-68897500D02*
X74136250Y-72231250D01*
X74136250Y-72231250D02*
X78581250Y-72231250D01*
X78581250Y-72231250D02*
X81756250Y-69056250D01*
X81756250Y-69056250D02*
X222167748Y-69056250D01*
X222167748Y-69056250D02*
X227896497Y-74784999D01*
X254955990Y-54610000D02*
X253365000Y-54610000D01*
X261491002Y-54610000D02*
X254955990Y-54610000D01*
X267031251Y-60150249D02*
X261491002Y-54610000D01*
X267031251Y-62178751D02*
X267031251Y-60150249D01*
X265710002Y-63500000D02*
X267031251Y-62178751D01*
X74612500Y-63500000D02*
X265710002Y-63500000D01*
X73342500Y-64770000D02*
X74612500Y-63500000D01*
X256871249Y-91585001D02*
X255746250Y-92710000D01*
X259736251Y-88719999D02*
X256871249Y-91585001D01*
X263485725Y-88719999D02*
X259736251Y-88719999D01*
X266637651Y-85568073D02*
X263485725Y-88719999D01*
X266637651Y-66331239D02*
X266637651Y-85568073D01*
X265076412Y-64770000D02*
X266637651Y-66331239D01*
X75882500Y-64770000D02*
X265076412Y-64770000D01*
X54768750Y-42337500D02*
X54768750Y-43137500D01*
X53022500Y-48290725D02*
X53022500Y-49530000D01*
X53022500Y-45865000D02*
X53022500Y-48290725D01*
X55487500Y-43400000D02*
X53022500Y-45865000D01*
X55487500Y-42600000D02*
X55487500Y-43400000D01*
X49287500Y-48335000D02*
X50482500Y-49530000D01*
X49287500Y-46300000D02*
X49287500Y-48335000D01*
M02*
