G04 #@! TF.GenerationSoftware,KiCad,Pcbnew,(5.1.4)-1*
G04 #@! TF.CreationDate,2020-10-25T14:57:06-07:00*
G04 #@! TF.ProjectId,cheepcheep,63686565-7063-4686-9565-702e6b696361,rev?*
G04 #@! TF.SameCoordinates,Original*
G04 #@! TF.FileFunction,Soldermask,Top*
G04 #@! TF.FilePolarity,Negative*
%FSLAX46Y46*%
G04 Gerber Fmt 4.6, Leading zero omitted, Abs format (unit mm)*
G04 Created by KiCad (PCBNEW (5.1.4)-1) date 2020-10-25 14:57:06*
%MOMM*%
%LPD*%
G04 APERTURE LIST*
%ADD10C,0.100000*%
G04 APERTURE END LIST*
D10*
G36*
X219337277Y-100682577D02*
G01*
X219528061Y-100720526D01*
X219646787Y-100769704D01*
X219814691Y-100839252D01*
X219814692Y-100839253D01*
X220072654Y-101011617D01*
X220292033Y-101230996D01*
X220345201Y-101310568D01*
X220464398Y-101488959D01*
X220522672Y-101629646D01*
X220583124Y-101775589D01*
X220588379Y-101802007D01*
X220643650Y-102079875D01*
X220643650Y-102390125D01*
X220583124Y-102694410D01*
X220464398Y-102981041D01*
X220464397Y-102981042D01*
X220292033Y-103239004D01*
X220072654Y-103458383D01*
X219902343Y-103572181D01*
X219814691Y-103630748D01*
X219646787Y-103700296D01*
X219528061Y-103749474D01*
X219375917Y-103779737D01*
X219223775Y-103810000D01*
X218913525Y-103810000D01*
X218761383Y-103779737D01*
X218609239Y-103749474D01*
X218490513Y-103700296D01*
X218322609Y-103630748D01*
X218234957Y-103572181D01*
X218064646Y-103458383D01*
X217845267Y-103239004D01*
X217672903Y-102981042D01*
X217672902Y-102981041D01*
X217554176Y-102694410D01*
X217493650Y-102390125D01*
X217493650Y-102079875D01*
X217548921Y-101802007D01*
X217554176Y-101775589D01*
X217614628Y-101629646D01*
X217672902Y-101488959D01*
X217792099Y-101310568D01*
X217845267Y-101230996D01*
X218064646Y-101011617D01*
X218322608Y-100839253D01*
X218322609Y-100839252D01*
X218490513Y-100769704D01*
X218609239Y-100720526D01*
X218800023Y-100682577D01*
X218913525Y-100660000D01*
X219223775Y-100660000D01*
X219337277Y-100682577D01*
X219337277Y-100682577D01*
G37*
G36*
X119337477Y-100682577D02*
G01*
X119528261Y-100720526D01*
X119646987Y-100769704D01*
X119814891Y-100839252D01*
X119814892Y-100839253D01*
X120072854Y-101011617D01*
X120292233Y-101230996D01*
X120345401Y-101310568D01*
X120464598Y-101488959D01*
X120522872Y-101629646D01*
X120583324Y-101775589D01*
X120588579Y-101802007D01*
X120643850Y-102079875D01*
X120643850Y-102390125D01*
X120583324Y-102694410D01*
X120464598Y-102981041D01*
X120464597Y-102981042D01*
X120292233Y-103239004D01*
X120072854Y-103458383D01*
X119902543Y-103572181D01*
X119814891Y-103630748D01*
X119646987Y-103700296D01*
X119528261Y-103749474D01*
X119376117Y-103779737D01*
X119223975Y-103810000D01*
X118913725Y-103810000D01*
X118761583Y-103779737D01*
X118609439Y-103749474D01*
X118490713Y-103700296D01*
X118322809Y-103630748D01*
X118235157Y-103572181D01*
X118064846Y-103458383D01*
X117845467Y-103239004D01*
X117673103Y-102981042D01*
X117673102Y-102981041D01*
X117554376Y-102694410D01*
X117493850Y-102390125D01*
X117493850Y-102079875D01*
X117549121Y-101802007D01*
X117554376Y-101775589D01*
X117614828Y-101629646D01*
X117673102Y-101488959D01*
X117792299Y-101310568D01*
X117845467Y-101230996D01*
X118064846Y-101011617D01*
X118322808Y-100839253D01*
X118322809Y-100839252D01*
X118490713Y-100769704D01*
X118609439Y-100720526D01*
X118800223Y-100682577D01*
X118913725Y-100660000D01*
X119223975Y-100660000D01*
X119337477Y-100682577D01*
X119337477Y-100682577D01*
G37*
G36*
X268885754Y-99627818D02*
G01*
X269259011Y-99782426D01*
X269259013Y-99782427D01*
X269594936Y-100006884D01*
X269880616Y-100292564D01*
X270104613Y-100627798D01*
X270105074Y-100628489D01*
X270259682Y-101001746D01*
X270338500Y-101397993D01*
X270338500Y-101802007D01*
X270259682Y-102198254D01*
X270147898Y-102468124D01*
X270105073Y-102571513D01*
X269880616Y-102907436D01*
X269594936Y-103193116D01*
X269259013Y-103417573D01*
X269259012Y-103417574D01*
X269259011Y-103417574D01*
X268885754Y-103572182D01*
X268489507Y-103651000D01*
X268085493Y-103651000D01*
X267689246Y-103572182D01*
X267315989Y-103417574D01*
X267315988Y-103417574D01*
X267315987Y-103417573D01*
X266980064Y-103193116D01*
X266694384Y-102907436D01*
X266469927Y-102571513D01*
X266427102Y-102468124D01*
X266315318Y-102198254D01*
X266236500Y-101802007D01*
X266236500Y-101397993D01*
X266315318Y-101001746D01*
X266469926Y-100628489D01*
X266470388Y-100627798D01*
X266694384Y-100292564D01*
X266980064Y-100006884D01*
X267315987Y-99782427D01*
X267315989Y-99782426D01*
X267689246Y-99627818D01*
X268085493Y-99549000D01*
X268489507Y-99549000D01*
X268885754Y-99627818D01*
X268885754Y-99627818D01*
G37*
G36*
X46635754Y-99627818D02*
G01*
X47009011Y-99782426D01*
X47009013Y-99782427D01*
X47344936Y-100006884D01*
X47630616Y-100292564D01*
X47854613Y-100627798D01*
X47855074Y-100628489D01*
X48009682Y-101001746D01*
X48088500Y-101397993D01*
X48088500Y-101802007D01*
X48009682Y-102198254D01*
X47897898Y-102468124D01*
X47855073Y-102571513D01*
X47630616Y-102907436D01*
X47344936Y-103193116D01*
X47009013Y-103417573D01*
X47009012Y-103417574D01*
X47009011Y-103417574D01*
X46635754Y-103572182D01*
X46239507Y-103651000D01*
X45835493Y-103651000D01*
X45439246Y-103572182D01*
X45065989Y-103417574D01*
X45065988Y-103417574D01*
X45065987Y-103417573D01*
X44730064Y-103193116D01*
X44444384Y-102907436D01*
X44219927Y-102571513D01*
X44177102Y-102468124D01*
X44065318Y-102198254D01*
X43986500Y-101802007D01*
X43986500Y-101397993D01*
X44065318Y-101001746D01*
X44219926Y-100628489D01*
X44220388Y-100627798D01*
X44444384Y-100292564D01*
X44730064Y-100006884D01*
X45065987Y-99782427D01*
X45065989Y-99782426D01*
X45439246Y-99627818D01*
X45835493Y-99549000D01*
X46239507Y-99549000D01*
X46635754Y-99627818D01*
X46635754Y-99627818D01*
G37*
G36*
X247707250Y-100069750D02*
G01*
X246005250Y-100069750D01*
X246005250Y-98367750D01*
X247707250Y-98367750D01*
X247707250Y-100069750D01*
X247707250Y-100069750D01*
G37*
G36*
X178651000Y-100069750D02*
G01*
X176949000Y-100069750D01*
X176949000Y-98367750D01*
X178651000Y-98367750D01*
X178651000Y-100069750D01*
X178651000Y-100069750D01*
G37*
G36*
X109594750Y-100069750D02*
G01*
X107892750Y-100069750D01*
X107892750Y-98367750D01*
X109594750Y-98367750D01*
X109594750Y-100069750D01*
X109594750Y-100069750D01*
G37*
G36*
X88163500Y-100069750D02*
G01*
X86461500Y-100069750D01*
X86461500Y-98367750D01*
X88163500Y-98367750D01*
X88163500Y-100069750D01*
X88163500Y-100069750D01*
G37*
G36*
X64351000Y-100069750D02*
G01*
X62649000Y-100069750D01*
X62649000Y-98367750D01*
X64351000Y-98367750D01*
X64351000Y-100069750D01*
X64351000Y-100069750D01*
G37*
G36*
X269138500Y-98164750D02*
G01*
X267436500Y-98164750D01*
X267436500Y-96462750D01*
X269138500Y-96462750D01*
X269138500Y-98164750D01*
X269138500Y-98164750D01*
G37*
G36*
X157760754Y-93365318D02*
G01*
X158134011Y-93519926D01*
X158134013Y-93519927D01*
X158469936Y-93744384D01*
X158755616Y-94030064D01*
X158979613Y-94365298D01*
X158980074Y-94365989D01*
X159134682Y-94739246D01*
X159213500Y-95135493D01*
X159213500Y-95539507D01*
X159134682Y-95935754D01*
X159035169Y-96176000D01*
X158980073Y-96309013D01*
X158755616Y-96644936D01*
X158469936Y-96930616D01*
X158134013Y-97155073D01*
X158134012Y-97155074D01*
X158134011Y-97155074D01*
X157760754Y-97309682D01*
X157364507Y-97388500D01*
X156960493Y-97388500D01*
X156564246Y-97309682D01*
X156190989Y-97155074D01*
X156190988Y-97155074D01*
X156190987Y-97155073D01*
X155855064Y-96930616D01*
X155569384Y-96644936D01*
X155344927Y-96309013D01*
X155289831Y-96176000D01*
X155190318Y-95935754D01*
X155111500Y-95539507D01*
X155111500Y-95135493D01*
X155190318Y-94739246D01*
X155344926Y-94365989D01*
X155345388Y-94365298D01*
X155569384Y-94030064D01*
X155855064Y-93744384D01*
X156190987Y-93519927D01*
X156190989Y-93519926D01*
X156564246Y-93365318D01*
X156960493Y-93286500D01*
X157364507Y-93286500D01*
X157760754Y-93365318D01*
X157760754Y-93365318D01*
G37*
G36*
X260152724Y-93283684D02*
G01*
X260349808Y-93365319D01*
X260524873Y-93437833D01*
X260859798Y-93661623D01*
X261144627Y-93946452D01*
X261368417Y-94281377D01*
X261400812Y-94359586D01*
X261522566Y-94653526D01*
X261601150Y-95048594D01*
X261601150Y-95451406D01*
X261522566Y-95846474D01*
X261471701Y-95969272D01*
X261368417Y-96218623D01*
X261144627Y-96553548D01*
X260859798Y-96838377D01*
X260524873Y-97062167D01*
X260423294Y-97104242D01*
X260152724Y-97216316D01*
X259757656Y-97294900D01*
X259354844Y-97294900D01*
X258959776Y-97216316D01*
X258689206Y-97104242D01*
X258587627Y-97062167D01*
X258252702Y-96838377D01*
X257967873Y-96553548D01*
X257744083Y-96218623D01*
X257640799Y-95969272D01*
X257589934Y-95846474D01*
X257511350Y-95451406D01*
X257511350Y-95048594D01*
X257589934Y-94653526D01*
X257711688Y-94359586D01*
X257744083Y-94281377D01*
X257967873Y-93946452D01*
X258252702Y-93661623D01*
X258587627Y-93437833D01*
X258762692Y-93365319D01*
X258959776Y-93283684D01*
X259354844Y-93205100D01*
X259757656Y-93205100D01*
X260152724Y-93283684D01*
X260152724Y-93283684D01*
G37*
G36*
X55365224Y-93283684D02*
G01*
X55562308Y-93365319D01*
X55737373Y-93437833D01*
X56072298Y-93661623D01*
X56357127Y-93946452D01*
X56580917Y-94281377D01*
X56613312Y-94359586D01*
X56735066Y-94653526D01*
X56813650Y-95048594D01*
X56813650Y-95451406D01*
X56735066Y-95846474D01*
X56684201Y-95969272D01*
X56580917Y-96218623D01*
X56357127Y-96553548D01*
X56072298Y-96838377D01*
X55737373Y-97062167D01*
X55635794Y-97104242D01*
X55365224Y-97216316D01*
X54970156Y-97294900D01*
X54567344Y-97294900D01*
X54172276Y-97216316D01*
X53901706Y-97104242D01*
X53800127Y-97062167D01*
X53465202Y-96838377D01*
X53180373Y-96553548D01*
X52956583Y-96218623D01*
X52853299Y-95969272D01*
X52802434Y-95846474D01*
X52723850Y-95451406D01*
X52723850Y-95048594D01*
X52802434Y-94653526D01*
X52924188Y-94359586D01*
X52956583Y-94281377D01*
X53180373Y-93946452D01*
X53465202Y-93661623D01*
X53800127Y-93437833D01*
X53975192Y-93365319D01*
X54172276Y-93283684D01*
X54567344Y-93205100D01*
X54970156Y-93205100D01*
X55365224Y-93283684D01*
X55365224Y-93283684D01*
G37*
G36*
X100608974Y-93283684D02*
G01*
X100806058Y-93365319D01*
X100981123Y-93437833D01*
X101316048Y-93661623D01*
X101600877Y-93946452D01*
X101824667Y-94281377D01*
X101857062Y-94359586D01*
X101978816Y-94653526D01*
X102057400Y-95048594D01*
X102057400Y-95451406D01*
X101978816Y-95846474D01*
X101927951Y-95969272D01*
X101824667Y-96218623D01*
X101600877Y-96553548D01*
X101316048Y-96838377D01*
X100981123Y-97062167D01*
X100879544Y-97104242D01*
X100608974Y-97216316D01*
X100213906Y-97294900D01*
X99811094Y-97294900D01*
X99416026Y-97216316D01*
X99145456Y-97104242D01*
X99043877Y-97062167D01*
X98708952Y-96838377D01*
X98424123Y-96553548D01*
X98200333Y-96218623D01*
X98097049Y-95969272D01*
X98046184Y-95846474D01*
X97967600Y-95451406D01*
X97967600Y-95048594D01*
X98046184Y-94653526D01*
X98167938Y-94359586D01*
X98200333Y-94281377D01*
X98424123Y-93946452D01*
X98708952Y-93661623D01*
X99043877Y-93437833D01*
X99218942Y-93365319D01*
X99416026Y-93283684D01*
X99811094Y-93205100D01*
X100213906Y-93205100D01*
X100608974Y-93283684D01*
X100608974Y-93283684D01*
G37*
G36*
X169665224Y-93283684D02*
G01*
X169862308Y-93365319D01*
X170037373Y-93437833D01*
X170372298Y-93661623D01*
X170657127Y-93946452D01*
X170880917Y-94281377D01*
X170913312Y-94359586D01*
X171035066Y-94653526D01*
X171113650Y-95048594D01*
X171113650Y-95451406D01*
X171035066Y-95846474D01*
X170984201Y-95969272D01*
X170880917Y-96218623D01*
X170657127Y-96553548D01*
X170372298Y-96838377D01*
X170037373Y-97062167D01*
X169935794Y-97104242D01*
X169665224Y-97216316D01*
X169270156Y-97294900D01*
X168867344Y-97294900D01*
X168472276Y-97216316D01*
X168201706Y-97104242D01*
X168100127Y-97062167D01*
X167765202Y-96838377D01*
X167480373Y-96553548D01*
X167256583Y-96218623D01*
X167153299Y-95969272D01*
X167102434Y-95846474D01*
X167023850Y-95451406D01*
X167023850Y-95048594D01*
X167102434Y-94653526D01*
X167224188Y-94359586D01*
X167256583Y-94281377D01*
X167480373Y-93946452D01*
X167765202Y-93661623D01*
X168100127Y-93437833D01*
X168275192Y-93365319D01*
X168472276Y-93283684D01*
X168867344Y-93205100D01*
X169270156Y-93205100D01*
X169665224Y-93283684D01*
X169665224Y-93283684D01*
G37*
G36*
X238721474Y-93283684D02*
G01*
X238918558Y-93365319D01*
X239093623Y-93437833D01*
X239428548Y-93661623D01*
X239713377Y-93946452D01*
X239937167Y-94281377D01*
X239969562Y-94359586D01*
X240091316Y-94653526D01*
X240169900Y-95048594D01*
X240169900Y-95451406D01*
X240091316Y-95846474D01*
X240040451Y-95969272D01*
X239937167Y-96218623D01*
X239713377Y-96553548D01*
X239428548Y-96838377D01*
X239093623Y-97062167D01*
X238992044Y-97104242D01*
X238721474Y-97216316D01*
X238326406Y-97294900D01*
X237923594Y-97294900D01*
X237528526Y-97216316D01*
X237257956Y-97104242D01*
X237156377Y-97062167D01*
X236821452Y-96838377D01*
X236536623Y-96553548D01*
X236312833Y-96218623D01*
X236209549Y-95969272D01*
X236158684Y-95846474D01*
X236080100Y-95451406D01*
X236080100Y-95048594D01*
X236158684Y-94653526D01*
X236280438Y-94359586D01*
X236312833Y-94281377D01*
X236536623Y-93946452D01*
X236821452Y-93661623D01*
X237156377Y-93437833D01*
X237331442Y-93365319D01*
X237528526Y-93283684D01*
X237923594Y-93205100D01*
X238326406Y-93205100D01*
X238721474Y-93283684D01*
X238721474Y-93283684D01*
G37*
G36*
X79177724Y-93283684D02*
G01*
X79374808Y-93365319D01*
X79549873Y-93437833D01*
X79884798Y-93661623D01*
X80169627Y-93946452D01*
X80393417Y-94281377D01*
X80425812Y-94359586D01*
X80547566Y-94653526D01*
X80626150Y-95048594D01*
X80626150Y-95451406D01*
X80547566Y-95846474D01*
X80496701Y-95969272D01*
X80393417Y-96218623D01*
X80169627Y-96553548D01*
X79884798Y-96838377D01*
X79549873Y-97062167D01*
X79448294Y-97104242D01*
X79177724Y-97216316D01*
X78782656Y-97294900D01*
X78379844Y-97294900D01*
X77984776Y-97216316D01*
X77714206Y-97104242D01*
X77612627Y-97062167D01*
X77277702Y-96838377D01*
X76992873Y-96553548D01*
X76769083Y-96218623D01*
X76665799Y-95969272D01*
X76614934Y-95846474D01*
X76536350Y-95451406D01*
X76536350Y-95048594D01*
X76614934Y-94653526D01*
X76736688Y-94359586D01*
X76769083Y-94281377D01*
X76992873Y-93946452D01*
X77277702Y-93661623D01*
X77612627Y-93437833D01*
X77787692Y-93365319D01*
X77984776Y-93283684D01*
X78379844Y-93205100D01*
X78782656Y-93205100D01*
X79177724Y-93283684D01*
X79177724Y-93283684D01*
G37*
G36*
X49958854Y-94359585D02*
G01*
X50127376Y-94429389D01*
X50279041Y-94530728D01*
X50408022Y-94659709D01*
X50509361Y-94811374D01*
X50579165Y-94979896D01*
X50614750Y-95158797D01*
X50614750Y-95341203D01*
X50579165Y-95520104D01*
X50509361Y-95688626D01*
X50408022Y-95840291D01*
X50279041Y-95969272D01*
X50127376Y-96070611D01*
X49958854Y-96140415D01*
X49779953Y-96176000D01*
X49597547Y-96176000D01*
X49418646Y-96140415D01*
X49250124Y-96070611D01*
X49098459Y-95969272D01*
X48969478Y-95840291D01*
X48868139Y-95688626D01*
X48798335Y-95520104D01*
X48762750Y-95341203D01*
X48762750Y-95158797D01*
X48798335Y-94979896D01*
X48868139Y-94811374D01*
X48969478Y-94659709D01*
X49098459Y-94530728D01*
X49250124Y-94429389D01*
X49418646Y-94359585D01*
X49597547Y-94324000D01*
X49779953Y-94324000D01*
X49958854Y-94359585D01*
X49958854Y-94359585D01*
G37*
G36*
X60118854Y-94359585D02*
G01*
X60287376Y-94429389D01*
X60439041Y-94530728D01*
X60568022Y-94659709D01*
X60669361Y-94811374D01*
X60739165Y-94979896D01*
X60774750Y-95158797D01*
X60774750Y-95341203D01*
X60739165Y-95520104D01*
X60669361Y-95688626D01*
X60568022Y-95840291D01*
X60439041Y-95969272D01*
X60287376Y-96070611D01*
X60118854Y-96140415D01*
X59939953Y-96176000D01*
X59757547Y-96176000D01*
X59578646Y-96140415D01*
X59410124Y-96070611D01*
X59258459Y-95969272D01*
X59129478Y-95840291D01*
X59028139Y-95688626D01*
X58958335Y-95520104D01*
X58922750Y-95341203D01*
X58922750Y-95158797D01*
X58958335Y-94979896D01*
X59028139Y-94811374D01*
X59129478Y-94659709D01*
X59258459Y-94530728D01*
X59410124Y-94429389D01*
X59578646Y-94359585D01*
X59757547Y-94324000D01*
X59939953Y-94324000D01*
X60118854Y-94359585D01*
X60118854Y-94359585D01*
G37*
G36*
X73771354Y-94359585D02*
G01*
X73939876Y-94429389D01*
X74091541Y-94530728D01*
X74220522Y-94659709D01*
X74321861Y-94811374D01*
X74391665Y-94979896D01*
X74427250Y-95158797D01*
X74427250Y-95341203D01*
X74391665Y-95520104D01*
X74321861Y-95688626D01*
X74220522Y-95840291D01*
X74091541Y-95969272D01*
X73939876Y-96070611D01*
X73771354Y-96140415D01*
X73592453Y-96176000D01*
X73410047Y-96176000D01*
X73231146Y-96140415D01*
X73062624Y-96070611D01*
X72910959Y-95969272D01*
X72781978Y-95840291D01*
X72680639Y-95688626D01*
X72610835Y-95520104D01*
X72575250Y-95341203D01*
X72575250Y-95158797D01*
X72610835Y-94979896D01*
X72680639Y-94811374D01*
X72781978Y-94659709D01*
X72910959Y-94530728D01*
X73062624Y-94429389D01*
X73231146Y-94359585D01*
X73410047Y-94324000D01*
X73592453Y-94324000D01*
X73771354Y-94359585D01*
X73771354Y-94359585D01*
G37*
G36*
X83931354Y-94359585D02*
G01*
X84099876Y-94429389D01*
X84251541Y-94530728D01*
X84380522Y-94659709D01*
X84481861Y-94811374D01*
X84551665Y-94979896D01*
X84587250Y-95158797D01*
X84587250Y-95341203D01*
X84551665Y-95520104D01*
X84481861Y-95688626D01*
X84380522Y-95840291D01*
X84251541Y-95969272D01*
X84099876Y-96070611D01*
X83931354Y-96140415D01*
X83752453Y-96176000D01*
X83570047Y-96176000D01*
X83391146Y-96140415D01*
X83222624Y-96070611D01*
X83070959Y-95969272D01*
X82941978Y-95840291D01*
X82840639Y-95688626D01*
X82770835Y-95520104D01*
X82735250Y-95341203D01*
X82735250Y-95158797D01*
X82770835Y-94979896D01*
X82840639Y-94811374D01*
X82941978Y-94659709D01*
X83070959Y-94530728D01*
X83222624Y-94429389D01*
X83391146Y-94359585D01*
X83570047Y-94324000D01*
X83752453Y-94324000D01*
X83931354Y-94359585D01*
X83931354Y-94359585D01*
G37*
G36*
X95202604Y-94359585D02*
G01*
X95371126Y-94429389D01*
X95522791Y-94530728D01*
X95651772Y-94659709D01*
X95753111Y-94811374D01*
X95822915Y-94979896D01*
X95858500Y-95158797D01*
X95858500Y-95341203D01*
X95822915Y-95520104D01*
X95753111Y-95688626D01*
X95651772Y-95840291D01*
X95522791Y-95969272D01*
X95371126Y-96070611D01*
X95202604Y-96140415D01*
X95023703Y-96176000D01*
X94841297Y-96176000D01*
X94662396Y-96140415D01*
X94493874Y-96070611D01*
X94342209Y-95969272D01*
X94213228Y-95840291D01*
X94111889Y-95688626D01*
X94042085Y-95520104D01*
X94006500Y-95341203D01*
X94006500Y-95158797D01*
X94042085Y-94979896D01*
X94111889Y-94811374D01*
X94213228Y-94659709D01*
X94342209Y-94530728D01*
X94493874Y-94429389D01*
X94662396Y-94359585D01*
X94841297Y-94324000D01*
X95023703Y-94324000D01*
X95202604Y-94359585D01*
X95202604Y-94359585D01*
G37*
G36*
X105362604Y-94359585D02*
G01*
X105531126Y-94429389D01*
X105682791Y-94530728D01*
X105811772Y-94659709D01*
X105913111Y-94811374D01*
X105982915Y-94979896D01*
X106018500Y-95158797D01*
X106018500Y-95341203D01*
X105982915Y-95520104D01*
X105913111Y-95688626D01*
X105811772Y-95840291D01*
X105682791Y-95969272D01*
X105531126Y-96070611D01*
X105362604Y-96140415D01*
X105183703Y-96176000D01*
X105001297Y-96176000D01*
X104822396Y-96140415D01*
X104653874Y-96070611D01*
X104502209Y-95969272D01*
X104373228Y-95840291D01*
X104271889Y-95688626D01*
X104202085Y-95520104D01*
X104166500Y-95341203D01*
X104166500Y-95158797D01*
X104202085Y-94979896D01*
X104271889Y-94811374D01*
X104373228Y-94659709D01*
X104502209Y-94530728D01*
X104653874Y-94429389D01*
X104822396Y-94359585D01*
X105001297Y-94324000D01*
X105183703Y-94324000D01*
X105362604Y-94359585D01*
X105362604Y-94359585D01*
G37*
G36*
X233315104Y-94359585D02*
G01*
X233483626Y-94429389D01*
X233635291Y-94530728D01*
X233764272Y-94659709D01*
X233865611Y-94811374D01*
X233935415Y-94979896D01*
X233971000Y-95158797D01*
X233971000Y-95341203D01*
X233935415Y-95520104D01*
X233865611Y-95688626D01*
X233764272Y-95840291D01*
X233635291Y-95969272D01*
X233483626Y-96070611D01*
X233315104Y-96140415D01*
X233136203Y-96176000D01*
X232953797Y-96176000D01*
X232774896Y-96140415D01*
X232606374Y-96070611D01*
X232454709Y-95969272D01*
X232325728Y-95840291D01*
X232224389Y-95688626D01*
X232154585Y-95520104D01*
X232119000Y-95341203D01*
X232119000Y-95158797D01*
X232154585Y-94979896D01*
X232224389Y-94811374D01*
X232325728Y-94659709D01*
X232454709Y-94530728D01*
X232606374Y-94429389D01*
X232774896Y-94359585D01*
X232953797Y-94324000D01*
X233136203Y-94324000D01*
X233315104Y-94359585D01*
X233315104Y-94359585D01*
G37*
G36*
X243475104Y-94359585D02*
G01*
X243643626Y-94429389D01*
X243795291Y-94530728D01*
X243924272Y-94659709D01*
X244025611Y-94811374D01*
X244095415Y-94979896D01*
X244131000Y-95158797D01*
X244131000Y-95341203D01*
X244095415Y-95520104D01*
X244025611Y-95688626D01*
X243924272Y-95840291D01*
X243795291Y-95969272D01*
X243643626Y-96070611D01*
X243475104Y-96140415D01*
X243296203Y-96176000D01*
X243113797Y-96176000D01*
X242934896Y-96140415D01*
X242766374Y-96070611D01*
X242614709Y-95969272D01*
X242485728Y-95840291D01*
X242384389Y-95688626D01*
X242314585Y-95520104D01*
X242279000Y-95341203D01*
X242279000Y-95158797D01*
X242314585Y-94979896D01*
X242384389Y-94811374D01*
X242485728Y-94659709D01*
X242614709Y-94530728D01*
X242766374Y-94429389D01*
X242934896Y-94359585D01*
X243113797Y-94324000D01*
X243296203Y-94324000D01*
X243475104Y-94359585D01*
X243475104Y-94359585D01*
G37*
G36*
X254746354Y-94359585D02*
G01*
X254914876Y-94429389D01*
X255066541Y-94530728D01*
X255195522Y-94659709D01*
X255296861Y-94811374D01*
X255366665Y-94979896D01*
X255402250Y-95158797D01*
X255402250Y-95341203D01*
X255366665Y-95520104D01*
X255296861Y-95688626D01*
X255195522Y-95840291D01*
X255066541Y-95969272D01*
X254914876Y-96070611D01*
X254746354Y-96140415D01*
X254567453Y-96176000D01*
X254385047Y-96176000D01*
X254206146Y-96140415D01*
X254037624Y-96070611D01*
X253885959Y-95969272D01*
X253756978Y-95840291D01*
X253655639Y-95688626D01*
X253585835Y-95520104D01*
X253550250Y-95341203D01*
X253550250Y-95158797D01*
X253585835Y-94979896D01*
X253655639Y-94811374D01*
X253756978Y-94659709D01*
X253885959Y-94530728D01*
X254037624Y-94429389D01*
X254206146Y-94359585D01*
X254385047Y-94324000D01*
X254567453Y-94324000D01*
X254746354Y-94359585D01*
X254746354Y-94359585D01*
G37*
G36*
X264906354Y-94359585D02*
G01*
X265074876Y-94429389D01*
X265226541Y-94530728D01*
X265355522Y-94659709D01*
X265456861Y-94811374D01*
X265526665Y-94979896D01*
X265562250Y-95158797D01*
X265562250Y-95341203D01*
X265526665Y-95520104D01*
X265456861Y-95688626D01*
X265355522Y-95840291D01*
X265226541Y-95969272D01*
X265074876Y-96070611D01*
X264906354Y-96140415D01*
X264727453Y-96176000D01*
X264545047Y-96176000D01*
X264366146Y-96140415D01*
X264197624Y-96070611D01*
X264045959Y-95969272D01*
X263916978Y-95840291D01*
X263815639Y-95688626D01*
X263745835Y-95520104D01*
X263710250Y-95341203D01*
X263710250Y-95158797D01*
X263745835Y-94979896D01*
X263815639Y-94811374D01*
X263916978Y-94659709D01*
X264045959Y-94530728D01*
X264197624Y-94429389D01*
X264366146Y-94359585D01*
X264545047Y-94324000D01*
X264727453Y-94324000D01*
X264906354Y-94359585D01*
X264906354Y-94359585D01*
G37*
G36*
X164258854Y-94359585D02*
G01*
X164427376Y-94429389D01*
X164579041Y-94530728D01*
X164708022Y-94659709D01*
X164809361Y-94811374D01*
X164879165Y-94979896D01*
X164914750Y-95158797D01*
X164914750Y-95341203D01*
X164879165Y-95520104D01*
X164809361Y-95688626D01*
X164708022Y-95840291D01*
X164579041Y-95969272D01*
X164427376Y-96070611D01*
X164258854Y-96140415D01*
X164079953Y-96176000D01*
X163897547Y-96176000D01*
X163718646Y-96140415D01*
X163550124Y-96070611D01*
X163398459Y-95969272D01*
X163269478Y-95840291D01*
X163168139Y-95688626D01*
X163098335Y-95520104D01*
X163062750Y-95341203D01*
X163062750Y-95158797D01*
X163098335Y-94979896D01*
X163168139Y-94811374D01*
X163269478Y-94659709D01*
X163398459Y-94530728D01*
X163550124Y-94429389D01*
X163718646Y-94359585D01*
X163897547Y-94324000D01*
X164079953Y-94324000D01*
X164258854Y-94359585D01*
X164258854Y-94359585D01*
G37*
G36*
X174418854Y-94359585D02*
G01*
X174587376Y-94429389D01*
X174739041Y-94530728D01*
X174868022Y-94659709D01*
X174969361Y-94811374D01*
X175039165Y-94979896D01*
X175074750Y-95158797D01*
X175074750Y-95341203D01*
X175039165Y-95520104D01*
X174969361Y-95688626D01*
X174868022Y-95840291D01*
X174739041Y-95969272D01*
X174587376Y-96070611D01*
X174418854Y-96140415D01*
X174239953Y-96176000D01*
X174057547Y-96176000D01*
X173878646Y-96140415D01*
X173710124Y-96070611D01*
X173558459Y-95969272D01*
X173429478Y-95840291D01*
X173328139Y-95688626D01*
X173258335Y-95520104D01*
X173222750Y-95341203D01*
X173222750Y-95158797D01*
X173258335Y-94979896D01*
X173328139Y-94811374D01*
X173429478Y-94659709D01*
X173558459Y-94530728D01*
X173710124Y-94429389D01*
X173878646Y-94359585D01*
X174057547Y-94324000D01*
X174239953Y-94324000D01*
X174418854Y-94359585D01*
X174418854Y-94359585D01*
G37*
G36*
X247023073Y-90760063D02*
G01*
X247183492Y-90808726D01*
X247316156Y-90879636D01*
X247331328Y-90887746D01*
X247460909Y-90994091D01*
X247567254Y-91123672D01*
X247567255Y-91123674D01*
X247646274Y-91271508D01*
X247694937Y-91431927D01*
X247711367Y-91598750D01*
X247694937Y-91765573D01*
X247646274Y-91925992D01*
X247575364Y-92058656D01*
X247567254Y-92073828D01*
X247460909Y-92203409D01*
X247331328Y-92309754D01*
X247331326Y-92309755D01*
X247183492Y-92388774D01*
X247023073Y-92437437D01*
X246898054Y-92449750D01*
X246814446Y-92449750D01*
X246689427Y-92437437D01*
X246529008Y-92388774D01*
X246381174Y-92309755D01*
X246381172Y-92309754D01*
X246251591Y-92203409D01*
X246145246Y-92073828D01*
X246137136Y-92058656D01*
X246066226Y-91925992D01*
X246017563Y-91765573D01*
X246001133Y-91598750D01*
X246017563Y-91431927D01*
X246066226Y-91271508D01*
X246145245Y-91123674D01*
X246145246Y-91123672D01*
X246251591Y-90994091D01*
X246381172Y-90887746D01*
X246396344Y-90879636D01*
X246529008Y-90808726D01*
X246689427Y-90760063D01*
X246814446Y-90747750D01*
X246898054Y-90747750D01*
X247023073Y-90760063D01*
X247023073Y-90760063D01*
G37*
G36*
X63666823Y-90760063D02*
G01*
X63827242Y-90808726D01*
X63959906Y-90879636D01*
X63975078Y-90887746D01*
X64104659Y-90994091D01*
X64211004Y-91123672D01*
X64211005Y-91123674D01*
X64290024Y-91271508D01*
X64338687Y-91431927D01*
X64355117Y-91598750D01*
X64338687Y-91765573D01*
X64290024Y-91925992D01*
X64219114Y-92058656D01*
X64211004Y-92073828D01*
X64104659Y-92203409D01*
X63975078Y-92309754D01*
X63975076Y-92309755D01*
X63827242Y-92388774D01*
X63666823Y-92437437D01*
X63541804Y-92449750D01*
X63458196Y-92449750D01*
X63333177Y-92437437D01*
X63172758Y-92388774D01*
X63024924Y-92309755D01*
X63024922Y-92309754D01*
X62895341Y-92203409D01*
X62788996Y-92073828D01*
X62780886Y-92058656D01*
X62709976Y-91925992D01*
X62661313Y-91765573D01*
X62644883Y-91598750D01*
X62661313Y-91431927D01*
X62709976Y-91271508D01*
X62788995Y-91123674D01*
X62788996Y-91123672D01*
X62895341Y-90994091D01*
X63024922Y-90887746D01*
X63040094Y-90879636D01*
X63172758Y-90808726D01*
X63333177Y-90760063D01*
X63458196Y-90747750D01*
X63541804Y-90747750D01*
X63666823Y-90760063D01*
X63666823Y-90760063D01*
G37*
G36*
X87479323Y-90760063D02*
G01*
X87639742Y-90808726D01*
X87772406Y-90879636D01*
X87787578Y-90887746D01*
X87917159Y-90994091D01*
X88023504Y-91123672D01*
X88023505Y-91123674D01*
X88102524Y-91271508D01*
X88151187Y-91431927D01*
X88167617Y-91598750D01*
X88151187Y-91765573D01*
X88102524Y-91925992D01*
X88031614Y-92058656D01*
X88023504Y-92073828D01*
X87917159Y-92203409D01*
X87787578Y-92309754D01*
X87787576Y-92309755D01*
X87639742Y-92388774D01*
X87479323Y-92437437D01*
X87354304Y-92449750D01*
X87270696Y-92449750D01*
X87145677Y-92437437D01*
X86985258Y-92388774D01*
X86837424Y-92309755D01*
X86837422Y-92309754D01*
X86707841Y-92203409D01*
X86601496Y-92073828D01*
X86593386Y-92058656D01*
X86522476Y-91925992D01*
X86473813Y-91765573D01*
X86457383Y-91598750D01*
X86473813Y-91431927D01*
X86522476Y-91271508D01*
X86601495Y-91123674D01*
X86601496Y-91123672D01*
X86707841Y-90994091D01*
X86837422Y-90887746D01*
X86852594Y-90879636D01*
X86985258Y-90808726D01*
X87145677Y-90760063D01*
X87270696Y-90747750D01*
X87354304Y-90747750D01*
X87479323Y-90760063D01*
X87479323Y-90760063D01*
G37*
G36*
X177966823Y-90760063D02*
G01*
X178127242Y-90808726D01*
X178259906Y-90879636D01*
X178275078Y-90887746D01*
X178404659Y-90994091D01*
X178511004Y-91123672D01*
X178511005Y-91123674D01*
X178590024Y-91271508D01*
X178638687Y-91431927D01*
X178655117Y-91598750D01*
X178638687Y-91765573D01*
X178590024Y-91925992D01*
X178519114Y-92058656D01*
X178511004Y-92073828D01*
X178404659Y-92203409D01*
X178275078Y-92309754D01*
X178275076Y-92309755D01*
X178127242Y-92388774D01*
X177966823Y-92437437D01*
X177841804Y-92449750D01*
X177758196Y-92449750D01*
X177633177Y-92437437D01*
X177472758Y-92388774D01*
X177324924Y-92309755D01*
X177324922Y-92309754D01*
X177195341Y-92203409D01*
X177088996Y-92073828D01*
X177080886Y-92058656D01*
X177009976Y-91925992D01*
X176961313Y-91765573D01*
X176944883Y-91598750D01*
X176961313Y-91431927D01*
X177009976Y-91271508D01*
X177088995Y-91123674D01*
X177088996Y-91123672D01*
X177195341Y-90994091D01*
X177324922Y-90887746D01*
X177340094Y-90879636D01*
X177472758Y-90808726D01*
X177633177Y-90760063D01*
X177758196Y-90747750D01*
X177841804Y-90747750D01*
X177966823Y-90760063D01*
X177966823Y-90760063D01*
G37*
G36*
X108910573Y-90760063D02*
G01*
X109070992Y-90808726D01*
X109203656Y-90879636D01*
X109218828Y-90887746D01*
X109348409Y-90994091D01*
X109454754Y-91123672D01*
X109454755Y-91123674D01*
X109533774Y-91271508D01*
X109582437Y-91431927D01*
X109598867Y-91598750D01*
X109582437Y-91765573D01*
X109533774Y-91925992D01*
X109462864Y-92058656D01*
X109454754Y-92073828D01*
X109348409Y-92203409D01*
X109218828Y-92309754D01*
X109218826Y-92309755D01*
X109070992Y-92388774D01*
X108910573Y-92437437D01*
X108785554Y-92449750D01*
X108701946Y-92449750D01*
X108576927Y-92437437D01*
X108416508Y-92388774D01*
X108268674Y-92309755D01*
X108268672Y-92309754D01*
X108139091Y-92203409D01*
X108032746Y-92073828D01*
X108024636Y-92058656D01*
X107953726Y-91925992D01*
X107905063Y-91765573D01*
X107888633Y-91598750D01*
X107905063Y-91431927D01*
X107953726Y-91271508D01*
X108032745Y-91123674D01*
X108032746Y-91123672D01*
X108139091Y-90994091D01*
X108268672Y-90887746D01*
X108283844Y-90879636D01*
X108416508Y-90808726D01*
X108576927Y-90760063D01*
X108701946Y-90747750D01*
X108785554Y-90747750D01*
X108910573Y-90760063D01*
X108910573Y-90760063D01*
G37*
G36*
X268454323Y-88855063D02*
G01*
X268614742Y-88903726D01*
X268722483Y-88961315D01*
X268762578Y-88982746D01*
X268892159Y-89089091D01*
X268998504Y-89218672D01*
X268998505Y-89218674D01*
X269077524Y-89366508D01*
X269126187Y-89526927D01*
X269142617Y-89693750D01*
X269126187Y-89860573D01*
X269077524Y-90020992D01*
X269006614Y-90153656D01*
X268998504Y-90168828D01*
X268892159Y-90298409D01*
X268762578Y-90404754D01*
X268762576Y-90404755D01*
X268614742Y-90483774D01*
X268454323Y-90532437D01*
X268329304Y-90544750D01*
X268245696Y-90544750D01*
X268120677Y-90532437D01*
X267960258Y-90483774D01*
X267812424Y-90404755D01*
X267812422Y-90404754D01*
X267682841Y-90298409D01*
X267576496Y-90168828D01*
X267568386Y-90153656D01*
X267497476Y-90020992D01*
X267448813Y-89860573D01*
X267432383Y-89693750D01*
X267448813Y-89526927D01*
X267497476Y-89366508D01*
X267576495Y-89218674D01*
X267576496Y-89218672D01*
X267682841Y-89089091D01*
X267812422Y-88982746D01*
X267852517Y-88961315D01*
X267960258Y-88903726D01*
X268120677Y-88855063D01*
X268245696Y-88842750D01*
X268329304Y-88842750D01*
X268454323Y-88855063D01*
X268454323Y-88855063D01*
G37*
G36*
X119665324Y-85028684D02*
G01*
X119883324Y-85118983D01*
X120037473Y-85182833D01*
X120372398Y-85406623D01*
X120657227Y-85691452D01*
X120881017Y-86026377D01*
X120944867Y-86180526D01*
X121035166Y-86398526D01*
X121113750Y-86793594D01*
X121113750Y-87196406D01*
X121035166Y-87591474D01*
X120944867Y-87809474D01*
X120881017Y-87963623D01*
X120657227Y-88298548D01*
X120372398Y-88583377D01*
X120037473Y-88807167D01*
X119921841Y-88855063D01*
X119665324Y-88961316D01*
X119270256Y-89039900D01*
X118867444Y-89039900D01*
X118472376Y-88961316D01*
X118215859Y-88855063D01*
X118100227Y-88807167D01*
X117765302Y-88583377D01*
X117480473Y-88298548D01*
X117256683Y-87963623D01*
X117192833Y-87809474D01*
X117102534Y-87591474D01*
X117023950Y-87196406D01*
X117023950Y-86793594D01*
X117102534Y-86398526D01*
X117192833Y-86180526D01*
X117256683Y-86026377D01*
X117480473Y-85691452D01*
X117765302Y-85406623D01*
X118100227Y-85182833D01*
X118254376Y-85118983D01*
X118472376Y-85028684D01*
X118867444Y-84950100D01*
X119270256Y-84950100D01*
X119665324Y-85028684D01*
X119665324Y-85028684D01*
G37*
G36*
X219665124Y-85028684D02*
G01*
X219883124Y-85118983D01*
X220037273Y-85182833D01*
X220372198Y-85406623D01*
X220657027Y-85691452D01*
X220880817Y-86026377D01*
X220944667Y-86180526D01*
X221034966Y-86398526D01*
X221113550Y-86793594D01*
X221113550Y-87196406D01*
X221034966Y-87591474D01*
X220944667Y-87809474D01*
X220880817Y-87963623D01*
X220657027Y-88298548D01*
X220372198Y-88583377D01*
X220037273Y-88807167D01*
X219921641Y-88855063D01*
X219665124Y-88961316D01*
X219270056Y-89039900D01*
X218867244Y-89039900D01*
X218472176Y-88961316D01*
X218215659Y-88855063D01*
X218100027Y-88807167D01*
X217765102Y-88583377D01*
X217480273Y-88298548D01*
X217256483Y-87963623D01*
X217192633Y-87809474D01*
X217102334Y-87591474D01*
X217023750Y-87196406D01*
X217023750Y-86793594D01*
X217102334Y-86398526D01*
X217192633Y-86180526D01*
X217256483Y-86026377D01*
X217480273Y-85691452D01*
X217765102Y-85406623D01*
X218100027Y-85182833D01*
X218254176Y-85118983D01*
X218472176Y-85028684D01*
X218867244Y-84950100D01*
X219270056Y-84950100D01*
X219665124Y-85028684D01*
X219665124Y-85028684D01*
G37*
G36*
X264915224Y-82488684D02*
G01*
X265133224Y-82578983D01*
X265287373Y-82642833D01*
X265622298Y-82866623D01*
X265907127Y-83151452D01*
X266130917Y-83486377D01*
X266130917Y-83486378D01*
X266285066Y-83858526D01*
X266363650Y-84253594D01*
X266363650Y-84656406D01*
X266285066Y-85051474D01*
X266230655Y-85182833D01*
X266130917Y-85423623D01*
X265907127Y-85758548D01*
X265622298Y-86043377D01*
X265287373Y-86267167D01*
X265133224Y-86331017D01*
X264915224Y-86421316D01*
X264520156Y-86499900D01*
X264117344Y-86499900D01*
X263722276Y-86421316D01*
X263504276Y-86331017D01*
X263350127Y-86267167D01*
X263015202Y-86043377D01*
X262730373Y-85758548D01*
X262506583Y-85423623D01*
X262406845Y-85182833D01*
X262352434Y-85051474D01*
X262273850Y-84656406D01*
X262273850Y-84253594D01*
X262352434Y-83858526D01*
X262506583Y-83486378D01*
X262506583Y-83486377D01*
X262730373Y-83151452D01*
X263015202Y-82866623D01*
X263350127Y-82642833D01*
X263504276Y-82578983D01*
X263722276Y-82488684D01*
X264117344Y-82410100D01*
X264520156Y-82410100D01*
X264915224Y-82488684D01*
X264915224Y-82488684D01*
G37*
G36*
X241102724Y-82488684D02*
G01*
X241320724Y-82578983D01*
X241474873Y-82642833D01*
X241809798Y-82866623D01*
X242094627Y-83151452D01*
X242318417Y-83486377D01*
X242318417Y-83486378D01*
X242472566Y-83858526D01*
X242551150Y-84253594D01*
X242551150Y-84656406D01*
X242472566Y-85051474D01*
X242418155Y-85182833D01*
X242318417Y-85423623D01*
X242094627Y-85758548D01*
X241809798Y-86043377D01*
X241474873Y-86267167D01*
X241320724Y-86331017D01*
X241102724Y-86421316D01*
X240707656Y-86499900D01*
X240304844Y-86499900D01*
X239909776Y-86421316D01*
X239691776Y-86331017D01*
X239537627Y-86267167D01*
X239202702Y-86043377D01*
X238917873Y-85758548D01*
X238694083Y-85423623D01*
X238594345Y-85182833D01*
X238539934Y-85051474D01*
X238461350Y-84656406D01*
X238461350Y-84253594D01*
X238539934Y-83858526D01*
X238694083Y-83486378D01*
X238694083Y-83486377D01*
X238917873Y-83151452D01*
X239202702Y-82866623D01*
X239537627Y-82642833D01*
X239691776Y-82578983D01*
X239909776Y-82488684D01*
X240304844Y-82410100D01*
X240707656Y-82410100D01*
X241102724Y-82488684D01*
X241102724Y-82488684D01*
G37*
G36*
X74415224Y-82488684D02*
G01*
X74633224Y-82578983D01*
X74787373Y-82642833D01*
X75122298Y-82866623D01*
X75407127Y-83151452D01*
X75630917Y-83486377D01*
X75630917Y-83486378D01*
X75785066Y-83858526D01*
X75863650Y-84253594D01*
X75863650Y-84656406D01*
X75785066Y-85051474D01*
X75730655Y-85182833D01*
X75630917Y-85423623D01*
X75407127Y-85758548D01*
X75122298Y-86043377D01*
X74787373Y-86267167D01*
X74633224Y-86331017D01*
X74415224Y-86421316D01*
X74020156Y-86499900D01*
X73617344Y-86499900D01*
X73222276Y-86421316D01*
X73004276Y-86331017D01*
X72850127Y-86267167D01*
X72515202Y-86043377D01*
X72230373Y-85758548D01*
X72006583Y-85423623D01*
X71906845Y-85182833D01*
X71852434Y-85051474D01*
X71773850Y-84656406D01*
X71773850Y-84253594D01*
X71852434Y-83858526D01*
X72006583Y-83486378D01*
X72006583Y-83486377D01*
X72230373Y-83151452D01*
X72515202Y-82866623D01*
X72850127Y-82642833D01*
X73004276Y-82578983D01*
X73222276Y-82488684D01*
X73617344Y-82410100D01*
X74020156Y-82410100D01*
X74415224Y-82488684D01*
X74415224Y-82488684D01*
G37*
G36*
X50602724Y-82488684D02*
G01*
X50820724Y-82578983D01*
X50974873Y-82642833D01*
X51309798Y-82866623D01*
X51594627Y-83151452D01*
X51818417Y-83486377D01*
X51818417Y-83486378D01*
X51972566Y-83858526D01*
X52051150Y-84253594D01*
X52051150Y-84656406D01*
X51972566Y-85051474D01*
X51918155Y-85182833D01*
X51818417Y-85423623D01*
X51594627Y-85758548D01*
X51309798Y-86043377D01*
X50974873Y-86267167D01*
X50820724Y-86331017D01*
X50602724Y-86421316D01*
X50207656Y-86499900D01*
X49804844Y-86499900D01*
X49409776Y-86421316D01*
X49191776Y-86331017D01*
X49037627Y-86267167D01*
X48702702Y-86043377D01*
X48417873Y-85758548D01*
X48194083Y-85423623D01*
X48094345Y-85182833D01*
X48039934Y-85051474D01*
X47961350Y-84656406D01*
X47961350Y-84253594D01*
X48039934Y-83858526D01*
X48194083Y-83486378D01*
X48194083Y-83486377D01*
X48417873Y-83151452D01*
X48702702Y-82866623D01*
X49037627Y-82642833D01*
X49191776Y-82578983D01*
X49409776Y-82488684D01*
X49804844Y-82410100D01*
X50207656Y-82410100D01*
X50602724Y-82488684D01*
X50602724Y-82488684D01*
G37*
G36*
X176269750Y-81019750D02*
G01*
X174567750Y-81019750D01*
X174567750Y-79317750D01*
X176269750Y-79317750D01*
X176269750Y-81019750D01*
X176269750Y-81019750D01*
G37*
G36*
X71494750Y-81019750D02*
G01*
X69792750Y-81019750D01*
X69792750Y-79317750D01*
X71494750Y-79317750D01*
X71494750Y-81019750D01*
X71494750Y-81019750D01*
G37*
G36*
X138169750Y-81019750D02*
G01*
X136467750Y-81019750D01*
X136467750Y-79317750D01*
X138169750Y-79317750D01*
X138169750Y-81019750D01*
X138169750Y-81019750D01*
G37*
G36*
X119119750Y-81019750D02*
G01*
X117417750Y-81019750D01*
X117417750Y-79317750D01*
X119119750Y-79317750D01*
X119119750Y-81019750D01*
X119119750Y-81019750D01*
G37*
G36*
X157219750Y-81019750D02*
G01*
X155517750Y-81019750D01*
X155517750Y-79317750D01*
X157219750Y-79317750D01*
X157219750Y-81019750D01*
X157219750Y-81019750D01*
G37*
G36*
X195319750Y-81019750D02*
G01*
X193617750Y-81019750D01*
X193617750Y-79317750D01*
X195319750Y-79317750D01*
X195319750Y-81019750D01*
X195319750Y-81019750D01*
G37*
G36*
X214369750Y-81019750D02*
G01*
X212667750Y-81019750D01*
X212667750Y-79317750D01*
X214369750Y-79317750D01*
X214369750Y-81019750D01*
X214369750Y-81019750D01*
G37*
G36*
X261994750Y-81019750D02*
G01*
X260292750Y-81019750D01*
X260292750Y-79317750D01*
X261994750Y-79317750D01*
X261994750Y-81019750D01*
X261994750Y-81019750D01*
G37*
G36*
X100069750Y-81019750D02*
G01*
X98367750Y-81019750D01*
X98367750Y-79317750D01*
X100069750Y-79317750D01*
X100069750Y-81019750D01*
X100069750Y-81019750D01*
G37*
G36*
X233419750Y-81019750D02*
G01*
X231717750Y-81019750D01*
X231717750Y-79317750D01*
X233419750Y-79317750D01*
X233419750Y-81019750D01*
X233419750Y-81019750D01*
G37*
G36*
X110133974Y-74233684D02*
G01*
X110351974Y-74323983D01*
X110506123Y-74387833D01*
X110841048Y-74611623D01*
X111125877Y-74896452D01*
X111349667Y-75231377D01*
X111382062Y-75309586D01*
X111503816Y-75603526D01*
X111582400Y-75998594D01*
X111582400Y-76401406D01*
X111503816Y-76796474D01*
X111452951Y-76919272D01*
X111349667Y-77168623D01*
X111125877Y-77503548D01*
X110841048Y-77788377D01*
X110506123Y-78012167D01*
X110351974Y-78076017D01*
X110133974Y-78166316D01*
X109738906Y-78244900D01*
X109336094Y-78244900D01*
X108941026Y-78166316D01*
X108723026Y-78076017D01*
X108568877Y-78012167D01*
X108233952Y-77788377D01*
X107949123Y-77503548D01*
X107725333Y-77168623D01*
X107622049Y-76919272D01*
X107571184Y-76796474D01*
X107492600Y-76401406D01*
X107492600Y-75998594D01*
X107571184Y-75603526D01*
X107692938Y-75309586D01*
X107725333Y-75231377D01*
X107949123Y-74896452D01*
X108233952Y-74611623D01*
X108568877Y-74387833D01*
X108723026Y-74323983D01*
X108941026Y-74233684D01*
X109336094Y-74155100D01*
X109738906Y-74155100D01*
X110133974Y-74233684D01*
X110133974Y-74233684D01*
G37*
G36*
X91083974Y-74233684D02*
G01*
X91301974Y-74323983D01*
X91456123Y-74387833D01*
X91791048Y-74611623D01*
X92075877Y-74896452D01*
X92299667Y-75231377D01*
X92332062Y-75309586D01*
X92453816Y-75603526D01*
X92532400Y-75998594D01*
X92532400Y-76401406D01*
X92453816Y-76796474D01*
X92402951Y-76919272D01*
X92299667Y-77168623D01*
X92075877Y-77503548D01*
X91791048Y-77788377D01*
X91456123Y-78012167D01*
X91301974Y-78076017D01*
X91083974Y-78166316D01*
X90688906Y-78244900D01*
X90286094Y-78244900D01*
X89891026Y-78166316D01*
X89673026Y-78076017D01*
X89518877Y-78012167D01*
X89183952Y-77788377D01*
X88899123Y-77503548D01*
X88675333Y-77168623D01*
X88572049Y-76919272D01*
X88521184Y-76796474D01*
X88442600Y-76401406D01*
X88442600Y-75998594D01*
X88521184Y-75603526D01*
X88642938Y-75309586D01*
X88675333Y-75231377D01*
X88899123Y-74896452D01*
X89183952Y-74611623D01*
X89518877Y-74387833D01*
X89673026Y-74323983D01*
X89891026Y-74233684D01*
X90286094Y-74155100D01*
X90688906Y-74155100D01*
X91083974Y-74233684D01*
X91083974Y-74233684D01*
G37*
G36*
X186333974Y-74233684D02*
G01*
X186551974Y-74323983D01*
X186706123Y-74387833D01*
X187041048Y-74611623D01*
X187325877Y-74896452D01*
X187549667Y-75231377D01*
X187582062Y-75309586D01*
X187703816Y-75603526D01*
X187782400Y-75998594D01*
X187782400Y-76401406D01*
X187703816Y-76796474D01*
X187652951Y-76919272D01*
X187549667Y-77168623D01*
X187325877Y-77503548D01*
X187041048Y-77788377D01*
X186706123Y-78012167D01*
X186551974Y-78076017D01*
X186333974Y-78166316D01*
X185938906Y-78244900D01*
X185536094Y-78244900D01*
X185141026Y-78166316D01*
X184923026Y-78076017D01*
X184768877Y-78012167D01*
X184433952Y-77788377D01*
X184149123Y-77503548D01*
X183925333Y-77168623D01*
X183822049Y-76919272D01*
X183771184Y-76796474D01*
X183692600Y-76401406D01*
X183692600Y-75998594D01*
X183771184Y-75603526D01*
X183892938Y-75309586D01*
X183925333Y-75231377D01*
X184149123Y-74896452D01*
X184433952Y-74611623D01*
X184768877Y-74387833D01*
X184923026Y-74323983D01*
X185141026Y-74233684D01*
X185536094Y-74155100D01*
X185938906Y-74155100D01*
X186333974Y-74233684D01*
X186333974Y-74233684D01*
G37*
G36*
X167283974Y-74233684D02*
G01*
X167501974Y-74323983D01*
X167656123Y-74387833D01*
X167991048Y-74611623D01*
X168275877Y-74896452D01*
X168499667Y-75231377D01*
X168532062Y-75309586D01*
X168653816Y-75603526D01*
X168732400Y-75998594D01*
X168732400Y-76401406D01*
X168653816Y-76796474D01*
X168602951Y-76919272D01*
X168499667Y-77168623D01*
X168275877Y-77503548D01*
X167991048Y-77788377D01*
X167656123Y-78012167D01*
X167501974Y-78076017D01*
X167283974Y-78166316D01*
X166888906Y-78244900D01*
X166486094Y-78244900D01*
X166091026Y-78166316D01*
X165873026Y-78076017D01*
X165718877Y-78012167D01*
X165383952Y-77788377D01*
X165099123Y-77503548D01*
X164875333Y-77168623D01*
X164772049Y-76919272D01*
X164721184Y-76796474D01*
X164642600Y-76401406D01*
X164642600Y-75998594D01*
X164721184Y-75603526D01*
X164842938Y-75309586D01*
X164875333Y-75231377D01*
X165099123Y-74896452D01*
X165383952Y-74611623D01*
X165718877Y-74387833D01*
X165873026Y-74323983D01*
X166091026Y-74233684D01*
X166486094Y-74155100D01*
X166888906Y-74155100D01*
X167283974Y-74233684D01*
X167283974Y-74233684D01*
G37*
G36*
X62508974Y-74233684D02*
G01*
X62726974Y-74323983D01*
X62881123Y-74387833D01*
X63216048Y-74611623D01*
X63500877Y-74896452D01*
X63724667Y-75231377D01*
X63757062Y-75309586D01*
X63878816Y-75603526D01*
X63957400Y-75998594D01*
X63957400Y-76401406D01*
X63878816Y-76796474D01*
X63827951Y-76919272D01*
X63724667Y-77168623D01*
X63500877Y-77503548D01*
X63216048Y-77788377D01*
X62881123Y-78012167D01*
X62726974Y-78076017D01*
X62508974Y-78166316D01*
X62113906Y-78244900D01*
X61711094Y-78244900D01*
X61316026Y-78166316D01*
X61098026Y-78076017D01*
X60943877Y-78012167D01*
X60608952Y-77788377D01*
X60324123Y-77503548D01*
X60100333Y-77168623D01*
X59997049Y-76919272D01*
X59946184Y-76796474D01*
X59867600Y-76401406D01*
X59867600Y-75998594D01*
X59946184Y-75603526D01*
X60067938Y-75309586D01*
X60100333Y-75231377D01*
X60324123Y-74896452D01*
X60608952Y-74611623D01*
X60943877Y-74387833D01*
X61098026Y-74323983D01*
X61316026Y-74233684D01*
X61711094Y-74155100D01*
X62113906Y-74155100D01*
X62508974Y-74233684D01*
X62508974Y-74233684D01*
G37*
G36*
X148233974Y-74233684D02*
G01*
X148451974Y-74323983D01*
X148606123Y-74387833D01*
X148941048Y-74611623D01*
X149225877Y-74896452D01*
X149449667Y-75231377D01*
X149482062Y-75309586D01*
X149603816Y-75603526D01*
X149682400Y-75998594D01*
X149682400Y-76401406D01*
X149603816Y-76796474D01*
X149552951Y-76919272D01*
X149449667Y-77168623D01*
X149225877Y-77503548D01*
X148941048Y-77788377D01*
X148606123Y-78012167D01*
X148451974Y-78076017D01*
X148233974Y-78166316D01*
X147838906Y-78244900D01*
X147436094Y-78244900D01*
X147041026Y-78166316D01*
X146823026Y-78076017D01*
X146668877Y-78012167D01*
X146333952Y-77788377D01*
X146049123Y-77503548D01*
X145825333Y-77168623D01*
X145722049Y-76919272D01*
X145671184Y-76796474D01*
X145592600Y-76401406D01*
X145592600Y-75998594D01*
X145671184Y-75603526D01*
X145792938Y-75309586D01*
X145825333Y-75231377D01*
X146049123Y-74896452D01*
X146333952Y-74611623D01*
X146668877Y-74387833D01*
X146823026Y-74323983D01*
X147041026Y-74233684D01*
X147436094Y-74155100D01*
X147838906Y-74155100D01*
X148233974Y-74233684D01*
X148233974Y-74233684D01*
G37*
G36*
X129183974Y-74233684D02*
G01*
X129401974Y-74323983D01*
X129556123Y-74387833D01*
X129891048Y-74611623D01*
X130175877Y-74896452D01*
X130399667Y-75231377D01*
X130432062Y-75309586D01*
X130553816Y-75603526D01*
X130632400Y-75998594D01*
X130632400Y-76401406D01*
X130553816Y-76796474D01*
X130502951Y-76919272D01*
X130399667Y-77168623D01*
X130175877Y-77503548D01*
X129891048Y-77788377D01*
X129556123Y-78012167D01*
X129401974Y-78076017D01*
X129183974Y-78166316D01*
X128788906Y-78244900D01*
X128386094Y-78244900D01*
X127991026Y-78166316D01*
X127773026Y-78076017D01*
X127618877Y-78012167D01*
X127283952Y-77788377D01*
X126999123Y-77503548D01*
X126775333Y-77168623D01*
X126672049Y-76919272D01*
X126621184Y-76796474D01*
X126542600Y-76401406D01*
X126542600Y-75998594D01*
X126621184Y-75603526D01*
X126742938Y-75309586D01*
X126775333Y-75231377D01*
X126999123Y-74896452D01*
X127283952Y-74611623D01*
X127618877Y-74387833D01*
X127773026Y-74323983D01*
X127991026Y-74233684D01*
X128386094Y-74155100D01*
X128788906Y-74155100D01*
X129183974Y-74233684D01*
X129183974Y-74233684D01*
G37*
G36*
X253008974Y-74233684D02*
G01*
X253226974Y-74323983D01*
X253381123Y-74387833D01*
X253716048Y-74611623D01*
X254000877Y-74896452D01*
X254224667Y-75231377D01*
X254257062Y-75309586D01*
X254378816Y-75603526D01*
X254457400Y-75998594D01*
X254457400Y-76401406D01*
X254378816Y-76796474D01*
X254327951Y-76919272D01*
X254224667Y-77168623D01*
X254000877Y-77503548D01*
X253716048Y-77788377D01*
X253381123Y-78012167D01*
X253226974Y-78076017D01*
X253008974Y-78166316D01*
X252613906Y-78244900D01*
X252211094Y-78244900D01*
X251816026Y-78166316D01*
X251598026Y-78076017D01*
X251443877Y-78012167D01*
X251108952Y-77788377D01*
X250824123Y-77503548D01*
X250600333Y-77168623D01*
X250497049Y-76919272D01*
X250446184Y-76796474D01*
X250367600Y-76401406D01*
X250367600Y-75998594D01*
X250446184Y-75603526D01*
X250567938Y-75309586D01*
X250600333Y-75231377D01*
X250824123Y-74896452D01*
X251108952Y-74611623D01*
X251443877Y-74387833D01*
X251598026Y-74323983D01*
X251816026Y-74233684D01*
X252211094Y-74155100D01*
X252613906Y-74155100D01*
X253008974Y-74233684D01*
X253008974Y-74233684D01*
G37*
G36*
X205383974Y-74233684D02*
G01*
X205601974Y-74323983D01*
X205756123Y-74387833D01*
X206091048Y-74611623D01*
X206375877Y-74896452D01*
X206599667Y-75231377D01*
X206632062Y-75309586D01*
X206753816Y-75603526D01*
X206832400Y-75998594D01*
X206832400Y-76401406D01*
X206753816Y-76796474D01*
X206702951Y-76919272D01*
X206599667Y-77168623D01*
X206375877Y-77503548D01*
X206091048Y-77788377D01*
X205756123Y-78012167D01*
X205601974Y-78076017D01*
X205383974Y-78166316D01*
X204988906Y-78244900D01*
X204586094Y-78244900D01*
X204191026Y-78166316D01*
X203973026Y-78076017D01*
X203818877Y-78012167D01*
X203483952Y-77788377D01*
X203199123Y-77503548D01*
X202975333Y-77168623D01*
X202872049Y-76919272D01*
X202821184Y-76796474D01*
X202742600Y-76401406D01*
X202742600Y-75998594D01*
X202821184Y-75603526D01*
X202942938Y-75309586D01*
X202975333Y-75231377D01*
X203199123Y-74896452D01*
X203483952Y-74611623D01*
X203818877Y-74387833D01*
X203973026Y-74323983D01*
X204191026Y-74233684D01*
X204586094Y-74155100D01*
X204988906Y-74155100D01*
X205383974Y-74233684D01*
X205383974Y-74233684D01*
G37*
G36*
X224433974Y-74233684D02*
G01*
X224651974Y-74323983D01*
X224806123Y-74387833D01*
X225141048Y-74611623D01*
X225425877Y-74896452D01*
X225649667Y-75231377D01*
X225682062Y-75309586D01*
X225803816Y-75603526D01*
X225882400Y-75998594D01*
X225882400Y-76401406D01*
X225803816Y-76796474D01*
X225752951Y-76919272D01*
X225649667Y-77168623D01*
X225425877Y-77503548D01*
X225141048Y-77788377D01*
X224806123Y-78012167D01*
X224651974Y-78076017D01*
X224433974Y-78166316D01*
X224038906Y-78244900D01*
X223636094Y-78244900D01*
X223241026Y-78166316D01*
X223023026Y-78076017D01*
X222868877Y-78012167D01*
X222533952Y-77788377D01*
X222249123Y-77503548D01*
X222025333Y-77168623D01*
X221922049Y-76919272D01*
X221871184Y-76796474D01*
X221792600Y-76401406D01*
X221792600Y-75998594D01*
X221871184Y-75603526D01*
X221992938Y-75309586D01*
X222025333Y-75231377D01*
X222249123Y-74896452D01*
X222533952Y-74611623D01*
X222868877Y-74387833D01*
X223023026Y-74323983D01*
X223241026Y-74233684D01*
X223636094Y-74155100D01*
X224038906Y-74155100D01*
X224433974Y-74233684D01*
X224433974Y-74233684D01*
G37*
G36*
X57102604Y-75309585D02*
G01*
X57271126Y-75379389D01*
X57422791Y-75480728D01*
X57551772Y-75609709D01*
X57653111Y-75761374D01*
X57722915Y-75929896D01*
X57758500Y-76108797D01*
X57758500Y-76291203D01*
X57722915Y-76470104D01*
X57653111Y-76638626D01*
X57551772Y-76790291D01*
X57422791Y-76919272D01*
X57271126Y-77020611D01*
X57102604Y-77090415D01*
X56923703Y-77126000D01*
X56741297Y-77126000D01*
X56562396Y-77090415D01*
X56393874Y-77020611D01*
X56242209Y-76919272D01*
X56113228Y-76790291D01*
X56011889Y-76638626D01*
X55942085Y-76470104D01*
X55906500Y-76291203D01*
X55906500Y-76108797D01*
X55942085Y-75929896D01*
X56011889Y-75761374D01*
X56113228Y-75609709D01*
X56242209Y-75480728D01*
X56393874Y-75379389D01*
X56562396Y-75309585D01*
X56741297Y-75274000D01*
X56923703Y-75274000D01*
X57102604Y-75309585D01*
X57102604Y-75309585D01*
G37*
G36*
X257762604Y-75309585D02*
G01*
X257931126Y-75379389D01*
X258082791Y-75480728D01*
X258211772Y-75609709D01*
X258313111Y-75761374D01*
X258382915Y-75929896D01*
X258418500Y-76108797D01*
X258418500Y-76291203D01*
X258382915Y-76470104D01*
X258313111Y-76638626D01*
X258211772Y-76790291D01*
X258082791Y-76919272D01*
X257931126Y-77020611D01*
X257762604Y-77090415D01*
X257583703Y-77126000D01*
X257401297Y-77126000D01*
X257222396Y-77090415D01*
X257053874Y-77020611D01*
X256902209Y-76919272D01*
X256773228Y-76790291D01*
X256671889Y-76638626D01*
X256602085Y-76470104D01*
X256566500Y-76291203D01*
X256566500Y-76108797D01*
X256602085Y-75929896D01*
X256671889Y-75761374D01*
X256773228Y-75609709D01*
X256902209Y-75480728D01*
X257053874Y-75379389D01*
X257222396Y-75309585D01*
X257401297Y-75274000D01*
X257583703Y-75274000D01*
X257762604Y-75309585D01*
X257762604Y-75309585D01*
G37*
G36*
X247602604Y-75309585D02*
G01*
X247771126Y-75379389D01*
X247922791Y-75480728D01*
X248051772Y-75609709D01*
X248153111Y-75761374D01*
X248222915Y-75929896D01*
X248258500Y-76108797D01*
X248258500Y-76291203D01*
X248222915Y-76470104D01*
X248153111Y-76638626D01*
X248051772Y-76790291D01*
X247922791Y-76919272D01*
X247771126Y-77020611D01*
X247602604Y-77090415D01*
X247423703Y-77126000D01*
X247241297Y-77126000D01*
X247062396Y-77090415D01*
X246893874Y-77020611D01*
X246742209Y-76919272D01*
X246613228Y-76790291D01*
X246511889Y-76638626D01*
X246442085Y-76470104D01*
X246406500Y-76291203D01*
X246406500Y-76108797D01*
X246442085Y-75929896D01*
X246511889Y-75761374D01*
X246613228Y-75609709D01*
X246742209Y-75480728D01*
X246893874Y-75379389D01*
X247062396Y-75309585D01*
X247241297Y-75274000D01*
X247423703Y-75274000D01*
X247602604Y-75309585D01*
X247602604Y-75309585D01*
G37*
G36*
X229187604Y-75309585D02*
G01*
X229356126Y-75379389D01*
X229507791Y-75480728D01*
X229636772Y-75609709D01*
X229738111Y-75761374D01*
X229807915Y-75929896D01*
X229843500Y-76108797D01*
X229843500Y-76291203D01*
X229807915Y-76470104D01*
X229738111Y-76638626D01*
X229636772Y-76790291D01*
X229507791Y-76919272D01*
X229356126Y-77020611D01*
X229187604Y-77090415D01*
X229008703Y-77126000D01*
X228826297Y-77126000D01*
X228647396Y-77090415D01*
X228478874Y-77020611D01*
X228327209Y-76919272D01*
X228198228Y-76790291D01*
X228096889Y-76638626D01*
X228027085Y-76470104D01*
X227991500Y-76291203D01*
X227991500Y-76108797D01*
X228027085Y-75929896D01*
X228096889Y-75761374D01*
X228198228Y-75609709D01*
X228327209Y-75480728D01*
X228478874Y-75379389D01*
X228647396Y-75309585D01*
X228826297Y-75274000D01*
X229008703Y-75274000D01*
X229187604Y-75309585D01*
X229187604Y-75309585D01*
G37*
G36*
X219027604Y-75309585D02*
G01*
X219196126Y-75379389D01*
X219347791Y-75480728D01*
X219476772Y-75609709D01*
X219578111Y-75761374D01*
X219647915Y-75929896D01*
X219683500Y-76108797D01*
X219683500Y-76291203D01*
X219647915Y-76470104D01*
X219578111Y-76638626D01*
X219476772Y-76790291D01*
X219347791Y-76919272D01*
X219196126Y-77020611D01*
X219027604Y-77090415D01*
X218848703Y-77126000D01*
X218666297Y-77126000D01*
X218487396Y-77090415D01*
X218318874Y-77020611D01*
X218167209Y-76919272D01*
X218038228Y-76790291D01*
X217936889Y-76638626D01*
X217867085Y-76470104D01*
X217831500Y-76291203D01*
X217831500Y-76108797D01*
X217867085Y-75929896D01*
X217936889Y-75761374D01*
X218038228Y-75609709D01*
X218167209Y-75480728D01*
X218318874Y-75379389D01*
X218487396Y-75309585D01*
X218666297Y-75274000D01*
X218848703Y-75274000D01*
X219027604Y-75309585D01*
X219027604Y-75309585D01*
G37*
G36*
X210137604Y-75309585D02*
G01*
X210306126Y-75379389D01*
X210457791Y-75480728D01*
X210586772Y-75609709D01*
X210688111Y-75761374D01*
X210757915Y-75929896D01*
X210793500Y-76108797D01*
X210793500Y-76291203D01*
X210757915Y-76470104D01*
X210688111Y-76638626D01*
X210586772Y-76790291D01*
X210457791Y-76919272D01*
X210306126Y-77020611D01*
X210137604Y-77090415D01*
X209958703Y-77126000D01*
X209776297Y-77126000D01*
X209597396Y-77090415D01*
X209428874Y-77020611D01*
X209277209Y-76919272D01*
X209148228Y-76790291D01*
X209046889Y-76638626D01*
X208977085Y-76470104D01*
X208941500Y-76291203D01*
X208941500Y-76108797D01*
X208977085Y-75929896D01*
X209046889Y-75761374D01*
X209148228Y-75609709D01*
X209277209Y-75480728D01*
X209428874Y-75379389D01*
X209597396Y-75309585D01*
X209776297Y-75274000D01*
X209958703Y-75274000D01*
X210137604Y-75309585D01*
X210137604Y-75309585D01*
G37*
G36*
X199977604Y-75309585D02*
G01*
X200146126Y-75379389D01*
X200297791Y-75480728D01*
X200426772Y-75609709D01*
X200528111Y-75761374D01*
X200597915Y-75929896D01*
X200633500Y-76108797D01*
X200633500Y-76291203D01*
X200597915Y-76470104D01*
X200528111Y-76638626D01*
X200426772Y-76790291D01*
X200297791Y-76919272D01*
X200146126Y-77020611D01*
X199977604Y-77090415D01*
X199798703Y-77126000D01*
X199616297Y-77126000D01*
X199437396Y-77090415D01*
X199268874Y-77020611D01*
X199117209Y-76919272D01*
X198988228Y-76790291D01*
X198886889Y-76638626D01*
X198817085Y-76470104D01*
X198781500Y-76291203D01*
X198781500Y-76108797D01*
X198817085Y-75929896D01*
X198886889Y-75761374D01*
X198988228Y-75609709D01*
X199117209Y-75480728D01*
X199268874Y-75379389D01*
X199437396Y-75309585D01*
X199616297Y-75274000D01*
X199798703Y-75274000D01*
X199977604Y-75309585D01*
X199977604Y-75309585D01*
G37*
G36*
X191087604Y-75309585D02*
G01*
X191256126Y-75379389D01*
X191407791Y-75480728D01*
X191536772Y-75609709D01*
X191638111Y-75761374D01*
X191707915Y-75929896D01*
X191743500Y-76108797D01*
X191743500Y-76291203D01*
X191707915Y-76470104D01*
X191638111Y-76638626D01*
X191536772Y-76790291D01*
X191407791Y-76919272D01*
X191256126Y-77020611D01*
X191087604Y-77090415D01*
X190908703Y-77126000D01*
X190726297Y-77126000D01*
X190547396Y-77090415D01*
X190378874Y-77020611D01*
X190227209Y-76919272D01*
X190098228Y-76790291D01*
X189996889Y-76638626D01*
X189927085Y-76470104D01*
X189891500Y-76291203D01*
X189891500Y-76108797D01*
X189927085Y-75929896D01*
X189996889Y-75761374D01*
X190098228Y-75609709D01*
X190227209Y-75480728D01*
X190378874Y-75379389D01*
X190547396Y-75309585D01*
X190726297Y-75274000D01*
X190908703Y-75274000D01*
X191087604Y-75309585D01*
X191087604Y-75309585D01*
G37*
G36*
X180927604Y-75309585D02*
G01*
X181096126Y-75379389D01*
X181247791Y-75480728D01*
X181376772Y-75609709D01*
X181478111Y-75761374D01*
X181547915Y-75929896D01*
X181583500Y-76108797D01*
X181583500Y-76291203D01*
X181547915Y-76470104D01*
X181478111Y-76638626D01*
X181376772Y-76790291D01*
X181247791Y-76919272D01*
X181096126Y-77020611D01*
X180927604Y-77090415D01*
X180748703Y-77126000D01*
X180566297Y-77126000D01*
X180387396Y-77090415D01*
X180218874Y-77020611D01*
X180067209Y-76919272D01*
X179938228Y-76790291D01*
X179836889Y-76638626D01*
X179767085Y-76470104D01*
X179731500Y-76291203D01*
X179731500Y-76108797D01*
X179767085Y-75929896D01*
X179836889Y-75761374D01*
X179938228Y-75609709D01*
X180067209Y-75480728D01*
X180218874Y-75379389D01*
X180387396Y-75309585D01*
X180566297Y-75274000D01*
X180748703Y-75274000D01*
X180927604Y-75309585D01*
X180927604Y-75309585D01*
G37*
G36*
X172037604Y-75309585D02*
G01*
X172206126Y-75379389D01*
X172357791Y-75480728D01*
X172486772Y-75609709D01*
X172588111Y-75761374D01*
X172657915Y-75929896D01*
X172693500Y-76108797D01*
X172693500Y-76291203D01*
X172657915Y-76470104D01*
X172588111Y-76638626D01*
X172486772Y-76790291D01*
X172357791Y-76919272D01*
X172206126Y-77020611D01*
X172037604Y-77090415D01*
X171858703Y-77126000D01*
X171676297Y-77126000D01*
X171497396Y-77090415D01*
X171328874Y-77020611D01*
X171177209Y-76919272D01*
X171048228Y-76790291D01*
X170946889Y-76638626D01*
X170877085Y-76470104D01*
X170841500Y-76291203D01*
X170841500Y-76108797D01*
X170877085Y-75929896D01*
X170946889Y-75761374D01*
X171048228Y-75609709D01*
X171177209Y-75480728D01*
X171328874Y-75379389D01*
X171497396Y-75309585D01*
X171676297Y-75274000D01*
X171858703Y-75274000D01*
X172037604Y-75309585D01*
X172037604Y-75309585D01*
G37*
G36*
X152987604Y-75309585D02*
G01*
X153156126Y-75379389D01*
X153307791Y-75480728D01*
X153436772Y-75609709D01*
X153538111Y-75761374D01*
X153607915Y-75929896D01*
X153643500Y-76108797D01*
X153643500Y-76291203D01*
X153607915Y-76470104D01*
X153538111Y-76638626D01*
X153436772Y-76790291D01*
X153307791Y-76919272D01*
X153156126Y-77020611D01*
X152987604Y-77090415D01*
X152808703Y-77126000D01*
X152626297Y-77126000D01*
X152447396Y-77090415D01*
X152278874Y-77020611D01*
X152127209Y-76919272D01*
X151998228Y-76790291D01*
X151896889Y-76638626D01*
X151827085Y-76470104D01*
X151791500Y-76291203D01*
X151791500Y-76108797D01*
X151827085Y-75929896D01*
X151896889Y-75761374D01*
X151998228Y-75609709D01*
X152127209Y-75480728D01*
X152278874Y-75379389D01*
X152447396Y-75309585D01*
X152626297Y-75274000D01*
X152808703Y-75274000D01*
X152987604Y-75309585D01*
X152987604Y-75309585D01*
G37*
G36*
X67262604Y-75309585D02*
G01*
X67431126Y-75379389D01*
X67582791Y-75480728D01*
X67711772Y-75609709D01*
X67813111Y-75761374D01*
X67882915Y-75929896D01*
X67918500Y-76108797D01*
X67918500Y-76291203D01*
X67882915Y-76470104D01*
X67813111Y-76638626D01*
X67711772Y-76790291D01*
X67582791Y-76919272D01*
X67431126Y-77020611D01*
X67262604Y-77090415D01*
X67083703Y-77126000D01*
X66901297Y-77126000D01*
X66722396Y-77090415D01*
X66553874Y-77020611D01*
X66402209Y-76919272D01*
X66273228Y-76790291D01*
X66171889Y-76638626D01*
X66102085Y-76470104D01*
X66066500Y-76291203D01*
X66066500Y-76108797D01*
X66102085Y-75929896D01*
X66171889Y-75761374D01*
X66273228Y-75609709D01*
X66402209Y-75480728D01*
X66553874Y-75379389D01*
X66722396Y-75309585D01*
X66901297Y-75274000D01*
X67083703Y-75274000D01*
X67262604Y-75309585D01*
X67262604Y-75309585D01*
G37*
G36*
X85677604Y-75309585D02*
G01*
X85846126Y-75379389D01*
X85997791Y-75480728D01*
X86126772Y-75609709D01*
X86228111Y-75761374D01*
X86297915Y-75929896D01*
X86333500Y-76108797D01*
X86333500Y-76291203D01*
X86297915Y-76470104D01*
X86228111Y-76638626D01*
X86126772Y-76790291D01*
X85997791Y-76919272D01*
X85846126Y-77020611D01*
X85677604Y-77090415D01*
X85498703Y-77126000D01*
X85316297Y-77126000D01*
X85137396Y-77090415D01*
X84968874Y-77020611D01*
X84817209Y-76919272D01*
X84688228Y-76790291D01*
X84586889Y-76638626D01*
X84517085Y-76470104D01*
X84481500Y-76291203D01*
X84481500Y-76108797D01*
X84517085Y-75929896D01*
X84586889Y-75761374D01*
X84688228Y-75609709D01*
X84817209Y-75480728D01*
X84968874Y-75379389D01*
X85137396Y-75309585D01*
X85316297Y-75274000D01*
X85498703Y-75274000D01*
X85677604Y-75309585D01*
X85677604Y-75309585D01*
G37*
G36*
X95837604Y-75309585D02*
G01*
X96006126Y-75379389D01*
X96157791Y-75480728D01*
X96286772Y-75609709D01*
X96388111Y-75761374D01*
X96457915Y-75929896D01*
X96493500Y-76108797D01*
X96493500Y-76291203D01*
X96457915Y-76470104D01*
X96388111Y-76638626D01*
X96286772Y-76790291D01*
X96157791Y-76919272D01*
X96006126Y-77020611D01*
X95837604Y-77090415D01*
X95658703Y-77126000D01*
X95476297Y-77126000D01*
X95297396Y-77090415D01*
X95128874Y-77020611D01*
X94977209Y-76919272D01*
X94848228Y-76790291D01*
X94746889Y-76638626D01*
X94677085Y-76470104D01*
X94641500Y-76291203D01*
X94641500Y-76108797D01*
X94677085Y-75929896D01*
X94746889Y-75761374D01*
X94848228Y-75609709D01*
X94977209Y-75480728D01*
X95128874Y-75379389D01*
X95297396Y-75309585D01*
X95476297Y-75274000D01*
X95658703Y-75274000D01*
X95837604Y-75309585D01*
X95837604Y-75309585D01*
G37*
G36*
X104727604Y-75309585D02*
G01*
X104896126Y-75379389D01*
X105047791Y-75480728D01*
X105176772Y-75609709D01*
X105278111Y-75761374D01*
X105347915Y-75929896D01*
X105383500Y-76108797D01*
X105383500Y-76291203D01*
X105347915Y-76470104D01*
X105278111Y-76638626D01*
X105176772Y-76790291D01*
X105047791Y-76919272D01*
X104896126Y-77020611D01*
X104727604Y-77090415D01*
X104548703Y-77126000D01*
X104366297Y-77126000D01*
X104187396Y-77090415D01*
X104018874Y-77020611D01*
X103867209Y-76919272D01*
X103738228Y-76790291D01*
X103636889Y-76638626D01*
X103567085Y-76470104D01*
X103531500Y-76291203D01*
X103531500Y-76108797D01*
X103567085Y-75929896D01*
X103636889Y-75761374D01*
X103738228Y-75609709D01*
X103867209Y-75480728D01*
X104018874Y-75379389D01*
X104187396Y-75309585D01*
X104366297Y-75274000D01*
X104548703Y-75274000D01*
X104727604Y-75309585D01*
X104727604Y-75309585D01*
G37*
G36*
X114887604Y-75309585D02*
G01*
X115056126Y-75379389D01*
X115207791Y-75480728D01*
X115336772Y-75609709D01*
X115438111Y-75761374D01*
X115507915Y-75929896D01*
X115543500Y-76108797D01*
X115543500Y-76291203D01*
X115507915Y-76470104D01*
X115438111Y-76638626D01*
X115336772Y-76790291D01*
X115207791Y-76919272D01*
X115056126Y-77020611D01*
X114887604Y-77090415D01*
X114708703Y-77126000D01*
X114526297Y-77126000D01*
X114347396Y-77090415D01*
X114178874Y-77020611D01*
X114027209Y-76919272D01*
X113898228Y-76790291D01*
X113796889Y-76638626D01*
X113727085Y-76470104D01*
X113691500Y-76291203D01*
X113691500Y-76108797D01*
X113727085Y-75929896D01*
X113796889Y-75761374D01*
X113898228Y-75609709D01*
X114027209Y-75480728D01*
X114178874Y-75379389D01*
X114347396Y-75309585D01*
X114526297Y-75274000D01*
X114708703Y-75274000D01*
X114887604Y-75309585D01*
X114887604Y-75309585D01*
G37*
G36*
X123777604Y-75309585D02*
G01*
X123946126Y-75379389D01*
X124097791Y-75480728D01*
X124226772Y-75609709D01*
X124328111Y-75761374D01*
X124397915Y-75929896D01*
X124433500Y-76108797D01*
X124433500Y-76291203D01*
X124397915Y-76470104D01*
X124328111Y-76638626D01*
X124226772Y-76790291D01*
X124097791Y-76919272D01*
X123946126Y-77020611D01*
X123777604Y-77090415D01*
X123598703Y-77126000D01*
X123416297Y-77126000D01*
X123237396Y-77090415D01*
X123068874Y-77020611D01*
X122917209Y-76919272D01*
X122788228Y-76790291D01*
X122686889Y-76638626D01*
X122617085Y-76470104D01*
X122581500Y-76291203D01*
X122581500Y-76108797D01*
X122617085Y-75929896D01*
X122686889Y-75761374D01*
X122788228Y-75609709D01*
X122917209Y-75480728D01*
X123068874Y-75379389D01*
X123237396Y-75309585D01*
X123416297Y-75274000D01*
X123598703Y-75274000D01*
X123777604Y-75309585D01*
X123777604Y-75309585D01*
G37*
G36*
X133937604Y-75309585D02*
G01*
X134106126Y-75379389D01*
X134257791Y-75480728D01*
X134386772Y-75609709D01*
X134488111Y-75761374D01*
X134557915Y-75929896D01*
X134593500Y-76108797D01*
X134593500Y-76291203D01*
X134557915Y-76470104D01*
X134488111Y-76638626D01*
X134386772Y-76790291D01*
X134257791Y-76919272D01*
X134106126Y-77020611D01*
X133937604Y-77090415D01*
X133758703Y-77126000D01*
X133576297Y-77126000D01*
X133397396Y-77090415D01*
X133228874Y-77020611D01*
X133077209Y-76919272D01*
X132948228Y-76790291D01*
X132846889Y-76638626D01*
X132777085Y-76470104D01*
X132741500Y-76291203D01*
X132741500Y-76108797D01*
X132777085Y-75929896D01*
X132846889Y-75761374D01*
X132948228Y-75609709D01*
X133077209Y-75480728D01*
X133228874Y-75379389D01*
X133397396Y-75309585D01*
X133576297Y-75274000D01*
X133758703Y-75274000D01*
X133937604Y-75309585D01*
X133937604Y-75309585D01*
G37*
G36*
X142827604Y-75309585D02*
G01*
X142996126Y-75379389D01*
X143147791Y-75480728D01*
X143276772Y-75609709D01*
X143378111Y-75761374D01*
X143447915Y-75929896D01*
X143483500Y-76108797D01*
X143483500Y-76291203D01*
X143447915Y-76470104D01*
X143378111Y-76638626D01*
X143276772Y-76790291D01*
X143147791Y-76919272D01*
X142996126Y-77020611D01*
X142827604Y-77090415D01*
X142648703Y-77126000D01*
X142466297Y-77126000D01*
X142287396Y-77090415D01*
X142118874Y-77020611D01*
X141967209Y-76919272D01*
X141838228Y-76790291D01*
X141736889Y-76638626D01*
X141667085Y-76470104D01*
X141631500Y-76291203D01*
X141631500Y-76108797D01*
X141667085Y-75929896D01*
X141736889Y-75761374D01*
X141838228Y-75609709D01*
X141967209Y-75480728D01*
X142118874Y-75379389D01*
X142287396Y-75309585D01*
X142466297Y-75274000D01*
X142648703Y-75274000D01*
X142827604Y-75309585D01*
X142827604Y-75309585D01*
G37*
G36*
X161877604Y-75309585D02*
G01*
X162046126Y-75379389D01*
X162197791Y-75480728D01*
X162326772Y-75609709D01*
X162428111Y-75761374D01*
X162497915Y-75929896D01*
X162533500Y-76108797D01*
X162533500Y-76291203D01*
X162497915Y-76470104D01*
X162428111Y-76638626D01*
X162326772Y-76790291D01*
X162197791Y-76919272D01*
X162046126Y-77020611D01*
X161877604Y-77090415D01*
X161698703Y-77126000D01*
X161516297Y-77126000D01*
X161337396Y-77090415D01*
X161168874Y-77020611D01*
X161017209Y-76919272D01*
X160888228Y-76790291D01*
X160786889Y-76638626D01*
X160717085Y-76470104D01*
X160681500Y-76291203D01*
X160681500Y-76108797D01*
X160717085Y-75929896D01*
X160786889Y-75761374D01*
X160888228Y-75609709D01*
X161017209Y-75480728D01*
X161168874Y-75379389D01*
X161337396Y-75309585D01*
X161516297Y-75274000D01*
X161698703Y-75274000D01*
X161877604Y-75309585D01*
X161877604Y-75309585D01*
G37*
G36*
X156535573Y-71710063D02*
G01*
X156695992Y-71758726D01*
X156828656Y-71829636D01*
X156843828Y-71837746D01*
X156973409Y-71944091D01*
X157079754Y-72073672D01*
X157079755Y-72073674D01*
X157158774Y-72221508D01*
X157207437Y-72381927D01*
X157223867Y-72548750D01*
X157207437Y-72715573D01*
X157158774Y-72875992D01*
X157087864Y-73008656D01*
X157079754Y-73023828D01*
X156973409Y-73153409D01*
X156843828Y-73259754D01*
X156843826Y-73259755D01*
X156695992Y-73338774D01*
X156535573Y-73387437D01*
X156410554Y-73399750D01*
X156326946Y-73399750D01*
X156201927Y-73387437D01*
X156041508Y-73338774D01*
X155893674Y-73259755D01*
X155893672Y-73259754D01*
X155764091Y-73153409D01*
X155657746Y-73023828D01*
X155649636Y-73008656D01*
X155578726Y-72875992D01*
X155530063Y-72715573D01*
X155513633Y-72548750D01*
X155530063Y-72381927D01*
X155578726Y-72221508D01*
X155657745Y-72073674D01*
X155657746Y-72073672D01*
X155764091Y-71944091D01*
X155893672Y-71837746D01*
X155908844Y-71829636D01*
X156041508Y-71758726D01*
X156201927Y-71710063D01*
X156326946Y-71697750D01*
X156410554Y-71697750D01*
X156535573Y-71710063D01*
X156535573Y-71710063D01*
G37*
G36*
X99385573Y-71710063D02*
G01*
X99545992Y-71758726D01*
X99678656Y-71829636D01*
X99693828Y-71837746D01*
X99823409Y-71944091D01*
X99929754Y-72073672D01*
X99929755Y-72073674D01*
X100008774Y-72221508D01*
X100057437Y-72381927D01*
X100073867Y-72548750D01*
X100057437Y-72715573D01*
X100008774Y-72875992D01*
X99937864Y-73008656D01*
X99929754Y-73023828D01*
X99823409Y-73153409D01*
X99693828Y-73259754D01*
X99693826Y-73259755D01*
X99545992Y-73338774D01*
X99385573Y-73387437D01*
X99260554Y-73399750D01*
X99176946Y-73399750D01*
X99051927Y-73387437D01*
X98891508Y-73338774D01*
X98743674Y-73259755D01*
X98743672Y-73259754D01*
X98614091Y-73153409D01*
X98507746Y-73023828D01*
X98499636Y-73008656D01*
X98428726Y-72875992D01*
X98380063Y-72715573D01*
X98363633Y-72548750D01*
X98380063Y-72381927D01*
X98428726Y-72221508D01*
X98507745Y-72073674D01*
X98507746Y-72073672D01*
X98614091Y-71944091D01*
X98743672Y-71837746D01*
X98758844Y-71829636D01*
X98891508Y-71758726D01*
X99051927Y-71710063D01*
X99176946Y-71697750D01*
X99260554Y-71697750D01*
X99385573Y-71710063D01*
X99385573Y-71710063D01*
G37*
G36*
X232735573Y-71710063D02*
G01*
X232895992Y-71758726D01*
X233028656Y-71829636D01*
X233043828Y-71837746D01*
X233173409Y-71944091D01*
X233279754Y-72073672D01*
X233279755Y-72073674D01*
X233358774Y-72221508D01*
X233407437Y-72381927D01*
X233423867Y-72548750D01*
X233407437Y-72715573D01*
X233358774Y-72875992D01*
X233287864Y-73008656D01*
X233279754Y-73023828D01*
X233173409Y-73153409D01*
X233043828Y-73259754D01*
X233043826Y-73259755D01*
X232895992Y-73338774D01*
X232735573Y-73387437D01*
X232610554Y-73399750D01*
X232526946Y-73399750D01*
X232401927Y-73387437D01*
X232241508Y-73338774D01*
X232093674Y-73259755D01*
X232093672Y-73259754D01*
X231964091Y-73153409D01*
X231857746Y-73023828D01*
X231849636Y-73008656D01*
X231778726Y-72875992D01*
X231730063Y-72715573D01*
X231713633Y-72548750D01*
X231730063Y-72381927D01*
X231778726Y-72221508D01*
X231857745Y-72073674D01*
X231857746Y-72073672D01*
X231964091Y-71944091D01*
X232093672Y-71837746D01*
X232108844Y-71829636D01*
X232241508Y-71758726D01*
X232401927Y-71710063D01*
X232526946Y-71697750D01*
X232610554Y-71697750D01*
X232735573Y-71710063D01*
X232735573Y-71710063D01*
G37*
G36*
X118435573Y-71710063D02*
G01*
X118595992Y-71758726D01*
X118728656Y-71829636D01*
X118743828Y-71837746D01*
X118873409Y-71944091D01*
X118979754Y-72073672D01*
X118979755Y-72073674D01*
X119058774Y-72221508D01*
X119107437Y-72381927D01*
X119123867Y-72548750D01*
X119107437Y-72715573D01*
X119058774Y-72875992D01*
X118987864Y-73008656D01*
X118979754Y-73023828D01*
X118873409Y-73153409D01*
X118743828Y-73259754D01*
X118743826Y-73259755D01*
X118595992Y-73338774D01*
X118435573Y-73387437D01*
X118310554Y-73399750D01*
X118226946Y-73399750D01*
X118101927Y-73387437D01*
X117941508Y-73338774D01*
X117793674Y-73259755D01*
X117793672Y-73259754D01*
X117664091Y-73153409D01*
X117557746Y-73023828D01*
X117549636Y-73008656D01*
X117478726Y-72875992D01*
X117430063Y-72715573D01*
X117413633Y-72548750D01*
X117430063Y-72381927D01*
X117478726Y-72221508D01*
X117557745Y-72073674D01*
X117557746Y-72073672D01*
X117664091Y-71944091D01*
X117793672Y-71837746D01*
X117808844Y-71829636D01*
X117941508Y-71758726D01*
X118101927Y-71710063D01*
X118226946Y-71697750D01*
X118310554Y-71697750D01*
X118435573Y-71710063D01*
X118435573Y-71710063D01*
G37*
G36*
X137485573Y-71710063D02*
G01*
X137645992Y-71758726D01*
X137778656Y-71829636D01*
X137793828Y-71837746D01*
X137923409Y-71944091D01*
X138029754Y-72073672D01*
X138029755Y-72073674D01*
X138108774Y-72221508D01*
X138157437Y-72381927D01*
X138173867Y-72548750D01*
X138157437Y-72715573D01*
X138108774Y-72875992D01*
X138037864Y-73008656D01*
X138029754Y-73023828D01*
X137923409Y-73153409D01*
X137793828Y-73259754D01*
X137793826Y-73259755D01*
X137645992Y-73338774D01*
X137485573Y-73387437D01*
X137360554Y-73399750D01*
X137276946Y-73399750D01*
X137151927Y-73387437D01*
X136991508Y-73338774D01*
X136843674Y-73259755D01*
X136843672Y-73259754D01*
X136714091Y-73153409D01*
X136607746Y-73023828D01*
X136599636Y-73008656D01*
X136528726Y-72875992D01*
X136480063Y-72715573D01*
X136463633Y-72548750D01*
X136480063Y-72381927D01*
X136528726Y-72221508D01*
X136607745Y-72073674D01*
X136607746Y-72073672D01*
X136714091Y-71944091D01*
X136843672Y-71837746D01*
X136858844Y-71829636D01*
X136991508Y-71758726D01*
X137151927Y-71710063D01*
X137276946Y-71697750D01*
X137360554Y-71697750D01*
X137485573Y-71710063D01*
X137485573Y-71710063D01*
G37*
G36*
X175585573Y-71710063D02*
G01*
X175745992Y-71758726D01*
X175878656Y-71829636D01*
X175893828Y-71837746D01*
X176023409Y-71944091D01*
X176129754Y-72073672D01*
X176129755Y-72073674D01*
X176208774Y-72221508D01*
X176257437Y-72381927D01*
X176273867Y-72548750D01*
X176257437Y-72715573D01*
X176208774Y-72875992D01*
X176137864Y-73008656D01*
X176129754Y-73023828D01*
X176023409Y-73153409D01*
X175893828Y-73259754D01*
X175893826Y-73259755D01*
X175745992Y-73338774D01*
X175585573Y-73387437D01*
X175460554Y-73399750D01*
X175376946Y-73399750D01*
X175251927Y-73387437D01*
X175091508Y-73338774D01*
X174943674Y-73259755D01*
X174943672Y-73259754D01*
X174814091Y-73153409D01*
X174707746Y-73023828D01*
X174699636Y-73008656D01*
X174628726Y-72875992D01*
X174580063Y-72715573D01*
X174563633Y-72548750D01*
X174580063Y-72381927D01*
X174628726Y-72221508D01*
X174707745Y-72073674D01*
X174707746Y-72073672D01*
X174814091Y-71944091D01*
X174943672Y-71837746D01*
X174958844Y-71829636D01*
X175091508Y-71758726D01*
X175251927Y-71710063D01*
X175376946Y-71697750D01*
X175460554Y-71697750D01*
X175585573Y-71710063D01*
X175585573Y-71710063D01*
G37*
G36*
X194635573Y-71710063D02*
G01*
X194795992Y-71758726D01*
X194928656Y-71829636D01*
X194943828Y-71837746D01*
X195073409Y-71944091D01*
X195179754Y-72073672D01*
X195179755Y-72073674D01*
X195258774Y-72221508D01*
X195307437Y-72381927D01*
X195323867Y-72548750D01*
X195307437Y-72715573D01*
X195258774Y-72875992D01*
X195187864Y-73008656D01*
X195179754Y-73023828D01*
X195073409Y-73153409D01*
X194943828Y-73259754D01*
X194943826Y-73259755D01*
X194795992Y-73338774D01*
X194635573Y-73387437D01*
X194510554Y-73399750D01*
X194426946Y-73399750D01*
X194301927Y-73387437D01*
X194141508Y-73338774D01*
X193993674Y-73259755D01*
X193993672Y-73259754D01*
X193864091Y-73153409D01*
X193757746Y-73023828D01*
X193749636Y-73008656D01*
X193678726Y-72875992D01*
X193630063Y-72715573D01*
X193613633Y-72548750D01*
X193630063Y-72381927D01*
X193678726Y-72221508D01*
X193757745Y-72073674D01*
X193757746Y-72073672D01*
X193864091Y-71944091D01*
X193993672Y-71837746D01*
X194008844Y-71829636D01*
X194141508Y-71758726D01*
X194301927Y-71710063D01*
X194426946Y-71697750D01*
X194510554Y-71697750D01*
X194635573Y-71710063D01*
X194635573Y-71710063D01*
G37*
G36*
X213685573Y-71710063D02*
G01*
X213845992Y-71758726D01*
X213978656Y-71829636D01*
X213993828Y-71837746D01*
X214123409Y-71944091D01*
X214229754Y-72073672D01*
X214229755Y-72073674D01*
X214308774Y-72221508D01*
X214357437Y-72381927D01*
X214373867Y-72548750D01*
X214357437Y-72715573D01*
X214308774Y-72875992D01*
X214237864Y-73008656D01*
X214229754Y-73023828D01*
X214123409Y-73153409D01*
X213993828Y-73259754D01*
X213993826Y-73259755D01*
X213845992Y-73338774D01*
X213685573Y-73387437D01*
X213560554Y-73399750D01*
X213476946Y-73399750D01*
X213351927Y-73387437D01*
X213191508Y-73338774D01*
X213043674Y-73259755D01*
X213043672Y-73259754D01*
X212914091Y-73153409D01*
X212807746Y-73023828D01*
X212799636Y-73008656D01*
X212728726Y-72875992D01*
X212680063Y-72715573D01*
X212663633Y-72548750D01*
X212680063Y-72381927D01*
X212728726Y-72221508D01*
X212807745Y-72073674D01*
X212807746Y-72073672D01*
X212914091Y-71944091D01*
X213043672Y-71837746D01*
X213058844Y-71829636D01*
X213191508Y-71758726D01*
X213351927Y-71710063D01*
X213476946Y-71697750D01*
X213560554Y-71697750D01*
X213685573Y-71710063D01*
X213685573Y-71710063D01*
G37*
G36*
X261310573Y-71710063D02*
G01*
X261470992Y-71758726D01*
X261603656Y-71829636D01*
X261618828Y-71837746D01*
X261748409Y-71944091D01*
X261854754Y-72073672D01*
X261854755Y-72073674D01*
X261933774Y-72221508D01*
X261982437Y-72381927D01*
X261998867Y-72548750D01*
X261982437Y-72715573D01*
X261933774Y-72875992D01*
X261862864Y-73008656D01*
X261854754Y-73023828D01*
X261748409Y-73153409D01*
X261618828Y-73259754D01*
X261618826Y-73259755D01*
X261470992Y-73338774D01*
X261310573Y-73387437D01*
X261185554Y-73399750D01*
X261101946Y-73399750D01*
X260976927Y-73387437D01*
X260816508Y-73338774D01*
X260668674Y-73259755D01*
X260668672Y-73259754D01*
X260539091Y-73153409D01*
X260432746Y-73023828D01*
X260424636Y-73008656D01*
X260353726Y-72875992D01*
X260305063Y-72715573D01*
X260288633Y-72548750D01*
X260305063Y-72381927D01*
X260353726Y-72221508D01*
X260432745Y-72073674D01*
X260432746Y-72073672D01*
X260539091Y-71944091D01*
X260668672Y-71837746D01*
X260683844Y-71829636D01*
X260816508Y-71758726D01*
X260976927Y-71710063D01*
X261101946Y-71697750D01*
X261185554Y-71697750D01*
X261310573Y-71710063D01*
X261310573Y-71710063D01*
G37*
G36*
X70810573Y-71710063D02*
G01*
X70970992Y-71758726D01*
X71103656Y-71829636D01*
X71118828Y-71837746D01*
X71248409Y-71944091D01*
X71354754Y-72073672D01*
X71354755Y-72073674D01*
X71433774Y-72221508D01*
X71482437Y-72381927D01*
X71498867Y-72548750D01*
X71482437Y-72715573D01*
X71433774Y-72875992D01*
X71362864Y-73008656D01*
X71354754Y-73023828D01*
X71248409Y-73153409D01*
X71118828Y-73259754D01*
X71118826Y-73259755D01*
X70970992Y-73338774D01*
X70810573Y-73387437D01*
X70685554Y-73399750D01*
X70601946Y-73399750D01*
X70476927Y-73387437D01*
X70316508Y-73338774D01*
X70168674Y-73259755D01*
X70168672Y-73259754D01*
X70039091Y-73153409D01*
X69932746Y-73023828D01*
X69924636Y-73008656D01*
X69853726Y-72875992D01*
X69805063Y-72715573D01*
X69788633Y-72548750D01*
X69805063Y-72381927D01*
X69853726Y-72221508D01*
X69932745Y-72073674D01*
X69932746Y-72073672D01*
X70039091Y-71944091D01*
X70168672Y-71837746D01*
X70183844Y-71829636D01*
X70316508Y-71758726D01*
X70476927Y-71710063D01*
X70601946Y-71697750D01*
X70685554Y-71697750D01*
X70810573Y-71710063D01*
X70810573Y-71710063D01*
G37*
G36*
X50465661Y-67700526D02*
G01*
X50584387Y-67749704D01*
X50752291Y-67819252D01*
X50752292Y-67819253D01*
X51010254Y-67991617D01*
X51229633Y-68210996D01*
X51344803Y-68383361D01*
X51401998Y-68468959D01*
X51520724Y-68755590D01*
X51581250Y-69059875D01*
X51581250Y-69370125D01*
X51520724Y-69674410D01*
X51401998Y-69961041D01*
X51401997Y-69961042D01*
X51229633Y-70219004D01*
X51010254Y-70438383D01*
X50837889Y-70553553D01*
X50752291Y-70610748D01*
X50584387Y-70680296D01*
X50465661Y-70729474D01*
X50313517Y-70759737D01*
X50161375Y-70790000D01*
X49851125Y-70790000D01*
X49698983Y-70759737D01*
X49546839Y-70729474D01*
X49428113Y-70680296D01*
X49260209Y-70610748D01*
X49174611Y-70553553D01*
X49002246Y-70438383D01*
X48782867Y-70219004D01*
X48610503Y-69961042D01*
X48610502Y-69961041D01*
X48491776Y-69674410D01*
X48431250Y-69370125D01*
X48431250Y-69059875D01*
X48491776Y-68755590D01*
X48610502Y-68468959D01*
X48667697Y-68383361D01*
X48782867Y-68210996D01*
X49002246Y-67991617D01*
X49260208Y-67819253D01*
X49260209Y-67819252D01*
X49428113Y-67749704D01*
X49546839Y-67700526D01*
X49851125Y-67640000D01*
X50161375Y-67640000D01*
X50465661Y-67700526D01*
X50465661Y-67700526D01*
G37*
G36*
X240965661Y-67700526D02*
G01*
X241084387Y-67749704D01*
X241252291Y-67819252D01*
X241252292Y-67819253D01*
X241510254Y-67991617D01*
X241729633Y-68210996D01*
X241844803Y-68383361D01*
X241901998Y-68468959D01*
X242020724Y-68755590D01*
X242081250Y-69059875D01*
X242081250Y-69370125D01*
X242020724Y-69674410D01*
X241901998Y-69961041D01*
X241901997Y-69961042D01*
X241729633Y-70219004D01*
X241510254Y-70438383D01*
X241337889Y-70553553D01*
X241252291Y-70610748D01*
X241084387Y-70680296D01*
X240965661Y-70729474D01*
X240661375Y-70790000D01*
X240351125Y-70790000D01*
X240198983Y-70759737D01*
X240046839Y-70729474D01*
X239928113Y-70680296D01*
X239760209Y-70610748D01*
X239674611Y-70553553D01*
X239502246Y-70438383D01*
X239282867Y-70219004D01*
X239110503Y-69961042D01*
X239110502Y-69961041D01*
X238991776Y-69674410D01*
X238931250Y-69370125D01*
X238931250Y-69059875D01*
X238991776Y-68755590D01*
X239110502Y-68468959D01*
X239167697Y-68383361D01*
X239282867Y-68210996D01*
X239502246Y-67991617D01*
X239760208Y-67819253D01*
X239760209Y-67819252D01*
X239928113Y-67749704D01*
X240046839Y-67700526D01*
X240351125Y-67640000D01*
X240661375Y-67640000D01*
X240965661Y-67700526D01*
X240965661Y-67700526D01*
G37*
G36*
X264778161Y-67700526D02*
G01*
X264896887Y-67749704D01*
X265064791Y-67819252D01*
X265064792Y-67819253D01*
X265322754Y-67991617D01*
X265542133Y-68210996D01*
X265657303Y-68383361D01*
X265714498Y-68468959D01*
X265833224Y-68755590D01*
X265893750Y-69059875D01*
X265893750Y-69370125D01*
X265833224Y-69674410D01*
X265714498Y-69961041D01*
X265714497Y-69961042D01*
X265542133Y-70219004D01*
X265322754Y-70438383D01*
X265150389Y-70553553D01*
X265064791Y-70610748D01*
X264896887Y-70680296D01*
X264778161Y-70729474D01*
X264473875Y-70790000D01*
X264163625Y-70790000D01*
X264011483Y-70759737D01*
X263859339Y-70729474D01*
X263740613Y-70680296D01*
X263572709Y-70610748D01*
X263487111Y-70553553D01*
X263314746Y-70438383D01*
X263095367Y-70219004D01*
X262923003Y-69961042D01*
X262923002Y-69961041D01*
X262804276Y-69674410D01*
X262743750Y-69370125D01*
X262743750Y-69059875D01*
X262804276Y-68755590D01*
X262923002Y-68468959D01*
X262980197Y-68383361D01*
X263095367Y-68210996D01*
X263314746Y-67991617D01*
X263572708Y-67819253D01*
X263572709Y-67819252D01*
X263740613Y-67749704D01*
X263859339Y-67700526D01*
X264163625Y-67640000D01*
X264473875Y-67640000D01*
X264778161Y-67700526D01*
X264778161Y-67700526D01*
G37*
G36*
X74278161Y-67700526D02*
G01*
X74396887Y-67749704D01*
X74564791Y-67819252D01*
X74564792Y-67819253D01*
X74822754Y-67991617D01*
X75042133Y-68210996D01*
X75157303Y-68383361D01*
X75214498Y-68468959D01*
X75333224Y-68755590D01*
X75393750Y-69059875D01*
X75393750Y-69370125D01*
X75333224Y-69674410D01*
X75214498Y-69961041D01*
X75214497Y-69961042D01*
X75042133Y-70219004D01*
X74822754Y-70438383D01*
X74650389Y-70553553D01*
X74564791Y-70610748D01*
X74396887Y-70680296D01*
X74278161Y-70729474D01*
X74126017Y-70759737D01*
X73973875Y-70790000D01*
X73663625Y-70790000D01*
X73511483Y-70759737D01*
X73359339Y-70729474D01*
X73240613Y-70680296D01*
X73072709Y-70610748D01*
X72987111Y-70553553D01*
X72814746Y-70438383D01*
X72595367Y-70219004D01*
X72423003Y-69961042D01*
X72423002Y-69961041D01*
X72304276Y-69674410D01*
X72243750Y-69370125D01*
X72243750Y-69059875D01*
X72304276Y-68755590D01*
X72423002Y-68468959D01*
X72480197Y-68383361D01*
X72595367Y-68210996D01*
X72814746Y-67991617D01*
X73072708Y-67819253D01*
X73072709Y-67819252D01*
X73240613Y-67749704D01*
X73359339Y-67700526D01*
X73663625Y-67640000D01*
X73973875Y-67640000D01*
X74278161Y-67700526D01*
X74278161Y-67700526D01*
G37*
G36*
X76152983Y-63878335D02*
G01*
X76321740Y-63948236D01*
X76473618Y-64049718D01*
X76602782Y-64178882D01*
X76704264Y-64330760D01*
X76774165Y-64499517D01*
X76809800Y-64678668D01*
X76809800Y-64861332D01*
X76774165Y-65040483D01*
X76704264Y-65209240D01*
X76602782Y-65361118D01*
X76473618Y-65490282D01*
X76321740Y-65591764D01*
X76152983Y-65661665D01*
X75973832Y-65697300D01*
X75791168Y-65697300D01*
X75612017Y-65661665D01*
X75443260Y-65591764D01*
X75291382Y-65490282D01*
X75162218Y-65361118D01*
X75060736Y-65209240D01*
X74990835Y-65040483D01*
X74955200Y-64861332D01*
X74955200Y-64678668D01*
X74990835Y-64499517D01*
X75060736Y-64330760D01*
X75162218Y-64178882D01*
X75291382Y-64049718D01*
X75443260Y-63948236D01*
X75612017Y-63878335D01*
X75791168Y-63842700D01*
X75973832Y-63842700D01*
X76152983Y-63878335D01*
X76152983Y-63878335D01*
G37*
G36*
X50752983Y-63878335D02*
G01*
X50921740Y-63948236D01*
X51073618Y-64049718D01*
X51202782Y-64178882D01*
X51304264Y-64330760D01*
X51374165Y-64499517D01*
X51409800Y-64678668D01*
X51409800Y-64861332D01*
X51374165Y-65040483D01*
X51304264Y-65209240D01*
X51202782Y-65361118D01*
X51073618Y-65490282D01*
X50921740Y-65591764D01*
X50752983Y-65661665D01*
X50573832Y-65697300D01*
X50391168Y-65697300D01*
X50212017Y-65661665D01*
X50043260Y-65591764D01*
X49891382Y-65490282D01*
X49762218Y-65361118D01*
X49660736Y-65209240D01*
X49590835Y-65040483D01*
X49555200Y-64861332D01*
X49555200Y-64678668D01*
X49590835Y-64499517D01*
X49660736Y-64330760D01*
X49762218Y-64178882D01*
X49891382Y-64049718D01*
X50043260Y-63948236D01*
X50212017Y-63878335D01*
X50391168Y-63842700D01*
X50573832Y-63842700D01*
X50752983Y-63878335D01*
X50752983Y-63878335D01*
G37*
G36*
X48869800Y-65697300D02*
G01*
X47015200Y-65697300D01*
X47015200Y-63842700D01*
X48869800Y-63842700D01*
X48869800Y-65697300D01*
X48869800Y-65697300D01*
G37*
G36*
X53292983Y-63878335D02*
G01*
X53461740Y-63948236D01*
X53613618Y-64049718D01*
X53742782Y-64178882D01*
X53844264Y-64330760D01*
X53914165Y-64499517D01*
X53949800Y-64678668D01*
X53949800Y-64861332D01*
X53914165Y-65040483D01*
X53844264Y-65209240D01*
X53742782Y-65361118D01*
X53613618Y-65490282D01*
X53461740Y-65591764D01*
X53292983Y-65661665D01*
X53113832Y-65697300D01*
X52931168Y-65697300D01*
X52752017Y-65661665D01*
X52583260Y-65591764D01*
X52431382Y-65490282D01*
X52302218Y-65361118D01*
X52200736Y-65209240D01*
X52130835Y-65040483D01*
X52095200Y-64861332D01*
X52095200Y-64678668D01*
X52130835Y-64499517D01*
X52200736Y-64330760D01*
X52302218Y-64178882D01*
X52431382Y-64049718D01*
X52583260Y-63948236D01*
X52752017Y-63878335D01*
X52931168Y-63842700D01*
X53113832Y-63842700D01*
X53292983Y-63878335D01*
X53292983Y-63878335D01*
G37*
G36*
X55832983Y-63878335D02*
G01*
X56001740Y-63948236D01*
X56153618Y-64049718D01*
X56282782Y-64178882D01*
X56384264Y-64330760D01*
X56454165Y-64499517D01*
X56489800Y-64678668D01*
X56489800Y-64861332D01*
X56454165Y-65040483D01*
X56384264Y-65209240D01*
X56282782Y-65361118D01*
X56153618Y-65490282D01*
X56001740Y-65591764D01*
X55832983Y-65661665D01*
X55653832Y-65697300D01*
X55471168Y-65697300D01*
X55292017Y-65661665D01*
X55123260Y-65591764D01*
X54971382Y-65490282D01*
X54842218Y-65361118D01*
X54740736Y-65209240D01*
X54670835Y-65040483D01*
X54635200Y-64861332D01*
X54635200Y-64678668D01*
X54670835Y-64499517D01*
X54740736Y-64330760D01*
X54842218Y-64178882D01*
X54971382Y-64049718D01*
X55123260Y-63948236D01*
X55292017Y-63878335D01*
X55471168Y-63842700D01*
X55653832Y-63842700D01*
X55832983Y-63878335D01*
X55832983Y-63878335D01*
G37*
G36*
X58372983Y-63878335D02*
G01*
X58541740Y-63948236D01*
X58693618Y-64049718D01*
X58822782Y-64178882D01*
X58924264Y-64330760D01*
X58994165Y-64499517D01*
X59029800Y-64678668D01*
X59029800Y-64861332D01*
X58994165Y-65040483D01*
X58924264Y-65209240D01*
X58822782Y-65361118D01*
X58693618Y-65490282D01*
X58541740Y-65591764D01*
X58372983Y-65661665D01*
X58193832Y-65697300D01*
X58011168Y-65697300D01*
X57832017Y-65661665D01*
X57663260Y-65591764D01*
X57511382Y-65490282D01*
X57382218Y-65361118D01*
X57280736Y-65209240D01*
X57210835Y-65040483D01*
X57175200Y-64861332D01*
X57175200Y-64678668D01*
X57210835Y-64499517D01*
X57280736Y-64330760D01*
X57382218Y-64178882D01*
X57511382Y-64049718D01*
X57663260Y-63948236D01*
X57832017Y-63878335D01*
X58011168Y-63842700D01*
X58193832Y-63842700D01*
X58372983Y-63878335D01*
X58372983Y-63878335D01*
G37*
G36*
X63452983Y-63878335D02*
G01*
X63621740Y-63948236D01*
X63773618Y-64049718D01*
X63902782Y-64178882D01*
X64004264Y-64330760D01*
X64074165Y-64499517D01*
X64109800Y-64678668D01*
X64109800Y-64861332D01*
X64074165Y-65040483D01*
X64004264Y-65209240D01*
X63902782Y-65361118D01*
X63773618Y-65490282D01*
X63621740Y-65591764D01*
X63452983Y-65661665D01*
X63273832Y-65697300D01*
X63091168Y-65697300D01*
X62912017Y-65661665D01*
X62743260Y-65591764D01*
X62591382Y-65490282D01*
X62462218Y-65361118D01*
X62360736Y-65209240D01*
X62290835Y-65040483D01*
X62255200Y-64861332D01*
X62255200Y-64678668D01*
X62290835Y-64499517D01*
X62360736Y-64330760D01*
X62462218Y-64178882D01*
X62591382Y-64049718D01*
X62743260Y-63948236D01*
X62912017Y-63878335D01*
X63091168Y-63842700D01*
X63273832Y-63842700D01*
X63452983Y-63878335D01*
X63452983Y-63878335D01*
G37*
G36*
X65992983Y-63878335D02*
G01*
X66161740Y-63948236D01*
X66313618Y-64049718D01*
X66442782Y-64178882D01*
X66544264Y-64330760D01*
X66614165Y-64499517D01*
X66649800Y-64678668D01*
X66649800Y-64861332D01*
X66614165Y-65040483D01*
X66544264Y-65209240D01*
X66442782Y-65361118D01*
X66313618Y-65490282D01*
X66161740Y-65591764D01*
X65992983Y-65661665D01*
X65813832Y-65697300D01*
X65631168Y-65697300D01*
X65452017Y-65661665D01*
X65283260Y-65591764D01*
X65131382Y-65490282D01*
X65002218Y-65361118D01*
X64900736Y-65209240D01*
X64830835Y-65040483D01*
X64795200Y-64861332D01*
X64795200Y-64678668D01*
X64830835Y-64499517D01*
X64900736Y-64330760D01*
X65002218Y-64178882D01*
X65131382Y-64049718D01*
X65283260Y-63948236D01*
X65452017Y-63878335D01*
X65631168Y-63842700D01*
X65813832Y-63842700D01*
X65992983Y-63878335D01*
X65992983Y-63878335D01*
G37*
G36*
X68532983Y-63878335D02*
G01*
X68701740Y-63948236D01*
X68853618Y-64049718D01*
X68982782Y-64178882D01*
X69084264Y-64330760D01*
X69154165Y-64499517D01*
X69189800Y-64678668D01*
X69189800Y-64861332D01*
X69154165Y-65040483D01*
X69084264Y-65209240D01*
X68982782Y-65361118D01*
X68853618Y-65490282D01*
X68701740Y-65591764D01*
X68532983Y-65661665D01*
X68353832Y-65697300D01*
X68171168Y-65697300D01*
X67992017Y-65661665D01*
X67823260Y-65591764D01*
X67671382Y-65490282D01*
X67542218Y-65361118D01*
X67440736Y-65209240D01*
X67370835Y-65040483D01*
X67335200Y-64861332D01*
X67335200Y-64678668D01*
X67370835Y-64499517D01*
X67440736Y-64330760D01*
X67542218Y-64178882D01*
X67671382Y-64049718D01*
X67823260Y-63948236D01*
X67992017Y-63878335D01*
X68171168Y-63842700D01*
X68353832Y-63842700D01*
X68532983Y-63878335D01*
X68532983Y-63878335D01*
G37*
G36*
X73612983Y-63878335D02*
G01*
X73781740Y-63948236D01*
X73933618Y-64049718D01*
X74062782Y-64178882D01*
X74164264Y-64330760D01*
X74234165Y-64499517D01*
X74269800Y-64678668D01*
X74269800Y-64861332D01*
X74234165Y-65040483D01*
X74164264Y-65209240D01*
X74062782Y-65361118D01*
X73933618Y-65490282D01*
X73781740Y-65591764D01*
X73612983Y-65661665D01*
X73433832Y-65697300D01*
X73251168Y-65697300D01*
X73072017Y-65661665D01*
X72903260Y-65591764D01*
X72751382Y-65490282D01*
X72622218Y-65361118D01*
X72520736Y-65209240D01*
X72450835Y-65040483D01*
X72415200Y-64861332D01*
X72415200Y-64678668D01*
X72450835Y-64499517D01*
X72520736Y-64330760D01*
X72622218Y-64178882D01*
X72751382Y-64049718D01*
X72903260Y-63948236D01*
X73072017Y-63878335D01*
X73251168Y-63842700D01*
X73433832Y-63842700D01*
X73612983Y-63878335D01*
X73612983Y-63878335D01*
G37*
G36*
X71072983Y-63878335D02*
G01*
X71241740Y-63948236D01*
X71393618Y-64049718D01*
X71522782Y-64178882D01*
X71624264Y-64330760D01*
X71694165Y-64499517D01*
X71729800Y-64678668D01*
X71729800Y-64861332D01*
X71694165Y-65040483D01*
X71624264Y-65209240D01*
X71522782Y-65361118D01*
X71393618Y-65490282D01*
X71241740Y-65591764D01*
X71072983Y-65661665D01*
X70893832Y-65697300D01*
X70711168Y-65697300D01*
X70532017Y-65661665D01*
X70363260Y-65591764D01*
X70211382Y-65490282D01*
X70082218Y-65361118D01*
X69980736Y-65209240D01*
X69910835Y-65040483D01*
X69875200Y-64861332D01*
X69875200Y-64678668D01*
X69910835Y-64499517D01*
X69980736Y-64330760D01*
X70082218Y-64178882D01*
X70211382Y-64049718D01*
X70363260Y-63948236D01*
X70532017Y-63878335D01*
X70711168Y-63842700D01*
X70893832Y-63842700D01*
X71072983Y-63878335D01*
X71072983Y-63878335D01*
G37*
G36*
X60912983Y-63878335D02*
G01*
X61081740Y-63948236D01*
X61233618Y-64049718D01*
X61362782Y-64178882D01*
X61464264Y-64330760D01*
X61534165Y-64499517D01*
X61569800Y-64678668D01*
X61569800Y-64861332D01*
X61534165Y-65040483D01*
X61464264Y-65209240D01*
X61362782Y-65361118D01*
X61233618Y-65490282D01*
X61081740Y-65591764D01*
X60912983Y-65661665D01*
X60733832Y-65697300D01*
X60551168Y-65697300D01*
X60372017Y-65661665D01*
X60203260Y-65591764D01*
X60051382Y-65490282D01*
X59922218Y-65361118D01*
X59820736Y-65209240D01*
X59750835Y-65040483D01*
X59715200Y-64861332D01*
X59715200Y-64678668D01*
X59750835Y-64499517D01*
X59820736Y-64330760D01*
X59922218Y-64178882D01*
X60051382Y-64049718D01*
X60203260Y-63948236D01*
X60372017Y-63878335D01*
X60551168Y-63842700D01*
X60733832Y-63842700D01*
X60912983Y-63878335D01*
X60912983Y-63878335D01*
G37*
G36*
X166744750Y-61969750D02*
G01*
X165042750Y-61969750D01*
X165042750Y-60267750D01*
X166744750Y-60267750D01*
X166744750Y-61969750D01*
X166744750Y-61969750D01*
G37*
G36*
X185794750Y-61969750D02*
G01*
X184092750Y-61969750D01*
X184092750Y-60267750D01*
X185794750Y-60267750D01*
X185794750Y-61969750D01*
X185794750Y-61969750D01*
G37*
G36*
X266757250Y-61969750D02*
G01*
X265055250Y-61969750D01*
X265055250Y-60267750D01*
X266757250Y-60267750D01*
X266757250Y-61969750D01*
X266757250Y-61969750D01*
G37*
G36*
X242944750Y-61969750D02*
G01*
X241242750Y-61969750D01*
X241242750Y-60267750D01*
X242944750Y-60267750D01*
X242944750Y-61969750D01*
X242944750Y-61969750D01*
G37*
G36*
X223894750Y-61969750D02*
G01*
X222192750Y-61969750D01*
X222192750Y-60267750D01*
X223894750Y-60267750D01*
X223894750Y-61969750D01*
X223894750Y-61969750D01*
G37*
G36*
X204844750Y-61969750D02*
G01*
X203142750Y-61969750D01*
X203142750Y-60267750D01*
X204844750Y-60267750D01*
X204844750Y-61969750D01*
X204844750Y-61969750D01*
G37*
G36*
X147694750Y-61969750D02*
G01*
X145992750Y-61969750D01*
X145992750Y-60267750D01*
X147694750Y-60267750D01*
X147694750Y-61969750D01*
X147694750Y-61969750D01*
G37*
G36*
X128644750Y-61969750D02*
G01*
X126942750Y-61969750D01*
X126942750Y-60267750D01*
X128644750Y-60267750D01*
X128644750Y-61969750D01*
X128644750Y-61969750D01*
G37*
G36*
X109594750Y-61969750D02*
G01*
X107892750Y-61969750D01*
X107892750Y-60267750D01*
X109594750Y-60267750D01*
X109594750Y-61969750D01*
X109594750Y-61969750D01*
G37*
G36*
X90544750Y-61969750D02*
G01*
X88842750Y-61969750D01*
X88842750Y-60267750D01*
X90544750Y-60267750D01*
X90544750Y-61969750D01*
X90544750Y-61969750D01*
G37*
G36*
X66732250Y-61969750D02*
G01*
X65030250Y-61969750D01*
X65030250Y-60267750D01*
X66732250Y-60267750D01*
X66732250Y-61969750D01*
X66732250Y-61969750D01*
G37*
G36*
X195858974Y-55183684D02*
G01*
X196076974Y-55273983D01*
X196231123Y-55337833D01*
X196566048Y-55561623D01*
X196850877Y-55846452D01*
X197074667Y-56181377D01*
X197107062Y-56259586D01*
X197228816Y-56553526D01*
X197307400Y-56948594D01*
X197307400Y-57351406D01*
X197228816Y-57746474D01*
X197177951Y-57869272D01*
X197074667Y-58118623D01*
X196850877Y-58453548D01*
X196566048Y-58738377D01*
X196231123Y-58962167D01*
X196076974Y-59026017D01*
X195858974Y-59116316D01*
X195463906Y-59194900D01*
X195061094Y-59194900D01*
X194666026Y-59116316D01*
X194448026Y-59026017D01*
X194293877Y-58962167D01*
X193958952Y-58738377D01*
X193674123Y-58453548D01*
X193450333Y-58118623D01*
X193347049Y-57869272D01*
X193296184Y-57746474D01*
X193217600Y-57351406D01*
X193217600Y-56948594D01*
X193296184Y-56553526D01*
X193417938Y-56259586D01*
X193450333Y-56181377D01*
X193674123Y-55846452D01*
X193958952Y-55561623D01*
X194293877Y-55337833D01*
X194448026Y-55273983D01*
X194666026Y-55183684D01*
X195061094Y-55105100D01*
X195463906Y-55105100D01*
X195858974Y-55183684D01*
X195858974Y-55183684D01*
G37*
G36*
X81558974Y-55183684D02*
G01*
X81776974Y-55273983D01*
X81931123Y-55337833D01*
X82266048Y-55561623D01*
X82550877Y-55846452D01*
X82774667Y-56181377D01*
X82807062Y-56259586D01*
X82928816Y-56553526D01*
X83007400Y-56948594D01*
X83007400Y-57351406D01*
X82928816Y-57746474D01*
X82877951Y-57869272D01*
X82774667Y-58118623D01*
X82550877Y-58453548D01*
X82266048Y-58738377D01*
X81931123Y-58962167D01*
X81776974Y-59026017D01*
X81558974Y-59116316D01*
X81163906Y-59194900D01*
X80761094Y-59194900D01*
X80366026Y-59116316D01*
X80148026Y-59026017D01*
X79993877Y-58962167D01*
X79658952Y-58738377D01*
X79374123Y-58453548D01*
X79150333Y-58118623D01*
X79047049Y-57869272D01*
X78996184Y-57746474D01*
X78917600Y-57351406D01*
X78917600Y-56948594D01*
X78996184Y-56553526D01*
X79117938Y-56259586D01*
X79150333Y-56181377D01*
X79374123Y-55846452D01*
X79658952Y-55561623D01*
X79993877Y-55337833D01*
X80148026Y-55273983D01*
X80366026Y-55183684D01*
X80761094Y-55105100D01*
X81163906Y-55105100D01*
X81558974Y-55183684D01*
X81558974Y-55183684D01*
G37*
G36*
X119658974Y-55183684D02*
G01*
X119876974Y-55273983D01*
X120031123Y-55337833D01*
X120366048Y-55561623D01*
X120650877Y-55846452D01*
X120874667Y-56181377D01*
X120907062Y-56259586D01*
X121028816Y-56553526D01*
X121107400Y-56948594D01*
X121107400Y-57351406D01*
X121028816Y-57746474D01*
X120977951Y-57869272D01*
X120874667Y-58118623D01*
X120650877Y-58453548D01*
X120366048Y-58738377D01*
X120031123Y-58962167D01*
X119876974Y-59026017D01*
X119658974Y-59116316D01*
X119263906Y-59194900D01*
X118861094Y-59194900D01*
X118466026Y-59116316D01*
X118248026Y-59026017D01*
X118093877Y-58962167D01*
X117758952Y-58738377D01*
X117474123Y-58453548D01*
X117250333Y-58118623D01*
X117147049Y-57869272D01*
X117096184Y-57746474D01*
X117017600Y-57351406D01*
X117017600Y-56948594D01*
X117096184Y-56553526D01*
X117217938Y-56259586D01*
X117250333Y-56181377D01*
X117474123Y-55846452D01*
X117758952Y-55561623D01*
X118093877Y-55337833D01*
X118248026Y-55273983D01*
X118466026Y-55183684D01*
X118861094Y-55105100D01*
X119263906Y-55105100D01*
X119658974Y-55183684D01*
X119658974Y-55183684D01*
G37*
G36*
X138708974Y-55183684D02*
G01*
X138926974Y-55273983D01*
X139081123Y-55337833D01*
X139416048Y-55561623D01*
X139700877Y-55846452D01*
X139924667Y-56181377D01*
X139957062Y-56259586D01*
X140078816Y-56553526D01*
X140157400Y-56948594D01*
X140157400Y-57351406D01*
X140078816Y-57746474D01*
X140027951Y-57869272D01*
X139924667Y-58118623D01*
X139700877Y-58453548D01*
X139416048Y-58738377D01*
X139081123Y-58962167D01*
X138926974Y-59026017D01*
X138708974Y-59116316D01*
X138313906Y-59194900D01*
X137911094Y-59194900D01*
X137516026Y-59116316D01*
X137298026Y-59026017D01*
X137143877Y-58962167D01*
X136808952Y-58738377D01*
X136524123Y-58453548D01*
X136300333Y-58118623D01*
X136197049Y-57869272D01*
X136146184Y-57746474D01*
X136067600Y-57351406D01*
X136067600Y-56948594D01*
X136146184Y-56553526D01*
X136267938Y-56259586D01*
X136300333Y-56181377D01*
X136524123Y-55846452D01*
X136808952Y-55561623D01*
X137143877Y-55337833D01*
X137298026Y-55273983D01*
X137516026Y-55183684D01*
X137911094Y-55105100D01*
X138313906Y-55105100D01*
X138708974Y-55183684D01*
X138708974Y-55183684D01*
G37*
G36*
X100608974Y-55183684D02*
G01*
X100826974Y-55273983D01*
X100981123Y-55337833D01*
X101316048Y-55561623D01*
X101600877Y-55846452D01*
X101824667Y-56181377D01*
X101857062Y-56259586D01*
X101978816Y-56553526D01*
X102057400Y-56948594D01*
X102057400Y-57351406D01*
X101978816Y-57746474D01*
X101927951Y-57869272D01*
X101824667Y-58118623D01*
X101600877Y-58453548D01*
X101316048Y-58738377D01*
X100981123Y-58962167D01*
X100826974Y-59026017D01*
X100608974Y-59116316D01*
X100213906Y-59194900D01*
X99811094Y-59194900D01*
X99416026Y-59116316D01*
X99198026Y-59026017D01*
X99043877Y-58962167D01*
X98708952Y-58738377D01*
X98424123Y-58453548D01*
X98200333Y-58118623D01*
X98097049Y-57869272D01*
X98046184Y-57746474D01*
X97967600Y-57351406D01*
X97967600Y-56948594D01*
X98046184Y-56553526D01*
X98167938Y-56259586D01*
X98200333Y-56181377D01*
X98424123Y-55846452D01*
X98708952Y-55561623D01*
X99043877Y-55337833D01*
X99198026Y-55273983D01*
X99416026Y-55183684D01*
X99811094Y-55105100D01*
X100213906Y-55105100D01*
X100608974Y-55183684D01*
X100608974Y-55183684D01*
G37*
G36*
X157758974Y-55183684D02*
G01*
X157976974Y-55273983D01*
X158131123Y-55337833D01*
X158466048Y-55561623D01*
X158750877Y-55846452D01*
X158974667Y-56181377D01*
X159007062Y-56259586D01*
X159128816Y-56553526D01*
X159207400Y-56948594D01*
X159207400Y-57351406D01*
X159128816Y-57746474D01*
X159077951Y-57869272D01*
X158974667Y-58118623D01*
X158750877Y-58453548D01*
X158466048Y-58738377D01*
X158131123Y-58962167D01*
X157976974Y-59026017D01*
X157758974Y-59116316D01*
X157363906Y-59194900D01*
X156961094Y-59194900D01*
X156566026Y-59116316D01*
X156348026Y-59026017D01*
X156193877Y-58962167D01*
X155858952Y-58738377D01*
X155574123Y-58453548D01*
X155350333Y-58118623D01*
X155247049Y-57869272D01*
X155196184Y-57746474D01*
X155117600Y-57351406D01*
X155117600Y-56948594D01*
X155196184Y-56553526D01*
X155317938Y-56259586D01*
X155350333Y-56181377D01*
X155574123Y-55846452D01*
X155858952Y-55561623D01*
X156193877Y-55337833D01*
X156348026Y-55273983D01*
X156566026Y-55183684D01*
X156961094Y-55105100D01*
X157363906Y-55105100D01*
X157758974Y-55183684D01*
X157758974Y-55183684D01*
G37*
G36*
X214908974Y-55183684D02*
G01*
X215126974Y-55273983D01*
X215281123Y-55337833D01*
X215616048Y-55561623D01*
X215900877Y-55846452D01*
X216124667Y-56181377D01*
X216157062Y-56259586D01*
X216278816Y-56553526D01*
X216357400Y-56948594D01*
X216357400Y-57351406D01*
X216278816Y-57746474D01*
X216227951Y-57869272D01*
X216124667Y-58118623D01*
X215900877Y-58453548D01*
X215616048Y-58738377D01*
X215281123Y-58962167D01*
X215126974Y-59026017D01*
X214908974Y-59116316D01*
X214513906Y-59194900D01*
X214111094Y-59194900D01*
X213716026Y-59116316D01*
X213498026Y-59026017D01*
X213343877Y-58962167D01*
X213008952Y-58738377D01*
X212724123Y-58453548D01*
X212500333Y-58118623D01*
X212397049Y-57869272D01*
X212346184Y-57746474D01*
X212267600Y-57351406D01*
X212267600Y-56948594D01*
X212346184Y-56553526D01*
X212467938Y-56259586D01*
X212500333Y-56181377D01*
X212724123Y-55846452D01*
X213008952Y-55561623D01*
X213343877Y-55337833D01*
X213498026Y-55273983D01*
X213716026Y-55183684D01*
X214111094Y-55105100D01*
X214513906Y-55105100D01*
X214908974Y-55183684D01*
X214908974Y-55183684D01*
G37*
G36*
X233958974Y-55183684D02*
G01*
X234176974Y-55273983D01*
X234331123Y-55337833D01*
X234666048Y-55561623D01*
X234950877Y-55846452D01*
X235174667Y-56181377D01*
X235207062Y-56259586D01*
X235328816Y-56553526D01*
X235407400Y-56948594D01*
X235407400Y-57351406D01*
X235328816Y-57746474D01*
X235277951Y-57869272D01*
X235174667Y-58118623D01*
X234950877Y-58453548D01*
X234666048Y-58738377D01*
X234331123Y-58962167D01*
X234176974Y-59026017D01*
X233958974Y-59116316D01*
X233563906Y-59194900D01*
X233161094Y-59194900D01*
X232766026Y-59116316D01*
X232548026Y-59026017D01*
X232393877Y-58962167D01*
X232058952Y-58738377D01*
X231774123Y-58453548D01*
X231550333Y-58118623D01*
X231447049Y-57869272D01*
X231396184Y-57746474D01*
X231317600Y-57351406D01*
X231317600Y-56948594D01*
X231396184Y-56553526D01*
X231517938Y-56259586D01*
X231550333Y-56181377D01*
X231774123Y-55846452D01*
X232058952Y-55561623D01*
X232393877Y-55337833D01*
X232548026Y-55273983D01*
X232766026Y-55183684D01*
X233161094Y-55105100D01*
X233563906Y-55105100D01*
X233958974Y-55183684D01*
X233958974Y-55183684D01*
G37*
G36*
X257771474Y-55183684D02*
G01*
X257989474Y-55273983D01*
X258143623Y-55337833D01*
X258478548Y-55561623D01*
X258763377Y-55846452D01*
X258987167Y-56181377D01*
X259019562Y-56259586D01*
X259141316Y-56553526D01*
X259219900Y-56948594D01*
X259219900Y-57351406D01*
X259141316Y-57746474D01*
X259090451Y-57869272D01*
X258987167Y-58118623D01*
X258763377Y-58453548D01*
X258478548Y-58738377D01*
X258143623Y-58962167D01*
X257989474Y-59026017D01*
X257771474Y-59116316D01*
X257376406Y-59194900D01*
X256973594Y-59194900D01*
X256578526Y-59116316D01*
X256360526Y-59026017D01*
X256206377Y-58962167D01*
X255871452Y-58738377D01*
X255586623Y-58453548D01*
X255362833Y-58118623D01*
X255259549Y-57869272D01*
X255208684Y-57746474D01*
X255130100Y-57351406D01*
X255130100Y-56948594D01*
X255208684Y-56553526D01*
X255330438Y-56259586D01*
X255362833Y-56181377D01*
X255586623Y-55846452D01*
X255871452Y-55561623D01*
X256206377Y-55337833D01*
X256360526Y-55273983D01*
X256578526Y-55183684D01*
X256973594Y-55105100D01*
X257376406Y-55105100D01*
X257771474Y-55183684D01*
X257771474Y-55183684D01*
G37*
G36*
X57746474Y-55183684D02*
G01*
X57964474Y-55273983D01*
X58118623Y-55337833D01*
X58453548Y-55561623D01*
X58738377Y-55846452D01*
X58962167Y-56181377D01*
X58994562Y-56259586D01*
X59116316Y-56553526D01*
X59194900Y-56948594D01*
X59194900Y-57351406D01*
X59116316Y-57746474D01*
X59065451Y-57869272D01*
X58962167Y-58118623D01*
X58738377Y-58453548D01*
X58453548Y-58738377D01*
X58118623Y-58962167D01*
X57964474Y-59026017D01*
X57746474Y-59116316D01*
X57351406Y-59194900D01*
X56948594Y-59194900D01*
X56553526Y-59116316D01*
X56335526Y-59026017D01*
X56181377Y-58962167D01*
X55846452Y-58738377D01*
X55561623Y-58453548D01*
X55337833Y-58118623D01*
X55234549Y-57869272D01*
X55183684Y-57746474D01*
X55105100Y-57351406D01*
X55105100Y-56948594D01*
X55183684Y-56553526D01*
X55305438Y-56259586D01*
X55337833Y-56181377D01*
X55561623Y-55846452D01*
X55846452Y-55561623D01*
X56181377Y-55337833D01*
X56335526Y-55273983D01*
X56553526Y-55183684D01*
X56948594Y-55105100D01*
X57351406Y-55105100D01*
X57746474Y-55183684D01*
X57746474Y-55183684D01*
G37*
G36*
X176808974Y-55183684D02*
G01*
X177026974Y-55273983D01*
X177181123Y-55337833D01*
X177516048Y-55561623D01*
X177800877Y-55846452D01*
X178024667Y-56181377D01*
X178057062Y-56259586D01*
X178178816Y-56553526D01*
X178257400Y-56948594D01*
X178257400Y-57351406D01*
X178178816Y-57746474D01*
X178127951Y-57869272D01*
X178024667Y-58118623D01*
X177800877Y-58453548D01*
X177516048Y-58738377D01*
X177181123Y-58962167D01*
X177026974Y-59026017D01*
X176808974Y-59116316D01*
X176413906Y-59194900D01*
X176011094Y-59194900D01*
X175616026Y-59116316D01*
X175398026Y-59026017D01*
X175243877Y-58962167D01*
X174908952Y-58738377D01*
X174624123Y-58453548D01*
X174400333Y-58118623D01*
X174297049Y-57869272D01*
X174246184Y-57746474D01*
X174167600Y-57351406D01*
X174167600Y-56948594D01*
X174246184Y-56553526D01*
X174367938Y-56259586D01*
X174400333Y-56181377D01*
X174624123Y-55846452D01*
X174908952Y-55561623D01*
X175243877Y-55337833D01*
X175398026Y-55273983D01*
X175616026Y-55183684D01*
X176011094Y-55105100D01*
X176413906Y-55105100D01*
X176808974Y-55183684D01*
X176808974Y-55183684D01*
G37*
G36*
X252365104Y-56259585D02*
G01*
X252533626Y-56329389D01*
X252685291Y-56430728D01*
X252814272Y-56559709D01*
X252915611Y-56711374D01*
X252985415Y-56879896D01*
X253021000Y-57058797D01*
X253021000Y-57241203D01*
X252985415Y-57420104D01*
X252915611Y-57588626D01*
X252814272Y-57740291D01*
X252685291Y-57869272D01*
X252533626Y-57970611D01*
X252365104Y-58040415D01*
X252186203Y-58076000D01*
X252003797Y-58076000D01*
X251824896Y-58040415D01*
X251656374Y-57970611D01*
X251504709Y-57869272D01*
X251375728Y-57740291D01*
X251274389Y-57588626D01*
X251204585Y-57420104D01*
X251169000Y-57241203D01*
X251169000Y-57058797D01*
X251204585Y-56879896D01*
X251274389Y-56711374D01*
X251375728Y-56559709D01*
X251504709Y-56430728D01*
X251656374Y-56329389D01*
X251824896Y-56259585D01*
X252003797Y-56224000D01*
X252186203Y-56224000D01*
X252365104Y-56259585D01*
X252365104Y-56259585D01*
G37*
G36*
X238712604Y-56259585D02*
G01*
X238881126Y-56329389D01*
X239032791Y-56430728D01*
X239161772Y-56559709D01*
X239263111Y-56711374D01*
X239332915Y-56879896D01*
X239368500Y-57058797D01*
X239368500Y-57241203D01*
X239332915Y-57420104D01*
X239263111Y-57588626D01*
X239161772Y-57740291D01*
X239032791Y-57869272D01*
X238881126Y-57970611D01*
X238712604Y-58040415D01*
X238533703Y-58076000D01*
X238351297Y-58076000D01*
X238172396Y-58040415D01*
X238003874Y-57970611D01*
X237852209Y-57869272D01*
X237723228Y-57740291D01*
X237621889Y-57588626D01*
X237552085Y-57420104D01*
X237516500Y-57241203D01*
X237516500Y-57058797D01*
X237552085Y-56879896D01*
X237621889Y-56711374D01*
X237723228Y-56559709D01*
X237852209Y-56430728D01*
X238003874Y-56329389D01*
X238172396Y-56259585D01*
X238351297Y-56224000D01*
X238533703Y-56224000D01*
X238712604Y-56259585D01*
X238712604Y-56259585D01*
G37*
G36*
X219662604Y-56259585D02*
G01*
X219831126Y-56329389D01*
X219982791Y-56430728D01*
X220111772Y-56559709D01*
X220213111Y-56711374D01*
X220282915Y-56879896D01*
X220318500Y-57058797D01*
X220318500Y-57241203D01*
X220282915Y-57420104D01*
X220213111Y-57588626D01*
X220111772Y-57740291D01*
X219982791Y-57869272D01*
X219831126Y-57970611D01*
X219662604Y-58040415D01*
X219483703Y-58076000D01*
X219301297Y-58076000D01*
X219122396Y-58040415D01*
X218953874Y-57970611D01*
X218802209Y-57869272D01*
X218673228Y-57740291D01*
X218571889Y-57588626D01*
X218502085Y-57420104D01*
X218466500Y-57241203D01*
X218466500Y-57058797D01*
X218502085Y-56879896D01*
X218571889Y-56711374D01*
X218673228Y-56559709D01*
X218802209Y-56430728D01*
X218953874Y-56329389D01*
X219122396Y-56259585D01*
X219301297Y-56224000D01*
X219483703Y-56224000D01*
X219662604Y-56259585D01*
X219662604Y-56259585D01*
G37*
G36*
X190452604Y-56259585D02*
G01*
X190621126Y-56329389D01*
X190772791Y-56430728D01*
X190901772Y-56559709D01*
X191003111Y-56711374D01*
X191072915Y-56879896D01*
X191108500Y-57058797D01*
X191108500Y-57241203D01*
X191072915Y-57420104D01*
X191003111Y-57588626D01*
X190901772Y-57740291D01*
X190772791Y-57869272D01*
X190621126Y-57970611D01*
X190452604Y-58040415D01*
X190273703Y-58076000D01*
X190091297Y-58076000D01*
X189912396Y-58040415D01*
X189743874Y-57970611D01*
X189592209Y-57869272D01*
X189463228Y-57740291D01*
X189361889Y-57588626D01*
X189292085Y-57420104D01*
X189256500Y-57241203D01*
X189256500Y-57058797D01*
X189292085Y-56879896D01*
X189361889Y-56711374D01*
X189463228Y-56559709D01*
X189592209Y-56430728D01*
X189743874Y-56329389D01*
X189912396Y-56259585D01*
X190091297Y-56224000D01*
X190273703Y-56224000D01*
X190452604Y-56259585D01*
X190452604Y-56259585D01*
G37*
G36*
X228552604Y-56259585D02*
G01*
X228721126Y-56329389D01*
X228872791Y-56430728D01*
X229001772Y-56559709D01*
X229103111Y-56711374D01*
X229172915Y-56879896D01*
X229208500Y-57058797D01*
X229208500Y-57241203D01*
X229172915Y-57420104D01*
X229103111Y-57588626D01*
X229001772Y-57740291D01*
X228872791Y-57869272D01*
X228721126Y-57970611D01*
X228552604Y-58040415D01*
X228373703Y-58076000D01*
X228191297Y-58076000D01*
X228012396Y-58040415D01*
X227843874Y-57970611D01*
X227692209Y-57869272D01*
X227563228Y-57740291D01*
X227461889Y-57588626D01*
X227392085Y-57420104D01*
X227356500Y-57241203D01*
X227356500Y-57058797D01*
X227392085Y-56879896D01*
X227461889Y-56711374D01*
X227563228Y-56559709D01*
X227692209Y-56430728D01*
X227843874Y-56329389D01*
X228012396Y-56259585D01*
X228191297Y-56224000D01*
X228373703Y-56224000D01*
X228552604Y-56259585D01*
X228552604Y-56259585D01*
G37*
G36*
X162512604Y-56259585D02*
G01*
X162681126Y-56329389D01*
X162832791Y-56430728D01*
X162961772Y-56559709D01*
X163063111Y-56711374D01*
X163132915Y-56879896D01*
X163168500Y-57058797D01*
X163168500Y-57241203D01*
X163132915Y-57420104D01*
X163063111Y-57588626D01*
X162961772Y-57740291D01*
X162832791Y-57869272D01*
X162681126Y-57970611D01*
X162512604Y-58040415D01*
X162333703Y-58076000D01*
X162151297Y-58076000D01*
X161972396Y-58040415D01*
X161803874Y-57970611D01*
X161652209Y-57869272D01*
X161523228Y-57740291D01*
X161421889Y-57588626D01*
X161352085Y-57420104D01*
X161316500Y-57241203D01*
X161316500Y-57058797D01*
X161352085Y-56879896D01*
X161421889Y-56711374D01*
X161523228Y-56559709D01*
X161652209Y-56430728D01*
X161803874Y-56329389D01*
X161972396Y-56259585D01*
X162151297Y-56224000D01*
X162333703Y-56224000D01*
X162512604Y-56259585D01*
X162512604Y-56259585D01*
G37*
G36*
X152352604Y-56259585D02*
G01*
X152521126Y-56329389D01*
X152672791Y-56430728D01*
X152801772Y-56559709D01*
X152903111Y-56711374D01*
X152972915Y-56879896D01*
X153008500Y-57058797D01*
X153008500Y-57241203D01*
X152972915Y-57420104D01*
X152903111Y-57588626D01*
X152801772Y-57740291D01*
X152672791Y-57869272D01*
X152521126Y-57970611D01*
X152352604Y-58040415D01*
X152173703Y-58076000D01*
X151991297Y-58076000D01*
X151812396Y-58040415D01*
X151643874Y-57970611D01*
X151492209Y-57869272D01*
X151363228Y-57740291D01*
X151261889Y-57588626D01*
X151192085Y-57420104D01*
X151156500Y-57241203D01*
X151156500Y-57058797D01*
X151192085Y-56879896D01*
X151261889Y-56711374D01*
X151363228Y-56559709D01*
X151492209Y-56430728D01*
X151643874Y-56329389D01*
X151812396Y-56259585D01*
X151991297Y-56224000D01*
X152173703Y-56224000D01*
X152352604Y-56259585D01*
X152352604Y-56259585D01*
G37*
G36*
X181562604Y-56259585D02*
G01*
X181731126Y-56329389D01*
X181882791Y-56430728D01*
X182011772Y-56559709D01*
X182113111Y-56711374D01*
X182182915Y-56879896D01*
X182218500Y-57058797D01*
X182218500Y-57241203D01*
X182182915Y-57420104D01*
X182113111Y-57588626D01*
X182011772Y-57740291D01*
X181882791Y-57869272D01*
X181731126Y-57970611D01*
X181562604Y-58040415D01*
X181383703Y-58076000D01*
X181201297Y-58076000D01*
X181022396Y-58040415D01*
X180853874Y-57970611D01*
X180702209Y-57869272D01*
X180573228Y-57740291D01*
X180471889Y-57588626D01*
X180402085Y-57420104D01*
X180366500Y-57241203D01*
X180366500Y-57058797D01*
X180402085Y-56879896D01*
X180471889Y-56711374D01*
X180573228Y-56559709D01*
X180702209Y-56430728D01*
X180853874Y-56329389D01*
X181022396Y-56259585D01*
X181201297Y-56224000D01*
X181383703Y-56224000D01*
X181562604Y-56259585D01*
X181562604Y-56259585D01*
G37*
G36*
X171402604Y-56259585D02*
G01*
X171571126Y-56329389D01*
X171722791Y-56430728D01*
X171851772Y-56559709D01*
X171953111Y-56711374D01*
X172022915Y-56879896D01*
X172058500Y-57058797D01*
X172058500Y-57241203D01*
X172022915Y-57420104D01*
X171953111Y-57588626D01*
X171851772Y-57740291D01*
X171722791Y-57869272D01*
X171571126Y-57970611D01*
X171402604Y-58040415D01*
X171223703Y-58076000D01*
X171041297Y-58076000D01*
X170862396Y-58040415D01*
X170693874Y-57970611D01*
X170542209Y-57869272D01*
X170413228Y-57740291D01*
X170311889Y-57588626D01*
X170242085Y-57420104D01*
X170206500Y-57241203D01*
X170206500Y-57058797D01*
X170242085Y-56879896D01*
X170311889Y-56711374D01*
X170413228Y-56559709D01*
X170542209Y-56430728D01*
X170693874Y-56329389D01*
X170862396Y-56259585D01*
X171041297Y-56224000D01*
X171223703Y-56224000D01*
X171402604Y-56259585D01*
X171402604Y-56259585D01*
G37*
G36*
X124412604Y-56259585D02*
G01*
X124581126Y-56329389D01*
X124732791Y-56430728D01*
X124861772Y-56559709D01*
X124963111Y-56711374D01*
X125032915Y-56879896D01*
X125068500Y-57058797D01*
X125068500Y-57241203D01*
X125032915Y-57420104D01*
X124963111Y-57588626D01*
X124861772Y-57740291D01*
X124732791Y-57869272D01*
X124581126Y-57970611D01*
X124412604Y-58040415D01*
X124233703Y-58076000D01*
X124051297Y-58076000D01*
X123872396Y-58040415D01*
X123703874Y-57970611D01*
X123552209Y-57869272D01*
X123423228Y-57740291D01*
X123321889Y-57588626D01*
X123252085Y-57420104D01*
X123216500Y-57241203D01*
X123216500Y-57058797D01*
X123252085Y-56879896D01*
X123321889Y-56711374D01*
X123423228Y-56559709D01*
X123552209Y-56430728D01*
X123703874Y-56329389D01*
X123872396Y-56259585D01*
X124051297Y-56224000D01*
X124233703Y-56224000D01*
X124412604Y-56259585D01*
X124412604Y-56259585D01*
G37*
G36*
X262525104Y-56259585D02*
G01*
X262693626Y-56329389D01*
X262845291Y-56430728D01*
X262974272Y-56559709D01*
X263075611Y-56711374D01*
X263145415Y-56879896D01*
X263181000Y-57058797D01*
X263181000Y-57241203D01*
X263145415Y-57420104D01*
X263075611Y-57588626D01*
X262974272Y-57740291D01*
X262845291Y-57869272D01*
X262693626Y-57970611D01*
X262525104Y-58040415D01*
X262346203Y-58076000D01*
X262163797Y-58076000D01*
X261984896Y-58040415D01*
X261816374Y-57970611D01*
X261664709Y-57869272D01*
X261535728Y-57740291D01*
X261434389Y-57588626D01*
X261364585Y-57420104D01*
X261329000Y-57241203D01*
X261329000Y-57058797D01*
X261364585Y-56879896D01*
X261434389Y-56711374D01*
X261535728Y-56559709D01*
X261664709Y-56430728D01*
X261816374Y-56329389D01*
X261984896Y-56259585D01*
X262163797Y-56224000D01*
X262346203Y-56224000D01*
X262525104Y-56259585D01*
X262525104Y-56259585D01*
G37*
G36*
X114252604Y-56259585D02*
G01*
X114421126Y-56329389D01*
X114572791Y-56430728D01*
X114701772Y-56559709D01*
X114803111Y-56711374D01*
X114872915Y-56879896D01*
X114908500Y-57058797D01*
X114908500Y-57241203D01*
X114872915Y-57420104D01*
X114803111Y-57588626D01*
X114701772Y-57740291D01*
X114572791Y-57869272D01*
X114421126Y-57970611D01*
X114252604Y-58040415D01*
X114073703Y-58076000D01*
X113891297Y-58076000D01*
X113712396Y-58040415D01*
X113543874Y-57970611D01*
X113392209Y-57869272D01*
X113263228Y-57740291D01*
X113161889Y-57588626D01*
X113092085Y-57420104D01*
X113056500Y-57241203D01*
X113056500Y-57058797D01*
X113092085Y-56879896D01*
X113161889Y-56711374D01*
X113263228Y-56559709D01*
X113392209Y-56430728D01*
X113543874Y-56329389D01*
X113712396Y-56259585D01*
X113891297Y-56224000D01*
X114073703Y-56224000D01*
X114252604Y-56259585D01*
X114252604Y-56259585D01*
G37*
G36*
X62500104Y-56259585D02*
G01*
X62668626Y-56329389D01*
X62820291Y-56430728D01*
X62949272Y-56559709D01*
X63050611Y-56711374D01*
X63120415Y-56879896D01*
X63156000Y-57058797D01*
X63156000Y-57241203D01*
X63120415Y-57420104D01*
X63050611Y-57588626D01*
X62949272Y-57740291D01*
X62820291Y-57869272D01*
X62668626Y-57970611D01*
X62500104Y-58040415D01*
X62321203Y-58076000D01*
X62138797Y-58076000D01*
X61959896Y-58040415D01*
X61791374Y-57970611D01*
X61639709Y-57869272D01*
X61510728Y-57740291D01*
X61409389Y-57588626D01*
X61339585Y-57420104D01*
X61304000Y-57241203D01*
X61304000Y-57058797D01*
X61339585Y-56879896D01*
X61409389Y-56711374D01*
X61510728Y-56559709D01*
X61639709Y-56430728D01*
X61791374Y-56329389D01*
X61959896Y-56259585D01*
X62138797Y-56224000D01*
X62321203Y-56224000D01*
X62500104Y-56259585D01*
X62500104Y-56259585D01*
G37*
G36*
X209502604Y-56259585D02*
G01*
X209671126Y-56329389D01*
X209822791Y-56430728D01*
X209951772Y-56559709D01*
X210053111Y-56711374D01*
X210122915Y-56879896D01*
X210158500Y-57058797D01*
X210158500Y-57241203D01*
X210122915Y-57420104D01*
X210053111Y-57588626D01*
X209951772Y-57740291D01*
X209822791Y-57869272D01*
X209671126Y-57970611D01*
X209502604Y-58040415D01*
X209323703Y-58076000D01*
X209141297Y-58076000D01*
X208962396Y-58040415D01*
X208793874Y-57970611D01*
X208642209Y-57869272D01*
X208513228Y-57740291D01*
X208411889Y-57588626D01*
X208342085Y-57420104D01*
X208306500Y-57241203D01*
X208306500Y-57058797D01*
X208342085Y-56879896D01*
X208411889Y-56711374D01*
X208513228Y-56559709D01*
X208642209Y-56430728D01*
X208793874Y-56329389D01*
X208962396Y-56259585D01*
X209141297Y-56224000D01*
X209323703Y-56224000D01*
X209502604Y-56259585D01*
X209502604Y-56259585D01*
G37*
G36*
X133302604Y-56259585D02*
G01*
X133471126Y-56329389D01*
X133622791Y-56430728D01*
X133751772Y-56559709D01*
X133853111Y-56711374D01*
X133922915Y-56879896D01*
X133958500Y-57058797D01*
X133958500Y-57241203D01*
X133922915Y-57420104D01*
X133853111Y-57588626D01*
X133751772Y-57740291D01*
X133622791Y-57869272D01*
X133471126Y-57970611D01*
X133302604Y-58040415D01*
X133123703Y-58076000D01*
X132941297Y-58076000D01*
X132762396Y-58040415D01*
X132593874Y-57970611D01*
X132442209Y-57869272D01*
X132313228Y-57740291D01*
X132211889Y-57588626D01*
X132142085Y-57420104D01*
X132106500Y-57241203D01*
X132106500Y-57058797D01*
X132142085Y-56879896D01*
X132211889Y-56711374D01*
X132313228Y-56559709D01*
X132442209Y-56430728D01*
X132593874Y-56329389D01*
X132762396Y-56259585D01*
X132941297Y-56224000D01*
X133123703Y-56224000D01*
X133302604Y-56259585D01*
X133302604Y-56259585D01*
G37*
G36*
X52340104Y-56259585D02*
G01*
X52508626Y-56329389D01*
X52660291Y-56430728D01*
X52789272Y-56559709D01*
X52890611Y-56711374D01*
X52960415Y-56879896D01*
X52996000Y-57058797D01*
X52996000Y-57241203D01*
X52960415Y-57420104D01*
X52890611Y-57588626D01*
X52789272Y-57740291D01*
X52660291Y-57869272D01*
X52508626Y-57970611D01*
X52340104Y-58040415D01*
X52161203Y-58076000D01*
X51978797Y-58076000D01*
X51799896Y-58040415D01*
X51631374Y-57970611D01*
X51479709Y-57869272D01*
X51350728Y-57740291D01*
X51249389Y-57588626D01*
X51179585Y-57420104D01*
X51144000Y-57241203D01*
X51144000Y-57058797D01*
X51179585Y-56879896D01*
X51249389Y-56711374D01*
X51350728Y-56559709D01*
X51479709Y-56430728D01*
X51631374Y-56329389D01*
X51799896Y-56259585D01*
X51978797Y-56224000D01*
X52161203Y-56224000D01*
X52340104Y-56259585D01*
X52340104Y-56259585D01*
G37*
G36*
X105362604Y-56259585D02*
G01*
X105531126Y-56329389D01*
X105682791Y-56430728D01*
X105811772Y-56559709D01*
X105913111Y-56711374D01*
X105982915Y-56879896D01*
X106018500Y-57058797D01*
X106018500Y-57241203D01*
X105982915Y-57420104D01*
X105913111Y-57588626D01*
X105811772Y-57740291D01*
X105682791Y-57869272D01*
X105531126Y-57970611D01*
X105362604Y-58040415D01*
X105183703Y-58076000D01*
X105001297Y-58076000D01*
X104822396Y-58040415D01*
X104653874Y-57970611D01*
X104502209Y-57869272D01*
X104373228Y-57740291D01*
X104271889Y-57588626D01*
X104202085Y-57420104D01*
X104166500Y-57241203D01*
X104166500Y-57058797D01*
X104202085Y-56879896D01*
X104271889Y-56711374D01*
X104373228Y-56559709D01*
X104502209Y-56430728D01*
X104653874Y-56329389D01*
X104822396Y-56259585D01*
X105001297Y-56224000D01*
X105183703Y-56224000D01*
X105362604Y-56259585D01*
X105362604Y-56259585D01*
G37*
G36*
X76152604Y-56259585D02*
G01*
X76321126Y-56329389D01*
X76472791Y-56430728D01*
X76601772Y-56559709D01*
X76703111Y-56711374D01*
X76772915Y-56879896D01*
X76808500Y-57058797D01*
X76808500Y-57241203D01*
X76772915Y-57420104D01*
X76703111Y-57588626D01*
X76601772Y-57740291D01*
X76472791Y-57869272D01*
X76321126Y-57970611D01*
X76152604Y-58040415D01*
X75973703Y-58076000D01*
X75791297Y-58076000D01*
X75612396Y-58040415D01*
X75443874Y-57970611D01*
X75292209Y-57869272D01*
X75163228Y-57740291D01*
X75061889Y-57588626D01*
X74992085Y-57420104D01*
X74956500Y-57241203D01*
X74956500Y-57058797D01*
X74992085Y-56879896D01*
X75061889Y-56711374D01*
X75163228Y-56559709D01*
X75292209Y-56430728D01*
X75443874Y-56329389D01*
X75612396Y-56259585D01*
X75791297Y-56224000D01*
X75973703Y-56224000D01*
X76152604Y-56259585D01*
X76152604Y-56259585D01*
G37*
G36*
X86312604Y-56259585D02*
G01*
X86481126Y-56329389D01*
X86632791Y-56430728D01*
X86761772Y-56559709D01*
X86863111Y-56711374D01*
X86932915Y-56879896D01*
X86968500Y-57058797D01*
X86968500Y-57241203D01*
X86932915Y-57420104D01*
X86863111Y-57588626D01*
X86761772Y-57740291D01*
X86632791Y-57869272D01*
X86481126Y-57970611D01*
X86312604Y-58040415D01*
X86133703Y-58076000D01*
X85951297Y-58076000D01*
X85772396Y-58040415D01*
X85603874Y-57970611D01*
X85452209Y-57869272D01*
X85323228Y-57740291D01*
X85221889Y-57588626D01*
X85152085Y-57420104D01*
X85116500Y-57241203D01*
X85116500Y-57058797D01*
X85152085Y-56879896D01*
X85221889Y-56711374D01*
X85323228Y-56559709D01*
X85452209Y-56430728D01*
X85603874Y-56329389D01*
X85772396Y-56259585D01*
X85951297Y-56224000D01*
X86133703Y-56224000D01*
X86312604Y-56259585D01*
X86312604Y-56259585D01*
G37*
G36*
X95202604Y-56259585D02*
G01*
X95371126Y-56329389D01*
X95522791Y-56430728D01*
X95651772Y-56559709D01*
X95753111Y-56711374D01*
X95822915Y-56879896D01*
X95858500Y-57058797D01*
X95858500Y-57241203D01*
X95822915Y-57420104D01*
X95753111Y-57588626D01*
X95651772Y-57740291D01*
X95522791Y-57869272D01*
X95371126Y-57970611D01*
X95202604Y-58040415D01*
X95023703Y-58076000D01*
X94841297Y-58076000D01*
X94662396Y-58040415D01*
X94493874Y-57970611D01*
X94342209Y-57869272D01*
X94213228Y-57740291D01*
X94111889Y-57588626D01*
X94042085Y-57420104D01*
X94006500Y-57241203D01*
X94006500Y-57058797D01*
X94042085Y-56879896D01*
X94111889Y-56711374D01*
X94213228Y-56559709D01*
X94342209Y-56430728D01*
X94493874Y-56329389D01*
X94662396Y-56259585D01*
X94841297Y-56224000D01*
X95023703Y-56224000D01*
X95202604Y-56259585D01*
X95202604Y-56259585D01*
G37*
G36*
X143462604Y-56259585D02*
G01*
X143631126Y-56329389D01*
X143782791Y-56430728D01*
X143911772Y-56559709D01*
X144013111Y-56711374D01*
X144082915Y-56879896D01*
X144118500Y-57058797D01*
X144118500Y-57241203D01*
X144082915Y-57420104D01*
X144013111Y-57588626D01*
X143911772Y-57740291D01*
X143782791Y-57869272D01*
X143631126Y-57970611D01*
X143462604Y-58040415D01*
X143283703Y-58076000D01*
X143101297Y-58076000D01*
X142922396Y-58040415D01*
X142753874Y-57970611D01*
X142602209Y-57869272D01*
X142473228Y-57740291D01*
X142371889Y-57588626D01*
X142302085Y-57420104D01*
X142266500Y-57241203D01*
X142266500Y-57058797D01*
X142302085Y-56879896D01*
X142371889Y-56711374D01*
X142473228Y-56559709D01*
X142602209Y-56430728D01*
X142753874Y-56329389D01*
X142922396Y-56259585D01*
X143101297Y-56224000D01*
X143283703Y-56224000D01*
X143462604Y-56259585D01*
X143462604Y-56259585D01*
G37*
G36*
X200612604Y-56259585D02*
G01*
X200781126Y-56329389D01*
X200932791Y-56430728D01*
X201061772Y-56559709D01*
X201163111Y-56711374D01*
X201232915Y-56879896D01*
X201268500Y-57058797D01*
X201268500Y-57241203D01*
X201232915Y-57420104D01*
X201163111Y-57588626D01*
X201061772Y-57740291D01*
X200932791Y-57869272D01*
X200781126Y-57970611D01*
X200612604Y-58040415D01*
X200433703Y-58076000D01*
X200251297Y-58076000D01*
X200072396Y-58040415D01*
X199903874Y-57970611D01*
X199752209Y-57869272D01*
X199623228Y-57740291D01*
X199521889Y-57588626D01*
X199452085Y-57420104D01*
X199416500Y-57241203D01*
X199416500Y-57058797D01*
X199452085Y-56879896D01*
X199521889Y-56711374D01*
X199623228Y-56559709D01*
X199752209Y-56430728D01*
X199903874Y-56329389D01*
X200072396Y-56259585D01*
X200251297Y-56224000D01*
X200433703Y-56224000D01*
X200612604Y-56259585D01*
X200612604Y-56259585D01*
G37*
G36*
X66048073Y-52660063D02*
G01*
X66208492Y-52708726D01*
X66341156Y-52779636D01*
X66356328Y-52787746D01*
X66485909Y-52894091D01*
X66592254Y-53023672D01*
X66592255Y-53023674D01*
X66671274Y-53171508D01*
X66719937Y-53331927D01*
X66736367Y-53498750D01*
X66719937Y-53665573D01*
X66671274Y-53825992D01*
X66600364Y-53958656D01*
X66592254Y-53973828D01*
X66485909Y-54103409D01*
X66356328Y-54209754D01*
X66356326Y-54209755D01*
X66208492Y-54288774D01*
X66048073Y-54337437D01*
X65923054Y-54349750D01*
X65839446Y-54349750D01*
X65714427Y-54337437D01*
X65554008Y-54288774D01*
X65406174Y-54209755D01*
X65406172Y-54209754D01*
X65276591Y-54103409D01*
X65170246Y-53973828D01*
X65162136Y-53958656D01*
X65091226Y-53825992D01*
X65042563Y-53665573D01*
X65026133Y-53498750D01*
X65042563Y-53331927D01*
X65091226Y-53171508D01*
X65170245Y-53023674D01*
X65170246Y-53023672D01*
X65276591Y-52894091D01*
X65406172Y-52787746D01*
X65421344Y-52779636D01*
X65554008Y-52708726D01*
X65714427Y-52660063D01*
X65839446Y-52647750D01*
X65923054Y-52647750D01*
X66048073Y-52660063D01*
X66048073Y-52660063D01*
G37*
G36*
X166060573Y-52660063D02*
G01*
X166220992Y-52708726D01*
X166353656Y-52779636D01*
X166368828Y-52787746D01*
X166498409Y-52894091D01*
X166604754Y-53023672D01*
X166604755Y-53023674D01*
X166683774Y-53171508D01*
X166732437Y-53331927D01*
X166748867Y-53498750D01*
X166732437Y-53665573D01*
X166683774Y-53825992D01*
X166612864Y-53958656D01*
X166604754Y-53973828D01*
X166498409Y-54103409D01*
X166368828Y-54209754D01*
X166368826Y-54209755D01*
X166220992Y-54288774D01*
X166060573Y-54337437D01*
X165935554Y-54349750D01*
X165851946Y-54349750D01*
X165726927Y-54337437D01*
X165566508Y-54288774D01*
X165418674Y-54209755D01*
X165418672Y-54209754D01*
X165289091Y-54103409D01*
X165182746Y-53973828D01*
X165174636Y-53958656D01*
X165103726Y-53825992D01*
X165055063Y-53665573D01*
X165038633Y-53498750D01*
X165055063Y-53331927D01*
X165103726Y-53171508D01*
X165182745Y-53023674D01*
X165182746Y-53023672D01*
X165289091Y-52894091D01*
X165418672Y-52787746D01*
X165433844Y-52779636D01*
X165566508Y-52708726D01*
X165726927Y-52660063D01*
X165851946Y-52647750D01*
X165935554Y-52647750D01*
X166060573Y-52660063D01*
X166060573Y-52660063D01*
G37*
G36*
X185110573Y-52660063D02*
G01*
X185270992Y-52708726D01*
X185403656Y-52779636D01*
X185418828Y-52787746D01*
X185548409Y-52894091D01*
X185654754Y-53023672D01*
X185654755Y-53023674D01*
X185733774Y-53171508D01*
X185782437Y-53331927D01*
X185798867Y-53498750D01*
X185782437Y-53665573D01*
X185733774Y-53825992D01*
X185662864Y-53958656D01*
X185654754Y-53973828D01*
X185548409Y-54103409D01*
X185418828Y-54209754D01*
X185418826Y-54209755D01*
X185270992Y-54288774D01*
X185110573Y-54337437D01*
X184985554Y-54349750D01*
X184901946Y-54349750D01*
X184776927Y-54337437D01*
X184616508Y-54288774D01*
X184468674Y-54209755D01*
X184468672Y-54209754D01*
X184339091Y-54103409D01*
X184232746Y-53973828D01*
X184224636Y-53958656D01*
X184153726Y-53825992D01*
X184105063Y-53665573D01*
X184088633Y-53498750D01*
X184105063Y-53331927D01*
X184153726Y-53171508D01*
X184232745Y-53023674D01*
X184232746Y-53023672D01*
X184339091Y-52894091D01*
X184468672Y-52787746D01*
X184483844Y-52779636D01*
X184616508Y-52708726D01*
X184776927Y-52660063D01*
X184901946Y-52647750D01*
X184985554Y-52647750D01*
X185110573Y-52660063D01*
X185110573Y-52660063D01*
G37*
G36*
X204160573Y-52660063D02*
G01*
X204320992Y-52708726D01*
X204453656Y-52779636D01*
X204468828Y-52787746D01*
X204598409Y-52894091D01*
X204704754Y-53023672D01*
X204704755Y-53023674D01*
X204783774Y-53171508D01*
X204832437Y-53331927D01*
X204848867Y-53498750D01*
X204832437Y-53665573D01*
X204783774Y-53825992D01*
X204712864Y-53958656D01*
X204704754Y-53973828D01*
X204598409Y-54103409D01*
X204468828Y-54209754D01*
X204468826Y-54209755D01*
X204320992Y-54288774D01*
X204160573Y-54337437D01*
X204035554Y-54349750D01*
X203951946Y-54349750D01*
X203826927Y-54337437D01*
X203666508Y-54288774D01*
X203518674Y-54209755D01*
X203518672Y-54209754D01*
X203389091Y-54103409D01*
X203282746Y-53973828D01*
X203274636Y-53958656D01*
X203203726Y-53825992D01*
X203155063Y-53665573D01*
X203138633Y-53498750D01*
X203155063Y-53331927D01*
X203203726Y-53171508D01*
X203282745Y-53023674D01*
X203282746Y-53023672D01*
X203389091Y-52894091D01*
X203518672Y-52787746D01*
X203533844Y-52779636D01*
X203666508Y-52708726D01*
X203826927Y-52660063D01*
X203951946Y-52647750D01*
X204035554Y-52647750D01*
X204160573Y-52660063D01*
X204160573Y-52660063D01*
G37*
G36*
X223210573Y-52660063D02*
G01*
X223370992Y-52708726D01*
X223503656Y-52779636D01*
X223518828Y-52787746D01*
X223648409Y-52894091D01*
X223754754Y-53023672D01*
X223754755Y-53023674D01*
X223833774Y-53171508D01*
X223882437Y-53331927D01*
X223898867Y-53498750D01*
X223882437Y-53665573D01*
X223833774Y-53825992D01*
X223762864Y-53958656D01*
X223754754Y-53973828D01*
X223648409Y-54103409D01*
X223518828Y-54209754D01*
X223518826Y-54209755D01*
X223370992Y-54288774D01*
X223210573Y-54337437D01*
X223085554Y-54349750D01*
X223001946Y-54349750D01*
X222876927Y-54337437D01*
X222716508Y-54288774D01*
X222568674Y-54209755D01*
X222568672Y-54209754D01*
X222439091Y-54103409D01*
X222332746Y-53973828D01*
X222324636Y-53958656D01*
X222253726Y-53825992D01*
X222205063Y-53665573D01*
X222188633Y-53498750D01*
X222205063Y-53331927D01*
X222253726Y-53171508D01*
X222332745Y-53023674D01*
X222332746Y-53023672D01*
X222439091Y-52894091D01*
X222568672Y-52787746D01*
X222583844Y-52779636D01*
X222716508Y-52708726D01*
X222876927Y-52660063D01*
X223001946Y-52647750D01*
X223085554Y-52647750D01*
X223210573Y-52660063D01*
X223210573Y-52660063D01*
G37*
G36*
X242260573Y-52660063D02*
G01*
X242420992Y-52708726D01*
X242553656Y-52779636D01*
X242568828Y-52787746D01*
X242698409Y-52894091D01*
X242804754Y-53023672D01*
X242804755Y-53023674D01*
X242883774Y-53171508D01*
X242932437Y-53331927D01*
X242948867Y-53498750D01*
X242932437Y-53665573D01*
X242883774Y-53825992D01*
X242812864Y-53958656D01*
X242804754Y-53973828D01*
X242698409Y-54103409D01*
X242568828Y-54209754D01*
X242568826Y-54209755D01*
X242420992Y-54288774D01*
X242260573Y-54337437D01*
X242135554Y-54349750D01*
X242051946Y-54349750D01*
X241926927Y-54337437D01*
X241766508Y-54288774D01*
X241618674Y-54209755D01*
X241618672Y-54209754D01*
X241489091Y-54103409D01*
X241382746Y-53973828D01*
X241374636Y-53958656D01*
X241303726Y-53825992D01*
X241255063Y-53665573D01*
X241238633Y-53498750D01*
X241255063Y-53331927D01*
X241303726Y-53171508D01*
X241382745Y-53023674D01*
X241382746Y-53023672D01*
X241489091Y-52894091D01*
X241618672Y-52787746D01*
X241633844Y-52779636D01*
X241766508Y-52708726D01*
X241926927Y-52660063D01*
X242051946Y-52647750D01*
X242135554Y-52647750D01*
X242260573Y-52660063D01*
X242260573Y-52660063D01*
G37*
G36*
X127960573Y-52660063D02*
G01*
X128120992Y-52708726D01*
X128253656Y-52779636D01*
X128268828Y-52787746D01*
X128398409Y-52894091D01*
X128504754Y-53023672D01*
X128504755Y-53023674D01*
X128583774Y-53171508D01*
X128632437Y-53331927D01*
X128648867Y-53498750D01*
X128632437Y-53665573D01*
X128583774Y-53825992D01*
X128512864Y-53958656D01*
X128504754Y-53973828D01*
X128398409Y-54103409D01*
X128268828Y-54209754D01*
X128268826Y-54209755D01*
X128120992Y-54288774D01*
X127960573Y-54337437D01*
X127835554Y-54349750D01*
X127751946Y-54349750D01*
X127626927Y-54337437D01*
X127466508Y-54288774D01*
X127318674Y-54209755D01*
X127318672Y-54209754D01*
X127189091Y-54103409D01*
X127082746Y-53973828D01*
X127074636Y-53958656D01*
X127003726Y-53825992D01*
X126955063Y-53665573D01*
X126938633Y-53498750D01*
X126955063Y-53331927D01*
X127003726Y-53171508D01*
X127082745Y-53023674D01*
X127082746Y-53023672D01*
X127189091Y-52894091D01*
X127318672Y-52787746D01*
X127333844Y-52779636D01*
X127466508Y-52708726D01*
X127626927Y-52660063D01*
X127751946Y-52647750D01*
X127835554Y-52647750D01*
X127960573Y-52660063D01*
X127960573Y-52660063D01*
G37*
G36*
X108910573Y-52660063D02*
G01*
X109070992Y-52708726D01*
X109203656Y-52779636D01*
X109218828Y-52787746D01*
X109348409Y-52894091D01*
X109454754Y-53023672D01*
X109454755Y-53023674D01*
X109533774Y-53171508D01*
X109582437Y-53331927D01*
X109598867Y-53498750D01*
X109582437Y-53665573D01*
X109533774Y-53825992D01*
X109462864Y-53958656D01*
X109454754Y-53973828D01*
X109348409Y-54103409D01*
X109218828Y-54209754D01*
X109218826Y-54209755D01*
X109070992Y-54288774D01*
X108910573Y-54337437D01*
X108785554Y-54349750D01*
X108701946Y-54349750D01*
X108576927Y-54337437D01*
X108416508Y-54288774D01*
X108268674Y-54209755D01*
X108268672Y-54209754D01*
X108139091Y-54103409D01*
X108032746Y-53973828D01*
X108024636Y-53958656D01*
X107953726Y-53825992D01*
X107905063Y-53665573D01*
X107888633Y-53498750D01*
X107905063Y-53331927D01*
X107953726Y-53171508D01*
X108032745Y-53023674D01*
X108032746Y-53023672D01*
X108139091Y-52894091D01*
X108268672Y-52787746D01*
X108283844Y-52779636D01*
X108416508Y-52708726D01*
X108576927Y-52660063D01*
X108701946Y-52647750D01*
X108785554Y-52647750D01*
X108910573Y-52660063D01*
X108910573Y-52660063D01*
G37*
G36*
X89860573Y-52660063D02*
G01*
X90020992Y-52708726D01*
X90153656Y-52779636D01*
X90168828Y-52787746D01*
X90298409Y-52894091D01*
X90404754Y-53023672D01*
X90404755Y-53023674D01*
X90483774Y-53171508D01*
X90532437Y-53331927D01*
X90548867Y-53498750D01*
X90532437Y-53665573D01*
X90483774Y-53825992D01*
X90412864Y-53958656D01*
X90404754Y-53973828D01*
X90298409Y-54103409D01*
X90168828Y-54209754D01*
X90168826Y-54209755D01*
X90020992Y-54288774D01*
X89860573Y-54337437D01*
X89735554Y-54349750D01*
X89651946Y-54349750D01*
X89526927Y-54337437D01*
X89366508Y-54288774D01*
X89218674Y-54209755D01*
X89218672Y-54209754D01*
X89089091Y-54103409D01*
X88982746Y-53973828D01*
X88974636Y-53958656D01*
X88903726Y-53825992D01*
X88855063Y-53665573D01*
X88838633Y-53498750D01*
X88855063Y-53331927D01*
X88903726Y-53171508D01*
X88982745Y-53023674D01*
X88982746Y-53023672D01*
X89089091Y-52894091D01*
X89218672Y-52787746D01*
X89233844Y-52779636D01*
X89366508Y-52708726D01*
X89526927Y-52660063D01*
X89651946Y-52647750D01*
X89735554Y-52647750D01*
X89860573Y-52660063D01*
X89860573Y-52660063D01*
G37*
G36*
X266073073Y-52660063D02*
G01*
X266233492Y-52708726D01*
X266366156Y-52779636D01*
X266381328Y-52787746D01*
X266510909Y-52894091D01*
X266617254Y-53023672D01*
X266617255Y-53023674D01*
X266696274Y-53171508D01*
X266744937Y-53331927D01*
X266761367Y-53498750D01*
X266744937Y-53665573D01*
X266696274Y-53825992D01*
X266625364Y-53958656D01*
X266617254Y-53973828D01*
X266510909Y-54103409D01*
X266381328Y-54209754D01*
X266381326Y-54209755D01*
X266233492Y-54288774D01*
X266073073Y-54337437D01*
X265948054Y-54349750D01*
X265864446Y-54349750D01*
X265739427Y-54337437D01*
X265579008Y-54288774D01*
X265431174Y-54209755D01*
X265431172Y-54209754D01*
X265301591Y-54103409D01*
X265195246Y-53973828D01*
X265187136Y-53958656D01*
X265116226Y-53825992D01*
X265067563Y-53665573D01*
X265051133Y-53498750D01*
X265067563Y-53331927D01*
X265116226Y-53171508D01*
X265195245Y-53023674D01*
X265195246Y-53023672D01*
X265301591Y-52894091D01*
X265431172Y-52787746D01*
X265446344Y-52779636D01*
X265579008Y-52708726D01*
X265739427Y-52660063D01*
X265864446Y-52647750D01*
X265948054Y-52647750D01*
X266073073Y-52660063D01*
X266073073Y-52660063D01*
G37*
G36*
X147010573Y-52660063D02*
G01*
X147170992Y-52708726D01*
X147303656Y-52779636D01*
X147318828Y-52787746D01*
X147448409Y-52894091D01*
X147554754Y-53023672D01*
X147554755Y-53023674D01*
X147633774Y-53171508D01*
X147682437Y-53331927D01*
X147698867Y-53498750D01*
X147682437Y-53665573D01*
X147633774Y-53825992D01*
X147562864Y-53958656D01*
X147554754Y-53973828D01*
X147448409Y-54103409D01*
X147318828Y-54209754D01*
X147318826Y-54209755D01*
X147170992Y-54288774D01*
X147010573Y-54337437D01*
X146885554Y-54349750D01*
X146801946Y-54349750D01*
X146676927Y-54337437D01*
X146516508Y-54288774D01*
X146368674Y-54209755D01*
X146368672Y-54209754D01*
X146239091Y-54103409D01*
X146132746Y-53973828D01*
X146124636Y-53958656D01*
X146053726Y-53825992D01*
X146005063Y-53665573D01*
X145988633Y-53498750D01*
X146005063Y-53331927D01*
X146053726Y-53171508D01*
X146132745Y-53023674D01*
X146132746Y-53023672D01*
X146239091Y-52894091D01*
X146368672Y-52787746D01*
X146383844Y-52779636D01*
X146516508Y-52708726D01*
X146676927Y-52660063D01*
X146801946Y-52647750D01*
X146885554Y-52647750D01*
X147010573Y-52660063D01*
X147010573Y-52660063D01*
G37*
G36*
X60912983Y-48638335D02*
G01*
X61081740Y-48708236D01*
X61233618Y-48809718D01*
X61362782Y-48938882D01*
X61464264Y-49090760D01*
X61534165Y-49259517D01*
X61569800Y-49438668D01*
X61569800Y-49621332D01*
X61534165Y-49800483D01*
X61464264Y-49969240D01*
X61362782Y-50121118D01*
X61233618Y-50250282D01*
X61081740Y-50351764D01*
X60912983Y-50421665D01*
X60733832Y-50457300D01*
X60551168Y-50457300D01*
X60372017Y-50421665D01*
X60203260Y-50351764D01*
X60051382Y-50250282D01*
X59922218Y-50121118D01*
X59820736Y-49969240D01*
X59750835Y-49800483D01*
X59715200Y-49621332D01*
X59715200Y-49438668D01*
X59750835Y-49259517D01*
X59820736Y-49090760D01*
X59922218Y-48938882D01*
X60051382Y-48809718D01*
X60203260Y-48708236D01*
X60372017Y-48638335D01*
X60551168Y-48602700D01*
X60733832Y-48602700D01*
X60912983Y-48638335D01*
X60912983Y-48638335D01*
G37*
G36*
X71072983Y-48638335D02*
G01*
X71241740Y-48708236D01*
X71393618Y-48809718D01*
X71522782Y-48938882D01*
X71624264Y-49090760D01*
X71694165Y-49259517D01*
X71729800Y-49438668D01*
X71729800Y-49621332D01*
X71694165Y-49800483D01*
X71624264Y-49969240D01*
X71522782Y-50121118D01*
X71393618Y-50250282D01*
X71241740Y-50351764D01*
X71072983Y-50421665D01*
X70893832Y-50457300D01*
X70711168Y-50457300D01*
X70532017Y-50421665D01*
X70363260Y-50351764D01*
X70211382Y-50250282D01*
X70082218Y-50121118D01*
X69980736Y-49969240D01*
X69910835Y-49800483D01*
X69875200Y-49621332D01*
X69875200Y-49438668D01*
X69910835Y-49259517D01*
X69980736Y-49090760D01*
X70082218Y-48938882D01*
X70211382Y-48809718D01*
X70363260Y-48708236D01*
X70532017Y-48638335D01*
X70711168Y-48602700D01*
X70893832Y-48602700D01*
X71072983Y-48638335D01*
X71072983Y-48638335D01*
G37*
G36*
X76152983Y-48638335D02*
G01*
X76321740Y-48708236D01*
X76473618Y-48809718D01*
X76602782Y-48938882D01*
X76704264Y-49090760D01*
X76774165Y-49259517D01*
X76809800Y-49438668D01*
X76809800Y-49621332D01*
X76774165Y-49800483D01*
X76704264Y-49969240D01*
X76602782Y-50121118D01*
X76473618Y-50250282D01*
X76321740Y-50351764D01*
X76152983Y-50421665D01*
X75973832Y-50457300D01*
X75791168Y-50457300D01*
X75612017Y-50421665D01*
X75443260Y-50351764D01*
X75291382Y-50250282D01*
X75162218Y-50121118D01*
X75060736Y-49969240D01*
X74990835Y-49800483D01*
X74955200Y-49621332D01*
X74955200Y-49438668D01*
X74990835Y-49259517D01*
X75060736Y-49090760D01*
X75162218Y-48938882D01*
X75291382Y-48809718D01*
X75443260Y-48708236D01*
X75612017Y-48638335D01*
X75791168Y-48602700D01*
X75973832Y-48602700D01*
X76152983Y-48638335D01*
X76152983Y-48638335D01*
G37*
G36*
X65992983Y-48638335D02*
G01*
X66161740Y-48708236D01*
X66313618Y-48809718D01*
X66442782Y-48938882D01*
X66544264Y-49090760D01*
X66614165Y-49259517D01*
X66649800Y-49438668D01*
X66649800Y-49621332D01*
X66614165Y-49800483D01*
X66544264Y-49969240D01*
X66442782Y-50121118D01*
X66313618Y-50250282D01*
X66161740Y-50351764D01*
X65992983Y-50421665D01*
X65813832Y-50457300D01*
X65631168Y-50457300D01*
X65452017Y-50421665D01*
X65283260Y-50351764D01*
X65131382Y-50250282D01*
X65002218Y-50121118D01*
X64900736Y-49969240D01*
X64830835Y-49800483D01*
X64795200Y-49621332D01*
X64795200Y-49438668D01*
X64830835Y-49259517D01*
X64900736Y-49090760D01*
X65002218Y-48938882D01*
X65131382Y-48809718D01*
X65283260Y-48708236D01*
X65452017Y-48638335D01*
X65631168Y-48602700D01*
X65813832Y-48602700D01*
X65992983Y-48638335D01*
X65992983Y-48638335D01*
G37*
G36*
X63452983Y-48638335D02*
G01*
X63621740Y-48708236D01*
X63773618Y-48809718D01*
X63902782Y-48938882D01*
X64004264Y-49090760D01*
X64074165Y-49259517D01*
X64109800Y-49438668D01*
X64109800Y-49621332D01*
X64074165Y-49800483D01*
X64004264Y-49969240D01*
X63902782Y-50121118D01*
X63773618Y-50250282D01*
X63621740Y-50351764D01*
X63452983Y-50421665D01*
X63273832Y-50457300D01*
X63091168Y-50457300D01*
X62912017Y-50421665D01*
X62743260Y-50351764D01*
X62591382Y-50250282D01*
X62462218Y-50121118D01*
X62360736Y-49969240D01*
X62290835Y-49800483D01*
X62255200Y-49621332D01*
X62255200Y-49438668D01*
X62290835Y-49259517D01*
X62360736Y-49090760D01*
X62462218Y-48938882D01*
X62591382Y-48809718D01*
X62743260Y-48708236D01*
X62912017Y-48638335D01*
X63091168Y-48602700D01*
X63273832Y-48602700D01*
X63452983Y-48638335D01*
X63452983Y-48638335D01*
G37*
G36*
X58372983Y-48638335D02*
G01*
X58541740Y-48708236D01*
X58693618Y-48809718D01*
X58822782Y-48938882D01*
X58924264Y-49090760D01*
X58994165Y-49259517D01*
X59029800Y-49438668D01*
X59029800Y-49621332D01*
X58994165Y-49800483D01*
X58924264Y-49969240D01*
X58822782Y-50121118D01*
X58693618Y-50250282D01*
X58541740Y-50351764D01*
X58372983Y-50421665D01*
X58193832Y-50457300D01*
X58011168Y-50457300D01*
X57832017Y-50421665D01*
X57663260Y-50351764D01*
X57511382Y-50250282D01*
X57382218Y-50121118D01*
X57280736Y-49969240D01*
X57210835Y-49800483D01*
X57175200Y-49621332D01*
X57175200Y-49438668D01*
X57210835Y-49259517D01*
X57280736Y-49090760D01*
X57382218Y-48938882D01*
X57511382Y-48809718D01*
X57663260Y-48708236D01*
X57832017Y-48638335D01*
X58011168Y-48602700D01*
X58193832Y-48602700D01*
X58372983Y-48638335D01*
X58372983Y-48638335D01*
G37*
G36*
X55832983Y-48638335D02*
G01*
X56001740Y-48708236D01*
X56153618Y-48809718D01*
X56282782Y-48938882D01*
X56384264Y-49090760D01*
X56454165Y-49259517D01*
X56489800Y-49438668D01*
X56489800Y-49621332D01*
X56454165Y-49800483D01*
X56384264Y-49969240D01*
X56282782Y-50121118D01*
X56153618Y-50250282D01*
X56001740Y-50351764D01*
X55832983Y-50421665D01*
X55653832Y-50457300D01*
X55471168Y-50457300D01*
X55292017Y-50421665D01*
X55123260Y-50351764D01*
X54971382Y-50250282D01*
X54842218Y-50121118D01*
X54740736Y-49969240D01*
X54670835Y-49800483D01*
X54635200Y-49621332D01*
X54635200Y-49438668D01*
X54670835Y-49259517D01*
X54740736Y-49090760D01*
X54842218Y-48938882D01*
X54971382Y-48809718D01*
X55123260Y-48708236D01*
X55292017Y-48638335D01*
X55471168Y-48602700D01*
X55653832Y-48602700D01*
X55832983Y-48638335D01*
X55832983Y-48638335D01*
G37*
G36*
X53292983Y-48638335D02*
G01*
X53461740Y-48708236D01*
X53613618Y-48809718D01*
X53742782Y-48938882D01*
X53844264Y-49090760D01*
X53914165Y-49259517D01*
X53949800Y-49438668D01*
X53949800Y-49621332D01*
X53914165Y-49800483D01*
X53844264Y-49969240D01*
X53742782Y-50121118D01*
X53613618Y-50250282D01*
X53461740Y-50351764D01*
X53292983Y-50421665D01*
X53113832Y-50457300D01*
X52931168Y-50457300D01*
X52752017Y-50421665D01*
X52583260Y-50351764D01*
X52431382Y-50250282D01*
X52302218Y-50121118D01*
X52200736Y-49969240D01*
X52130835Y-49800483D01*
X52095200Y-49621332D01*
X52095200Y-49438668D01*
X52130835Y-49259517D01*
X52200736Y-49090760D01*
X52302218Y-48938882D01*
X52431382Y-48809718D01*
X52583260Y-48708236D01*
X52752017Y-48638335D01*
X52931168Y-48602700D01*
X53113832Y-48602700D01*
X53292983Y-48638335D01*
X53292983Y-48638335D01*
G37*
G36*
X50752983Y-48638335D02*
G01*
X50921740Y-48708236D01*
X51073618Y-48809718D01*
X51202782Y-48938882D01*
X51304264Y-49090760D01*
X51374165Y-49259517D01*
X51409800Y-49438668D01*
X51409800Y-49621332D01*
X51374165Y-49800483D01*
X51304264Y-49969240D01*
X51202782Y-50121118D01*
X51073618Y-50250282D01*
X50921740Y-50351764D01*
X50752983Y-50421665D01*
X50573832Y-50457300D01*
X50391168Y-50457300D01*
X50212017Y-50421665D01*
X50043260Y-50351764D01*
X49891382Y-50250282D01*
X49762218Y-50121118D01*
X49660736Y-49969240D01*
X49590835Y-49800483D01*
X49555200Y-49621332D01*
X49555200Y-49438668D01*
X49590835Y-49259517D01*
X49660736Y-49090760D01*
X49762218Y-48938882D01*
X49891382Y-48809718D01*
X50043260Y-48708236D01*
X50212017Y-48638335D01*
X50391168Y-48602700D01*
X50573832Y-48602700D01*
X50752983Y-48638335D01*
X50752983Y-48638335D01*
G37*
G36*
X48212983Y-48638335D02*
G01*
X48381740Y-48708236D01*
X48533618Y-48809718D01*
X48662782Y-48938882D01*
X48764264Y-49090760D01*
X48834165Y-49259517D01*
X48869800Y-49438668D01*
X48869800Y-49621332D01*
X48834165Y-49800483D01*
X48764264Y-49969240D01*
X48662782Y-50121118D01*
X48533618Y-50250282D01*
X48381740Y-50351764D01*
X48212983Y-50421665D01*
X48033832Y-50457300D01*
X47851168Y-50457300D01*
X47672017Y-50421665D01*
X47503260Y-50351764D01*
X47351382Y-50250282D01*
X47222218Y-50121118D01*
X47120736Y-49969240D01*
X47050835Y-49800483D01*
X47015200Y-49621332D01*
X47015200Y-49438668D01*
X47050835Y-49259517D01*
X47120736Y-49090760D01*
X47222218Y-48938882D01*
X47351382Y-48809718D01*
X47503260Y-48708236D01*
X47672017Y-48638335D01*
X47851168Y-48602700D01*
X48033832Y-48602700D01*
X48212983Y-48638335D01*
X48212983Y-48638335D01*
G37*
G36*
X73612983Y-48638335D02*
G01*
X73781740Y-48708236D01*
X73933618Y-48809718D01*
X74062782Y-48938882D01*
X74164264Y-49090760D01*
X74234165Y-49259517D01*
X74269800Y-49438668D01*
X74269800Y-49621332D01*
X74234165Y-49800483D01*
X74164264Y-49969240D01*
X74062782Y-50121118D01*
X73933618Y-50250282D01*
X73781740Y-50351764D01*
X73612983Y-50421665D01*
X73433832Y-50457300D01*
X73251168Y-50457300D01*
X73072017Y-50421665D01*
X72903260Y-50351764D01*
X72751382Y-50250282D01*
X72622218Y-50121118D01*
X72520736Y-49969240D01*
X72450835Y-49800483D01*
X72415200Y-49621332D01*
X72415200Y-49438668D01*
X72450835Y-49259517D01*
X72520736Y-49090760D01*
X72622218Y-48938882D01*
X72751382Y-48809718D01*
X72903260Y-48708236D01*
X73072017Y-48638335D01*
X73251168Y-48602700D01*
X73433832Y-48602700D01*
X73612983Y-48638335D01*
X73612983Y-48638335D01*
G37*
G36*
X68532983Y-48638335D02*
G01*
X68701740Y-48708236D01*
X68853618Y-48809718D01*
X68982782Y-48938882D01*
X69084264Y-49090760D01*
X69154165Y-49259517D01*
X69189800Y-49438668D01*
X69189800Y-49621332D01*
X69154165Y-49800483D01*
X69084264Y-49969240D01*
X68982782Y-50121118D01*
X68853618Y-50250282D01*
X68701740Y-50351764D01*
X68532983Y-50421665D01*
X68353832Y-50457300D01*
X68171168Y-50457300D01*
X67992017Y-50421665D01*
X67823260Y-50351764D01*
X67671382Y-50250282D01*
X67542218Y-50121118D01*
X67440736Y-49969240D01*
X67370835Y-49800483D01*
X67335200Y-49621332D01*
X67335200Y-49438668D01*
X67370835Y-49259517D01*
X67440736Y-49090760D01*
X67542218Y-48938882D01*
X67671382Y-48809718D01*
X67823260Y-48708236D01*
X67992017Y-48638335D01*
X68171168Y-48602700D01*
X68353832Y-48602700D01*
X68532983Y-48638335D01*
X68532983Y-48638335D01*
G37*
G36*
X161982250Y-47682250D02*
G01*
X160280250Y-47682250D01*
X160280250Y-45980250D01*
X161982250Y-45980250D01*
X161982250Y-47682250D01*
X161982250Y-47682250D01*
G37*
G36*
X153678073Y-45992563D02*
G01*
X153838492Y-46041226D01*
X153971156Y-46112136D01*
X153986328Y-46120246D01*
X154115909Y-46226591D01*
X154222254Y-46356172D01*
X154222255Y-46356174D01*
X154301274Y-46504008D01*
X154349937Y-46664427D01*
X154366367Y-46831250D01*
X154349937Y-46998073D01*
X154301274Y-47158492D01*
X154230364Y-47291156D01*
X154222254Y-47306328D01*
X154115909Y-47435909D01*
X153986328Y-47542254D01*
X153986326Y-47542255D01*
X153838492Y-47621274D01*
X153678073Y-47669937D01*
X153553054Y-47682250D01*
X153469446Y-47682250D01*
X153344427Y-47669937D01*
X153184008Y-47621274D01*
X153036174Y-47542255D01*
X153036172Y-47542254D01*
X152906591Y-47435909D01*
X152800246Y-47306328D01*
X152792136Y-47291156D01*
X152721226Y-47158492D01*
X152672563Y-46998073D01*
X152656133Y-46831250D01*
X152672563Y-46664427D01*
X152721226Y-46504008D01*
X152800245Y-46356174D01*
X152800246Y-46356172D01*
X152906591Y-46226591D01*
X153036172Y-46120246D01*
X153051344Y-46112136D01*
X153184008Y-46041226D01*
X153344427Y-45992563D01*
X153469446Y-45980250D01*
X153553054Y-45980250D01*
X153678073Y-45992563D01*
X153678073Y-45992563D01*
G37*
G36*
X270726000Y-44507250D02*
G01*
X269024000Y-44507250D01*
X269024000Y-42805250D01*
X270726000Y-42805250D01*
X270726000Y-44507250D01*
X270726000Y-44507250D01*
G37*
G36*
X138169750Y-42919750D02*
G01*
X136467750Y-42919750D01*
X136467750Y-41217750D01*
X138169750Y-41217750D01*
X138169750Y-42919750D01*
X138169750Y-42919750D01*
G37*
G36*
X176269750Y-42919750D02*
G01*
X174567750Y-42919750D01*
X174567750Y-41217750D01*
X176269750Y-41217750D01*
X176269750Y-42919750D01*
X176269750Y-42919750D01*
G37*
G36*
X195319750Y-42919750D02*
G01*
X193617750Y-42919750D01*
X193617750Y-41217750D01*
X195319750Y-41217750D01*
X195319750Y-42919750D01*
X195319750Y-42919750D01*
G37*
G36*
X119119750Y-42919750D02*
G01*
X117417750Y-42919750D01*
X117417750Y-41217750D01*
X119119750Y-41217750D01*
X119119750Y-42919750D01*
X119119750Y-42919750D01*
G37*
G36*
X214369750Y-42919750D02*
G01*
X212667750Y-42919750D01*
X212667750Y-41217750D01*
X214369750Y-41217750D01*
X214369750Y-42919750D01*
X214369750Y-42919750D01*
G37*
G36*
X252469750Y-42919750D02*
G01*
X250767750Y-42919750D01*
X250767750Y-41217750D01*
X252469750Y-41217750D01*
X252469750Y-42919750D01*
X252469750Y-42919750D01*
G37*
G36*
X100069750Y-42919750D02*
G01*
X98367750Y-42919750D01*
X98367750Y-41217750D01*
X100069750Y-41217750D01*
X100069750Y-42919750D01*
X100069750Y-42919750D01*
G37*
G36*
X81019750Y-42919750D02*
G01*
X79317750Y-42919750D01*
X79317750Y-41217750D01*
X81019750Y-41217750D01*
X81019750Y-42919750D01*
X81019750Y-42919750D01*
G37*
G36*
X61969750Y-42919750D02*
G01*
X60267750Y-42919750D01*
X60267750Y-41217750D01*
X61969750Y-41217750D01*
X61969750Y-42919750D01*
X61969750Y-42919750D01*
G37*
G36*
X233419750Y-42919750D02*
G01*
X231717750Y-42919750D01*
X231717750Y-41217750D01*
X233419750Y-41217750D01*
X233419750Y-42919750D01*
X233419750Y-42919750D01*
G37*
G36*
X157760754Y-36127818D02*
G01*
X158134011Y-36282426D01*
X158134013Y-36282427D01*
X158469936Y-36506884D01*
X158755616Y-36792564D01*
X158979613Y-37127798D01*
X158980074Y-37128489D01*
X159134682Y-37501746D01*
X159213500Y-37897993D01*
X159213500Y-38302007D01*
X159134682Y-38698254D01*
X158981270Y-39068623D01*
X158980073Y-39071513D01*
X158755616Y-39407436D01*
X158469936Y-39693116D01*
X158134013Y-39917573D01*
X158134012Y-39917574D01*
X158134011Y-39917574D01*
X157760754Y-40072182D01*
X157364507Y-40151000D01*
X156960493Y-40151000D01*
X156564246Y-40072182D01*
X156190989Y-39917574D01*
X156190988Y-39917574D01*
X156190987Y-39917573D01*
X155855064Y-39693116D01*
X155569384Y-39407436D01*
X155344927Y-39071513D01*
X155343730Y-39068623D01*
X155190318Y-38698254D01*
X155111500Y-38302007D01*
X155111500Y-37897993D01*
X155190318Y-37501746D01*
X155344926Y-37128489D01*
X155345388Y-37127798D01*
X155569384Y-36792564D01*
X155855064Y-36506884D01*
X156190987Y-36282427D01*
X156190989Y-36282426D01*
X156564246Y-36127818D01*
X156960493Y-36049000D01*
X157364507Y-36049000D01*
X157760754Y-36127818D01*
X157760754Y-36127818D01*
G37*
G36*
X91083974Y-36133684D02*
G01*
X91251498Y-36203075D01*
X91456123Y-36287833D01*
X91791048Y-36511623D01*
X92075877Y-36796452D01*
X92299667Y-37131377D01*
X92332062Y-37209586D01*
X92453816Y-37503526D01*
X92532400Y-37898594D01*
X92532400Y-38301406D01*
X92453816Y-38696474D01*
X92402951Y-38819272D01*
X92299667Y-39068623D01*
X92075877Y-39403548D01*
X91791048Y-39688377D01*
X91456123Y-39912167D01*
X91301974Y-39976017D01*
X91083974Y-40066316D01*
X90688906Y-40144900D01*
X90286094Y-40144900D01*
X89891026Y-40066316D01*
X89673026Y-39976017D01*
X89518877Y-39912167D01*
X89183952Y-39688377D01*
X88899123Y-39403548D01*
X88675333Y-39068623D01*
X88572049Y-38819272D01*
X88521184Y-38696474D01*
X88442600Y-38301406D01*
X88442600Y-37898594D01*
X88521184Y-37503526D01*
X88642938Y-37209586D01*
X88675333Y-37131377D01*
X88899123Y-36796452D01*
X89183952Y-36511623D01*
X89518877Y-36287833D01*
X89723502Y-36203075D01*
X89891026Y-36133684D01*
X90286094Y-36055100D01*
X90688906Y-36055100D01*
X91083974Y-36133684D01*
X91083974Y-36133684D01*
G37*
G36*
X167283974Y-36133684D02*
G01*
X167451498Y-36203075D01*
X167656123Y-36287833D01*
X167991048Y-36511623D01*
X168275877Y-36796452D01*
X168499667Y-37131377D01*
X168532062Y-37209586D01*
X168653816Y-37503526D01*
X168732400Y-37898594D01*
X168732400Y-38301406D01*
X168653816Y-38696474D01*
X168602951Y-38819272D01*
X168499667Y-39068623D01*
X168275877Y-39403548D01*
X167991048Y-39688377D01*
X167656123Y-39912167D01*
X167501974Y-39976017D01*
X167283974Y-40066316D01*
X166888906Y-40144900D01*
X166486094Y-40144900D01*
X166091026Y-40066316D01*
X165873026Y-39976017D01*
X165718877Y-39912167D01*
X165383952Y-39688377D01*
X165099123Y-39403548D01*
X164875333Y-39068623D01*
X164772049Y-38819272D01*
X164721184Y-38696474D01*
X164642600Y-38301406D01*
X164642600Y-37898594D01*
X164721184Y-37503526D01*
X164842938Y-37209586D01*
X164875333Y-37131377D01*
X165099123Y-36796452D01*
X165383952Y-36511623D01*
X165718877Y-36287833D01*
X165923502Y-36203075D01*
X166091026Y-36133684D01*
X166486094Y-36055100D01*
X166888906Y-36055100D01*
X167283974Y-36133684D01*
X167283974Y-36133684D01*
G37*
G36*
X52983974Y-36133684D02*
G01*
X53151498Y-36203075D01*
X53356123Y-36287833D01*
X53691048Y-36511623D01*
X53975877Y-36796452D01*
X54199667Y-37131377D01*
X54232062Y-37209586D01*
X54353816Y-37503526D01*
X54432400Y-37898594D01*
X54432400Y-38301406D01*
X54353816Y-38696474D01*
X54302951Y-38819272D01*
X54199667Y-39068623D01*
X53975877Y-39403548D01*
X53691048Y-39688377D01*
X53356123Y-39912167D01*
X53201974Y-39976017D01*
X52983974Y-40066316D01*
X52588906Y-40144900D01*
X52186094Y-40144900D01*
X51791026Y-40066316D01*
X51573026Y-39976017D01*
X51418877Y-39912167D01*
X51083952Y-39688377D01*
X50799123Y-39403548D01*
X50575333Y-39068623D01*
X50472049Y-38819272D01*
X50421184Y-38696474D01*
X50342600Y-38301406D01*
X50342600Y-37898594D01*
X50421184Y-37503526D01*
X50542938Y-37209586D01*
X50575333Y-37131377D01*
X50799123Y-36796452D01*
X51083952Y-36511623D01*
X51418877Y-36287833D01*
X51623502Y-36203075D01*
X51791026Y-36133684D01*
X52186094Y-36055100D01*
X52588906Y-36055100D01*
X52983974Y-36133684D01*
X52983974Y-36133684D01*
G37*
G36*
X110133974Y-36133684D02*
G01*
X110301498Y-36203075D01*
X110506123Y-36287833D01*
X110841048Y-36511623D01*
X111125877Y-36796452D01*
X111349667Y-37131377D01*
X111382062Y-37209586D01*
X111503816Y-37503526D01*
X111582400Y-37898594D01*
X111582400Y-38301406D01*
X111503816Y-38696474D01*
X111452951Y-38819272D01*
X111349667Y-39068623D01*
X111125877Y-39403548D01*
X110841048Y-39688377D01*
X110506123Y-39912167D01*
X110351974Y-39976017D01*
X110133974Y-40066316D01*
X109738906Y-40144900D01*
X109336094Y-40144900D01*
X108941026Y-40066316D01*
X108723026Y-39976017D01*
X108568877Y-39912167D01*
X108233952Y-39688377D01*
X107949123Y-39403548D01*
X107725333Y-39068623D01*
X107622049Y-38819272D01*
X107571184Y-38696474D01*
X107492600Y-38301406D01*
X107492600Y-37898594D01*
X107571184Y-37503526D01*
X107692938Y-37209586D01*
X107725333Y-37131377D01*
X107949123Y-36796452D01*
X108233952Y-36511623D01*
X108568877Y-36287833D01*
X108773502Y-36203075D01*
X108941026Y-36133684D01*
X109336094Y-36055100D01*
X109738906Y-36055100D01*
X110133974Y-36133684D01*
X110133974Y-36133684D01*
G37*
G36*
X129183974Y-36133684D02*
G01*
X129351498Y-36203075D01*
X129556123Y-36287833D01*
X129891048Y-36511623D01*
X130175877Y-36796452D01*
X130399667Y-37131377D01*
X130432062Y-37209586D01*
X130553816Y-37503526D01*
X130632400Y-37898594D01*
X130632400Y-38301406D01*
X130553816Y-38696474D01*
X130502951Y-38819272D01*
X130399667Y-39068623D01*
X130175877Y-39403548D01*
X129891048Y-39688377D01*
X129556123Y-39912167D01*
X129401974Y-39976017D01*
X129183974Y-40066316D01*
X128788906Y-40144900D01*
X128386094Y-40144900D01*
X127991026Y-40066316D01*
X127773026Y-39976017D01*
X127618877Y-39912167D01*
X127283952Y-39688377D01*
X126999123Y-39403548D01*
X126775333Y-39068623D01*
X126672049Y-38819272D01*
X126621184Y-38696474D01*
X126542600Y-38301406D01*
X126542600Y-37898594D01*
X126621184Y-37503526D01*
X126742938Y-37209586D01*
X126775333Y-37131377D01*
X126999123Y-36796452D01*
X127283952Y-36511623D01*
X127618877Y-36287833D01*
X127823502Y-36203075D01*
X127991026Y-36133684D01*
X128386094Y-36055100D01*
X128788906Y-36055100D01*
X129183974Y-36133684D01*
X129183974Y-36133684D01*
G37*
G36*
X148233974Y-36133684D02*
G01*
X148401498Y-36203075D01*
X148606123Y-36287833D01*
X148941048Y-36511623D01*
X149225877Y-36796452D01*
X149449667Y-37131377D01*
X149482062Y-37209586D01*
X149603816Y-37503526D01*
X149682400Y-37898594D01*
X149682400Y-38301406D01*
X149603816Y-38696474D01*
X149552951Y-38819272D01*
X149449667Y-39068623D01*
X149225877Y-39403548D01*
X148941048Y-39688377D01*
X148606123Y-39912167D01*
X148451974Y-39976017D01*
X148233974Y-40066316D01*
X147838906Y-40144900D01*
X147436094Y-40144900D01*
X147041026Y-40066316D01*
X146823026Y-39976017D01*
X146668877Y-39912167D01*
X146333952Y-39688377D01*
X146049123Y-39403548D01*
X145825333Y-39068623D01*
X145722049Y-38819272D01*
X145671184Y-38696474D01*
X145592600Y-38301406D01*
X145592600Y-37898594D01*
X145671184Y-37503526D01*
X145792938Y-37209586D01*
X145825333Y-37131377D01*
X146049123Y-36796452D01*
X146333952Y-36511623D01*
X146668877Y-36287833D01*
X146873502Y-36203075D01*
X147041026Y-36133684D01*
X147436094Y-36055100D01*
X147838906Y-36055100D01*
X148233974Y-36133684D01*
X148233974Y-36133684D01*
G37*
G36*
X205383974Y-36133684D02*
G01*
X205551498Y-36203075D01*
X205756123Y-36287833D01*
X206091048Y-36511623D01*
X206375877Y-36796452D01*
X206599667Y-37131377D01*
X206632062Y-37209586D01*
X206753816Y-37503526D01*
X206832400Y-37898594D01*
X206832400Y-38301406D01*
X206753816Y-38696474D01*
X206702951Y-38819272D01*
X206599667Y-39068623D01*
X206375877Y-39403548D01*
X206091048Y-39688377D01*
X205756123Y-39912167D01*
X205601974Y-39976017D01*
X205383974Y-40066316D01*
X204988906Y-40144900D01*
X204586094Y-40144900D01*
X204191026Y-40066316D01*
X203973026Y-39976017D01*
X203818877Y-39912167D01*
X203483952Y-39688377D01*
X203199123Y-39403548D01*
X202975333Y-39068623D01*
X202872049Y-38819272D01*
X202821184Y-38696474D01*
X202742600Y-38301406D01*
X202742600Y-37898594D01*
X202821184Y-37503526D01*
X202942938Y-37209586D01*
X202975333Y-37131377D01*
X203199123Y-36796452D01*
X203483952Y-36511623D01*
X203818877Y-36287833D01*
X204023502Y-36203075D01*
X204191026Y-36133684D01*
X204586094Y-36055100D01*
X204988906Y-36055100D01*
X205383974Y-36133684D01*
X205383974Y-36133684D01*
G37*
G36*
X224433974Y-36133684D02*
G01*
X224601498Y-36203075D01*
X224806123Y-36287833D01*
X225141048Y-36511623D01*
X225425877Y-36796452D01*
X225649667Y-37131377D01*
X225682062Y-37209586D01*
X225803816Y-37503526D01*
X225882400Y-37898594D01*
X225882400Y-38301406D01*
X225803816Y-38696474D01*
X225752951Y-38819272D01*
X225649667Y-39068623D01*
X225425877Y-39403548D01*
X225141048Y-39688377D01*
X224806123Y-39912167D01*
X224651974Y-39976017D01*
X224433974Y-40066316D01*
X224038906Y-40144900D01*
X223636094Y-40144900D01*
X223241026Y-40066316D01*
X223023026Y-39976017D01*
X222868877Y-39912167D01*
X222533952Y-39688377D01*
X222249123Y-39403548D01*
X222025333Y-39068623D01*
X221922049Y-38819272D01*
X221871184Y-38696474D01*
X221792600Y-38301406D01*
X221792600Y-37898594D01*
X221871184Y-37503526D01*
X221992938Y-37209586D01*
X222025333Y-37131377D01*
X222249123Y-36796452D01*
X222533952Y-36511623D01*
X222868877Y-36287833D01*
X223073502Y-36203075D01*
X223241026Y-36133684D01*
X223636094Y-36055100D01*
X224038906Y-36055100D01*
X224433974Y-36133684D01*
X224433974Y-36133684D01*
G37*
G36*
X186333974Y-36133684D02*
G01*
X186501498Y-36203075D01*
X186706123Y-36287833D01*
X187041048Y-36511623D01*
X187325877Y-36796452D01*
X187549667Y-37131377D01*
X187582062Y-37209586D01*
X187703816Y-37503526D01*
X187782400Y-37898594D01*
X187782400Y-38301406D01*
X187703816Y-38696474D01*
X187652951Y-38819272D01*
X187549667Y-39068623D01*
X187325877Y-39403548D01*
X187041048Y-39688377D01*
X186706123Y-39912167D01*
X186551974Y-39976017D01*
X186333974Y-40066316D01*
X185938906Y-40144900D01*
X185536094Y-40144900D01*
X185141026Y-40066316D01*
X184923026Y-39976017D01*
X184768877Y-39912167D01*
X184433952Y-39688377D01*
X184149123Y-39403548D01*
X183925333Y-39068623D01*
X183822049Y-38819272D01*
X183771184Y-38696474D01*
X183692600Y-38301406D01*
X183692600Y-37898594D01*
X183771184Y-37503526D01*
X183892938Y-37209586D01*
X183925333Y-37131377D01*
X184149123Y-36796452D01*
X184433952Y-36511623D01*
X184768877Y-36287833D01*
X184973502Y-36203075D01*
X185141026Y-36133684D01*
X185536094Y-36055100D01*
X185938906Y-36055100D01*
X186333974Y-36133684D01*
X186333974Y-36133684D01*
G37*
G36*
X243483974Y-36133684D02*
G01*
X243651498Y-36203075D01*
X243856123Y-36287833D01*
X244191048Y-36511623D01*
X244475877Y-36796452D01*
X244699667Y-37131377D01*
X244732062Y-37209586D01*
X244853816Y-37503526D01*
X244932400Y-37898594D01*
X244932400Y-38301406D01*
X244853816Y-38696474D01*
X244802951Y-38819272D01*
X244699667Y-39068623D01*
X244475877Y-39403548D01*
X244191048Y-39688377D01*
X243856123Y-39912167D01*
X243701974Y-39976017D01*
X243483974Y-40066316D01*
X243088906Y-40144900D01*
X242686094Y-40144900D01*
X242291026Y-40066316D01*
X242073026Y-39976017D01*
X241918877Y-39912167D01*
X241583952Y-39688377D01*
X241299123Y-39403548D01*
X241075333Y-39068623D01*
X240972049Y-38819272D01*
X240921184Y-38696474D01*
X240842600Y-38301406D01*
X240842600Y-37898594D01*
X240921184Y-37503526D01*
X241042938Y-37209586D01*
X241075333Y-37131377D01*
X241299123Y-36796452D01*
X241583952Y-36511623D01*
X241918877Y-36287833D01*
X242123502Y-36203075D01*
X242291026Y-36133684D01*
X242686094Y-36055100D01*
X243088906Y-36055100D01*
X243483974Y-36133684D01*
X243483974Y-36133684D01*
G37*
G36*
X262533974Y-36133684D02*
G01*
X262701498Y-36203075D01*
X262906123Y-36287833D01*
X263241048Y-36511623D01*
X263525877Y-36796452D01*
X263749667Y-37131377D01*
X263782062Y-37209586D01*
X263903816Y-37503526D01*
X263982400Y-37898594D01*
X263982400Y-38301406D01*
X263903816Y-38696474D01*
X263852951Y-38819272D01*
X263749667Y-39068623D01*
X263525877Y-39403548D01*
X263241048Y-39688377D01*
X262906123Y-39912167D01*
X262751974Y-39976017D01*
X262533974Y-40066316D01*
X262138906Y-40144900D01*
X261736094Y-40144900D01*
X261341026Y-40066316D01*
X261123026Y-39976017D01*
X260968877Y-39912167D01*
X260633952Y-39688377D01*
X260349123Y-39403548D01*
X260125333Y-39068623D01*
X260022049Y-38819272D01*
X259971184Y-38696474D01*
X259892600Y-38301406D01*
X259892600Y-37898594D01*
X259971184Y-37503526D01*
X260092938Y-37209586D01*
X260125333Y-37131377D01*
X260349123Y-36796452D01*
X260633952Y-36511623D01*
X260968877Y-36287833D01*
X261173502Y-36203075D01*
X261341026Y-36133684D01*
X261736094Y-36055100D01*
X262138906Y-36055100D01*
X262533974Y-36133684D01*
X262533974Y-36133684D01*
G37*
G36*
X72033974Y-36133684D02*
G01*
X72201498Y-36203075D01*
X72406123Y-36287833D01*
X72741048Y-36511623D01*
X73025877Y-36796452D01*
X73249667Y-37131377D01*
X73282062Y-37209586D01*
X73403816Y-37503526D01*
X73482400Y-37898594D01*
X73482400Y-38301406D01*
X73403816Y-38696474D01*
X73352951Y-38819272D01*
X73249667Y-39068623D01*
X73025877Y-39403548D01*
X72741048Y-39688377D01*
X72406123Y-39912167D01*
X72251974Y-39976017D01*
X72033974Y-40066316D01*
X71638906Y-40144900D01*
X71236094Y-40144900D01*
X70841026Y-40066316D01*
X70623026Y-39976017D01*
X70468877Y-39912167D01*
X70133952Y-39688377D01*
X69849123Y-39403548D01*
X69625333Y-39068623D01*
X69522049Y-38819272D01*
X69471184Y-38696474D01*
X69392600Y-38301406D01*
X69392600Y-37898594D01*
X69471184Y-37503526D01*
X69592938Y-37209586D01*
X69625333Y-37131377D01*
X69849123Y-36796452D01*
X70133952Y-36511623D01*
X70468877Y-36287833D01*
X70673502Y-36203075D01*
X70841026Y-36133684D01*
X71236094Y-36055100D01*
X71638906Y-36055100D01*
X72033974Y-36133684D01*
X72033974Y-36133684D01*
G37*
G36*
X152987604Y-37209585D02*
G01*
X153156126Y-37279389D01*
X153307791Y-37380728D01*
X153436772Y-37509709D01*
X153538111Y-37661374D01*
X153607915Y-37829896D01*
X153643500Y-38008797D01*
X153643500Y-38191203D01*
X153607915Y-38370104D01*
X153538111Y-38538626D01*
X153436772Y-38690291D01*
X153307791Y-38819272D01*
X153156126Y-38920611D01*
X152987604Y-38990415D01*
X152808703Y-39026000D01*
X152626297Y-39026000D01*
X152447396Y-38990415D01*
X152278874Y-38920611D01*
X152127209Y-38819272D01*
X151998228Y-38690291D01*
X151896889Y-38538626D01*
X151827085Y-38370104D01*
X151791500Y-38191203D01*
X151791500Y-38008797D01*
X151827085Y-37829896D01*
X151896889Y-37661374D01*
X151998228Y-37509709D01*
X152127209Y-37380728D01*
X152278874Y-37279389D01*
X152447396Y-37209585D01*
X152626297Y-37174000D01*
X152808703Y-37174000D01*
X152987604Y-37209585D01*
X152987604Y-37209585D01*
G37*
G36*
X142827604Y-37209585D02*
G01*
X142996126Y-37279389D01*
X143147791Y-37380728D01*
X143276772Y-37509709D01*
X143378111Y-37661374D01*
X143447915Y-37829896D01*
X143483500Y-38008797D01*
X143483500Y-38191203D01*
X143447915Y-38370104D01*
X143378111Y-38538626D01*
X143276772Y-38690291D01*
X143147791Y-38819272D01*
X142996126Y-38920611D01*
X142827604Y-38990415D01*
X142648703Y-39026000D01*
X142466297Y-39026000D01*
X142287396Y-38990415D01*
X142118874Y-38920611D01*
X141967209Y-38819272D01*
X141838228Y-38690291D01*
X141736889Y-38538626D01*
X141667085Y-38370104D01*
X141631500Y-38191203D01*
X141631500Y-38008797D01*
X141667085Y-37829896D01*
X141736889Y-37661374D01*
X141838228Y-37509709D01*
X141967209Y-37380728D01*
X142118874Y-37279389D01*
X142287396Y-37209585D01*
X142466297Y-37174000D01*
X142648703Y-37174000D01*
X142827604Y-37209585D01*
X142827604Y-37209585D01*
G37*
G36*
X133937604Y-37209585D02*
G01*
X134106126Y-37279389D01*
X134257791Y-37380728D01*
X134386772Y-37509709D01*
X134488111Y-37661374D01*
X134557915Y-37829896D01*
X134593500Y-38008797D01*
X134593500Y-38191203D01*
X134557915Y-38370104D01*
X134488111Y-38538626D01*
X134386772Y-38690291D01*
X134257791Y-38819272D01*
X134106126Y-38920611D01*
X133937604Y-38990415D01*
X133758703Y-39026000D01*
X133576297Y-39026000D01*
X133397396Y-38990415D01*
X133228874Y-38920611D01*
X133077209Y-38819272D01*
X132948228Y-38690291D01*
X132846889Y-38538626D01*
X132777085Y-38370104D01*
X132741500Y-38191203D01*
X132741500Y-38008797D01*
X132777085Y-37829896D01*
X132846889Y-37661374D01*
X132948228Y-37509709D01*
X133077209Y-37380728D01*
X133228874Y-37279389D01*
X133397396Y-37209585D01*
X133576297Y-37174000D01*
X133758703Y-37174000D01*
X133937604Y-37209585D01*
X133937604Y-37209585D01*
G37*
G36*
X123777604Y-37209585D02*
G01*
X123946126Y-37279389D01*
X124097791Y-37380728D01*
X124226772Y-37509709D01*
X124328111Y-37661374D01*
X124397915Y-37829896D01*
X124433500Y-38008797D01*
X124433500Y-38191203D01*
X124397915Y-38370104D01*
X124328111Y-38538626D01*
X124226772Y-38690291D01*
X124097791Y-38819272D01*
X123946126Y-38920611D01*
X123777604Y-38990415D01*
X123598703Y-39026000D01*
X123416297Y-39026000D01*
X123237396Y-38990415D01*
X123068874Y-38920611D01*
X122917209Y-38819272D01*
X122788228Y-38690291D01*
X122686889Y-38538626D01*
X122617085Y-38370104D01*
X122581500Y-38191203D01*
X122581500Y-38008797D01*
X122617085Y-37829896D01*
X122686889Y-37661374D01*
X122788228Y-37509709D01*
X122917209Y-37380728D01*
X123068874Y-37279389D01*
X123237396Y-37209585D01*
X123416297Y-37174000D01*
X123598703Y-37174000D01*
X123777604Y-37209585D01*
X123777604Y-37209585D01*
G37*
G36*
X114887604Y-37209585D02*
G01*
X115056126Y-37279389D01*
X115207791Y-37380728D01*
X115336772Y-37509709D01*
X115438111Y-37661374D01*
X115507915Y-37829896D01*
X115543500Y-38008797D01*
X115543500Y-38191203D01*
X115507915Y-38370104D01*
X115438111Y-38538626D01*
X115336772Y-38690291D01*
X115207791Y-38819272D01*
X115056126Y-38920611D01*
X114887604Y-38990415D01*
X114708703Y-39026000D01*
X114526297Y-39026000D01*
X114347396Y-38990415D01*
X114178874Y-38920611D01*
X114027209Y-38819272D01*
X113898228Y-38690291D01*
X113796889Y-38538626D01*
X113727085Y-38370104D01*
X113691500Y-38191203D01*
X113691500Y-38008797D01*
X113727085Y-37829896D01*
X113796889Y-37661374D01*
X113898228Y-37509709D01*
X114027209Y-37380728D01*
X114178874Y-37279389D01*
X114347396Y-37209585D01*
X114526297Y-37174000D01*
X114708703Y-37174000D01*
X114887604Y-37209585D01*
X114887604Y-37209585D01*
G37*
G36*
X66627604Y-37209585D02*
G01*
X66796126Y-37279389D01*
X66947791Y-37380728D01*
X67076772Y-37509709D01*
X67178111Y-37661374D01*
X67247915Y-37829896D01*
X67283500Y-38008797D01*
X67283500Y-38191203D01*
X67247915Y-38370104D01*
X67178111Y-38538626D01*
X67076772Y-38690291D01*
X66947791Y-38819272D01*
X66796126Y-38920611D01*
X66627604Y-38990415D01*
X66448703Y-39026000D01*
X66266297Y-39026000D01*
X66087396Y-38990415D01*
X65918874Y-38920611D01*
X65767209Y-38819272D01*
X65638228Y-38690291D01*
X65536889Y-38538626D01*
X65467085Y-38370104D01*
X65431500Y-38191203D01*
X65431500Y-38008797D01*
X65467085Y-37829896D01*
X65536889Y-37661374D01*
X65638228Y-37509709D01*
X65767209Y-37380728D01*
X65918874Y-37279389D01*
X66087396Y-37209585D01*
X66266297Y-37174000D01*
X66448703Y-37174000D01*
X66627604Y-37209585D01*
X66627604Y-37209585D01*
G37*
G36*
X76787604Y-37209585D02*
G01*
X76956126Y-37279389D01*
X77107791Y-37380728D01*
X77236772Y-37509709D01*
X77338111Y-37661374D01*
X77407915Y-37829896D01*
X77443500Y-38008797D01*
X77443500Y-38191203D01*
X77407915Y-38370104D01*
X77338111Y-38538626D01*
X77236772Y-38690291D01*
X77107791Y-38819272D01*
X76956126Y-38920611D01*
X76787604Y-38990415D01*
X76608703Y-39026000D01*
X76426297Y-39026000D01*
X76247396Y-38990415D01*
X76078874Y-38920611D01*
X75927209Y-38819272D01*
X75798228Y-38690291D01*
X75696889Y-38538626D01*
X75627085Y-38370104D01*
X75591500Y-38191203D01*
X75591500Y-38008797D01*
X75627085Y-37829896D01*
X75696889Y-37661374D01*
X75798228Y-37509709D01*
X75927209Y-37380728D01*
X76078874Y-37279389D01*
X76247396Y-37209585D01*
X76426297Y-37174000D01*
X76608703Y-37174000D01*
X76787604Y-37209585D01*
X76787604Y-37209585D01*
G37*
G36*
X85677604Y-37209585D02*
G01*
X85846126Y-37279389D01*
X85997791Y-37380728D01*
X86126772Y-37509709D01*
X86228111Y-37661374D01*
X86297915Y-37829896D01*
X86333500Y-38008797D01*
X86333500Y-38191203D01*
X86297915Y-38370104D01*
X86228111Y-38538626D01*
X86126772Y-38690291D01*
X85997791Y-38819272D01*
X85846126Y-38920611D01*
X85677604Y-38990415D01*
X85498703Y-39026000D01*
X85316297Y-39026000D01*
X85137396Y-38990415D01*
X84968874Y-38920611D01*
X84817209Y-38819272D01*
X84688228Y-38690291D01*
X84586889Y-38538626D01*
X84517085Y-38370104D01*
X84481500Y-38191203D01*
X84481500Y-38008797D01*
X84517085Y-37829896D01*
X84586889Y-37661374D01*
X84688228Y-37509709D01*
X84817209Y-37380728D01*
X84968874Y-37279389D01*
X85137396Y-37209585D01*
X85316297Y-37174000D01*
X85498703Y-37174000D01*
X85677604Y-37209585D01*
X85677604Y-37209585D01*
G37*
G36*
X95837604Y-37209585D02*
G01*
X96006126Y-37279389D01*
X96157791Y-37380728D01*
X96286772Y-37509709D01*
X96388111Y-37661374D01*
X96457915Y-37829896D01*
X96493500Y-38008797D01*
X96493500Y-38191203D01*
X96457915Y-38370104D01*
X96388111Y-38538626D01*
X96286772Y-38690291D01*
X96157791Y-38819272D01*
X96006126Y-38920611D01*
X95837604Y-38990415D01*
X95658703Y-39026000D01*
X95476297Y-39026000D01*
X95297396Y-38990415D01*
X95128874Y-38920611D01*
X94977209Y-38819272D01*
X94848228Y-38690291D01*
X94746889Y-38538626D01*
X94677085Y-38370104D01*
X94641500Y-38191203D01*
X94641500Y-38008797D01*
X94677085Y-37829896D01*
X94746889Y-37661374D01*
X94848228Y-37509709D01*
X94977209Y-37380728D01*
X95128874Y-37279389D01*
X95297396Y-37209585D01*
X95476297Y-37174000D01*
X95658703Y-37174000D01*
X95837604Y-37209585D01*
X95837604Y-37209585D01*
G37*
G36*
X104727604Y-37209585D02*
G01*
X104896126Y-37279389D01*
X105047791Y-37380728D01*
X105176772Y-37509709D01*
X105278111Y-37661374D01*
X105347915Y-37829896D01*
X105383500Y-38008797D01*
X105383500Y-38191203D01*
X105347915Y-38370104D01*
X105278111Y-38538626D01*
X105176772Y-38690291D01*
X105047791Y-38819272D01*
X104896126Y-38920611D01*
X104727604Y-38990415D01*
X104548703Y-39026000D01*
X104366297Y-39026000D01*
X104187396Y-38990415D01*
X104018874Y-38920611D01*
X103867209Y-38819272D01*
X103738228Y-38690291D01*
X103636889Y-38538626D01*
X103567085Y-38370104D01*
X103531500Y-38191203D01*
X103531500Y-38008797D01*
X103567085Y-37829896D01*
X103636889Y-37661374D01*
X103738228Y-37509709D01*
X103867209Y-37380728D01*
X104018874Y-37279389D01*
X104187396Y-37209585D01*
X104366297Y-37174000D01*
X104548703Y-37174000D01*
X104727604Y-37209585D01*
X104727604Y-37209585D01*
G37*
G36*
X210137604Y-37209585D02*
G01*
X210306126Y-37279389D01*
X210457791Y-37380728D01*
X210586772Y-37509709D01*
X210688111Y-37661374D01*
X210757915Y-37829896D01*
X210793500Y-38008797D01*
X210793500Y-38191203D01*
X210757915Y-38370104D01*
X210688111Y-38538626D01*
X210586772Y-38690291D01*
X210457791Y-38819272D01*
X210306126Y-38920611D01*
X210137604Y-38990415D01*
X209958703Y-39026000D01*
X209776297Y-39026000D01*
X209597396Y-38990415D01*
X209428874Y-38920611D01*
X209277209Y-38819272D01*
X209148228Y-38690291D01*
X209046889Y-38538626D01*
X208977085Y-38370104D01*
X208941500Y-38191203D01*
X208941500Y-38008797D01*
X208977085Y-37829896D01*
X209046889Y-37661374D01*
X209148228Y-37509709D01*
X209277209Y-37380728D01*
X209428874Y-37279389D01*
X209597396Y-37209585D01*
X209776297Y-37174000D01*
X209958703Y-37174000D01*
X210137604Y-37209585D01*
X210137604Y-37209585D01*
G37*
G36*
X257127604Y-37209585D02*
G01*
X257296126Y-37279389D01*
X257447791Y-37380728D01*
X257576772Y-37509709D01*
X257678111Y-37661374D01*
X257747915Y-37829896D01*
X257783500Y-38008797D01*
X257783500Y-38191203D01*
X257747915Y-38370104D01*
X257678111Y-38538626D01*
X257576772Y-38690291D01*
X257447791Y-38819272D01*
X257296126Y-38920611D01*
X257127604Y-38990415D01*
X256948703Y-39026000D01*
X256766297Y-39026000D01*
X256587396Y-38990415D01*
X256418874Y-38920611D01*
X256267209Y-38819272D01*
X256138228Y-38690291D01*
X256036889Y-38538626D01*
X255967085Y-38370104D01*
X255931500Y-38191203D01*
X255931500Y-38008797D01*
X255967085Y-37829896D01*
X256036889Y-37661374D01*
X256138228Y-37509709D01*
X256267209Y-37380728D01*
X256418874Y-37279389D01*
X256587396Y-37209585D01*
X256766297Y-37174000D01*
X256948703Y-37174000D01*
X257127604Y-37209585D01*
X257127604Y-37209585D01*
G37*
G36*
X47577604Y-37209585D02*
G01*
X47746126Y-37279389D01*
X47897791Y-37380728D01*
X48026772Y-37509709D01*
X48128111Y-37661374D01*
X48197915Y-37829896D01*
X48233500Y-38008797D01*
X48233500Y-38191203D01*
X48197915Y-38370104D01*
X48128111Y-38538626D01*
X48026772Y-38690291D01*
X47897791Y-38819272D01*
X47746126Y-38920611D01*
X47577604Y-38990415D01*
X47398703Y-39026000D01*
X47216297Y-39026000D01*
X47037396Y-38990415D01*
X46868874Y-38920611D01*
X46717209Y-38819272D01*
X46588228Y-38690291D01*
X46486889Y-38538626D01*
X46417085Y-38370104D01*
X46381500Y-38191203D01*
X46381500Y-38008797D01*
X46417085Y-37829896D01*
X46486889Y-37661374D01*
X46588228Y-37509709D01*
X46717209Y-37380728D01*
X46868874Y-37279389D01*
X47037396Y-37209585D01*
X47216297Y-37174000D01*
X47398703Y-37174000D01*
X47577604Y-37209585D01*
X47577604Y-37209585D01*
G37*
G36*
X57737604Y-37209585D02*
G01*
X57906126Y-37279389D01*
X58057791Y-37380728D01*
X58186772Y-37509709D01*
X58288111Y-37661374D01*
X58357915Y-37829896D01*
X58393500Y-38008797D01*
X58393500Y-38191203D01*
X58357915Y-38370104D01*
X58288111Y-38538626D01*
X58186772Y-38690291D01*
X58057791Y-38819272D01*
X57906126Y-38920611D01*
X57737604Y-38990415D01*
X57558703Y-39026000D01*
X57376297Y-39026000D01*
X57197396Y-38990415D01*
X57028874Y-38920611D01*
X56877209Y-38819272D01*
X56748228Y-38690291D01*
X56646889Y-38538626D01*
X56577085Y-38370104D01*
X56541500Y-38191203D01*
X56541500Y-38008797D01*
X56577085Y-37829896D01*
X56646889Y-37661374D01*
X56748228Y-37509709D01*
X56877209Y-37380728D01*
X57028874Y-37279389D01*
X57197396Y-37209585D01*
X57376297Y-37174000D01*
X57558703Y-37174000D01*
X57737604Y-37209585D01*
X57737604Y-37209585D01*
G37*
G36*
X161877604Y-37209585D02*
G01*
X162046126Y-37279389D01*
X162197791Y-37380728D01*
X162326772Y-37509709D01*
X162428111Y-37661374D01*
X162497915Y-37829896D01*
X162533500Y-38008797D01*
X162533500Y-38191203D01*
X162497915Y-38370104D01*
X162428111Y-38538626D01*
X162326772Y-38690291D01*
X162197791Y-38819272D01*
X162046126Y-38920611D01*
X161877604Y-38990415D01*
X161698703Y-39026000D01*
X161516297Y-39026000D01*
X161337396Y-38990415D01*
X161168874Y-38920611D01*
X161017209Y-38819272D01*
X160888228Y-38690291D01*
X160786889Y-38538626D01*
X160717085Y-38370104D01*
X160681500Y-38191203D01*
X160681500Y-38008797D01*
X160717085Y-37829896D01*
X160786889Y-37661374D01*
X160888228Y-37509709D01*
X161017209Y-37380728D01*
X161168874Y-37279389D01*
X161337396Y-37209585D01*
X161516297Y-37174000D01*
X161698703Y-37174000D01*
X161877604Y-37209585D01*
X161877604Y-37209585D01*
G37*
G36*
X172037604Y-37209585D02*
G01*
X172206126Y-37279389D01*
X172357791Y-37380728D01*
X172486772Y-37509709D01*
X172588111Y-37661374D01*
X172657915Y-37829896D01*
X172693500Y-38008797D01*
X172693500Y-38191203D01*
X172657915Y-38370104D01*
X172588111Y-38538626D01*
X172486772Y-38690291D01*
X172357791Y-38819272D01*
X172206126Y-38920611D01*
X172037604Y-38990415D01*
X171858703Y-39026000D01*
X171676297Y-39026000D01*
X171497396Y-38990415D01*
X171328874Y-38920611D01*
X171177209Y-38819272D01*
X171048228Y-38690291D01*
X170946889Y-38538626D01*
X170877085Y-38370104D01*
X170841500Y-38191203D01*
X170841500Y-38008797D01*
X170877085Y-37829896D01*
X170946889Y-37661374D01*
X171048228Y-37509709D01*
X171177209Y-37380728D01*
X171328874Y-37279389D01*
X171497396Y-37209585D01*
X171676297Y-37174000D01*
X171858703Y-37174000D01*
X172037604Y-37209585D01*
X172037604Y-37209585D01*
G37*
G36*
X238077604Y-37209585D02*
G01*
X238246126Y-37279389D01*
X238397791Y-37380728D01*
X238526772Y-37509709D01*
X238628111Y-37661374D01*
X238697915Y-37829896D01*
X238733500Y-38008797D01*
X238733500Y-38191203D01*
X238697915Y-38370104D01*
X238628111Y-38538626D01*
X238526772Y-38690291D01*
X238397791Y-38819272D01*
X238246126Y-38920611D01*
X238077604Y-38990415D01*
X237898703Y-39026000D01*
X237716297Y-39026000D01*
X237537396Y-38990415D01*
X237368874Y-38920611D01*
X237217209Y-38819272D01*
X237088228Y-38690291D01*
X236986889Y-38538626D01*
X236917085Y-38370104D01*
X236881500Y-38191203D01*
X236881500Y-38008797D01*
X236917085Y-37829896D01*
X236986889Y-37661374D01*
X237088228Y-37509709D01*
X237217209Y-37380728D01*
X237368874Y-37279389D01*
X237537396Y-37209585D01*
X237716297Y-37174000D01*
X237898703Y-37174000D01*
X238077604Y-37209585D01*
X238077604Y-37209585D01*
G37*
G36*
X248237604Y-37209585D02*
G01*
X248406126Y-37279389D01*
X248557791Y-37380728D01*
X248686772Y-37509709D01*
X248788111Y-37661374D01*
X248857915Y-37829896D01*
X248893500Y-38008797D01*
X248893500Y-38191203D01*
X248857915Y-38370104D01*
X248788111Y-38538626D01*
X248686772Y-38690291D01*
X248557791Y-38819272D01*
X248406126Y-38920611D01*
X248237604Y-38990415D01*
X248058703Y-39026000D01*
X247876297Y-39026000D01*
X247697396Y-38990415D01*
X247528874Y-38920611D01*
X247377209Y-38819272D01*
X247248228Y-38690291D01*
X247146889Y-38538626D01*
X247077085Y-38370104D01*
X247041500Y-38191203D01*
X247041500Y-38008797D01*
X247077085Y-37829896D01*
X247146889Y-37661374D01*
X247248228Y-37509709D01*
X247377209Y-37380728D01*
X247528874Y-37279389D01*
X247697396Y-37209585D01*
X247876297Y-37174000D01*
X248058703Y-37174000D01*
X248237604Y-37209585D01*
X248237604Y-37209585D01*
G37*
G36*
X267287604Y-37209585D02*
G01*
X267456126Y-37279389D01*
X267607791Y-37380728D01*
X267736772Y-37509709D01*
X267838111Y-37661374D01*
X267907915Y-37829896D01*
X267943500Y-38008797D01*
X267943500Y-38191203D01*
X267907915Y-38370104D01*
X267838111Y-38538626D01*
X267736772Y-38690291D01*
X267607791Y-38819272D01*
X267456126Y-38920611D01*
X267287604Y-38990415D01*
X267108703Y-39026000D01*
X266926297Y-39026000D01*
X266747396Y-38990415D01*
X266578874Y-38920611D01*
X266427209Y-38819272D01*
X266298228Y-38690291D01*
X266196889Y-38538626D01*
X266127085Y-38370104D01*
X266091500Y-38191203D01*
X266091500Y-38008797D01*
X266127085Y-37829896D01*
X266196889Y-37661374D01*
X266298228Y-37509709D01*
X266427209Y-37380728D01*
X266578874Y-37279389D01*
X266747396Y-37209585D01*
X266926297Y-37174000D01*
X267108703Y-37174000D01*
X267287604Y-37209585D01*
X267287604Y-37209585D01*
G37*
G36*
X219027604Y-37209585D02*
G01*
X219196126Y-37279389D01*
X219347791Y-37380728D01*
X219476772Y-37509709D01*
X219578111Y-37661374D01*
X219647915Y-37829896D01*
X219683500Y-38008797D01*
X219683500Y-38191203D01*
X219647915Y-38370104D01*
X219578111Y-38538626D01*
X219476772Y-38690291D01*
X219347791Y-38819272D01*
X219196126Y-38920611D01*
X219027604Y-38990415D01*
X218848703Y-39026000D01*
X218666297Y-39026000D01*
X218487396Y-38990415D01*
X218318874Y-38920611D01*
X218167209Y-38819272D01*
X218038228Y-38690291D01*
X217936889Y-38538626D01*
X217867085Y-38370104D01*
X217831500Y-38191203D01*
X217831500Y-38008797D01*
X217867085Y-37829896D01*
X217936889Y-37661374D01*
X218038228Y-37509709D01*
X218167209Y-37380728D01*
X218318874Y-37279389D01*
X218487396Y-37209585D01*
X218666297Y-37174000D01*
X218848703Y-37174000D01*
X219027604Y-37209585D01*
X219027604Y-37209585D01*
G37*
G36*
X229187604Y-37209585D02*
G01*
X229356126Y-37279389D01*
X229507791Y-37380728D01*
X229636772Y-37509709D01*
X229738111Y-37661374D01*
X229807915Y-37829896D01*
X229843500Y-38008797D01*
X229843500Y-38191203D01*
X229807915Y-38370104D01*
X229738111Y-38538626D01*
X229636772Y-38690291D01*
X229507791Y-38819272D01*
X229356126Y-38920611D01*
X229187604Y-38990415D01*
X229008703Y-39026000D01*
X228826297Y-39026000D01*
X228647396Y-38990415D01*
X228478874Y-38920611D01*
X228327209Y-38819272D01*
X228198228Y-38690291D01*
X228096889Y-38538626D01*
X228027085Y-38370104D01*
X227991500Y-38191203D01*
X227991500Y-38008797D01*
X228027085Y-37829896D01*
X228096889Y-37661374D01*
X228198228Y-37509709D01*
X228327209Y-37380728D01*
X228478874Y-37279389D01*
X228647396Y-37209585D01*
X228826297Y-37174000D01*
X229008703Y-37174000D01*
X229187604Y-37209585D01*
X229187604Y-37209585D01*
G37*
G36*
X199977604Y-37209585D02*
G01*
X200146126Y-37279389D01*
X200297791Y-37380728D01*
X200426772Y-37509709D01*
X200528111Y-37661374D01*
X200597915Y-37829896D01*
X200633500Y-38008797D01*
X200633500Y-38191203D01*
X200597915Y-38370104D01*
X200528111Y-38538626D01*
X200426772Y-38690291D01*
X200297791Y-38819272D01*
X200146126Y-38920611D01*
X199977604Y-38990415D01*
X199798703Y-39026000D01*
X199616297Y-39026000D01*
X199437396Y-38990415D01*
X199268874Y-38920611D01*
X199117209Y-38819272D01*
X198988228Y-38690291D01*
X198886889Y-38538626D01*
X198817085Y-38370104D01*
X198781500Y-38191203D01*
X198781500Y-38008797D01*
X198817085Y-37829896D01*
X198886889Y-37661374D01*
X198988228Y-37509709D01*
X199117209Y-37380728D01*
X199268874Y-37279389D01*
X199437396Y-37209585D01*
X199616297Y-37174000D01*
X199798703Y-37174000D01*
X199977604Y-37209585D01*
X199977604Y-37209585D01*
G37*
G36*
X180927604Y-37209585D02*
G01*
X181096126Y-37279389D01*
X181247791Y-37380728D01*
X181376772Y-37509709D01*
X181478111Y-37661374D01*
X181547915Y-37829896D01*
X181583500Y-38008797D01*
X181583500Y-38191203D01*
X181547915Y-38370104D01*
X181478111Y-38538626D01*
X181376772Y-38690291D01*
X181247791Y-38819272D01*
X181096126Y-38920611D01*
X180927604Y-38990415D01*
X180748703Y-39026000D01*
X180566297Y-39026000D01*
X180387396Y-38990415D01*
X180218874Y-38920611D01*
X180067209Y-38819272D01*
X179938228Y-38690291D01*
X179836889Y-38538626D01*
X179767085Y-38370104D01*
X179731500Y-38191203D01*
X179731500Y-38008797D01*
X179767085Y-37829896D01*
X179836889Y-37661374D01*
X179938228Y-37509709D01*
X180067209Y-37380728D01*
X180218874Y-37279389D01*
X180387396Y-37209585D01*
X180566297Y-37174000D01*
X180748703Y-37174000D01*
X180927604Y-37209585D01*
X180927604Y-37209585D01*
G37*
G36*
X191087604Y-37209585D02*
G01*
X191256126Y-37279389D01*
X191407791Y-37380728D01*
X191536772Y-37509709D01*
X191638111Y-37661374D01*
X191707915Y-37829896D01*
X191743500Y-38008797D01*
X191743500Y-38191203D01*
X191707915Y-38370104D01*
X191638111Y-38538626D01*
X191536772Y-38690291D01*
X191407791Y-38819272D01*
X191256126Y-38920611D01*
X191087604Y-38990415D01*
X190908703Y-39026000D01*
X190726297Y-39026000D01*
X190547396Y-38990415D01*
X190378874Y-38920611D01*
X190227209Y-38819272D01*
X190098228Y-38690291D01*
X189996889Y-38538626D01*
X189927085Y-38370104D01*
X189891500Y-38191203D01*
X189891500Y-38008797D01*
X189927085Y-37829896D01*
X189996889Y-37661374D01*
X190098228Y-37509709D01*
X190227209Y-37380728D01*
X190378874Y-37279389D01*
X190547396Y-37209585D01*
X190726297Y-37174000D01*
X190908703Y-37174000D01*
X191087604Y-37209585D01*
X191087604Y-37209585D01*
G37*
G36*
X270041823Y-35197563D02*
G01*
X270202242Y-35246226D01*
X270279340Y-35287436D01*
X270350078Y-35325246D01*
X270479659Y-35431591D01*
X270586004Y-35561172D01*
X270586005Y-35561174D01*
X270665024Y-35709008D01*
X270713687Y-35869427D01*
X270730117Y-36036250D01*
X270713687Y-36203073D01*
X270665024Y-36363492D01*
X270614817Y-36457423D01*
X270586004Y-36511328D01*
X270479659Y-36640909D01*
X270350078Y-36747254D01*
X270350076Y-36747255D01*
X270202242Y-36826274D01*
X270041823Y-36874937D01*
X269916804Y-36887250D01*
X269833196Y-36887250D01*
X269708177Y-36874937D01*
X269547758Y-36826274D01*
X269399924Y-36747255D01*
X269399922Y-36747254D01*
X269270341Y-36640909D01*
X269163996Y-36511328D01*
X269135183Y-36457423D01*
X269084976Y-36363492D01*
X269036313Y-36203073D01*
X269019883Y-36036250D01*
X269036313Y-35869427D01*
X269084976Y-35709008D01*
X269163995Y-35561174D01*
X269163996Y-35561172D01*
X269270341Y-35431591D01*
X269399922Y-35325246D01*
X269470660Y-35287436D01*
X269547758Y-35246226D01*
X269708177Y-35197563D01*
X269833196Y-35185250D01*
X269916804Y-35185250D01*
X270041823Y-35197563D01*
X270041823Y-35197563D01*
G37*
G36*
X251785573Y-33610063D02*
G01*
X251945992Y-33658726D01*
X252064708Y-33722181D01*
X252093828Y-33737746D01*
X252223409Y-33844091D01*
X252329754Y-33973672D01*
X252329755Y-33973674D01*
X252408774Y-34121508D01*
X252457437Y-34281927D01*
X252473867Y-34448750D01*
X252457437Y-34615573D01*
X252408774Y-34775992D01*
X252337864Y-34908656D01*
X252329754Y-34923828D01*
X252223409Y-35053409D01*
X252093828Y-35159754D01*
X252093826Y-35159755D01*
X251945992Y-35238774D01*
X251785573Y-35287437D01*
X251660554Y-35299750D01*
X251576946Y-35299750D01*
X251451927Y-35287437D01*
X251291508Y-35238774D01*
X251143674Y-35159755D01*
X251143672Y-35159754D01*
X251014091Y-35053409D01*
X250907746Y-34923828D01*
X250899636Y-34908656D01*
X250828726Y-34775992D01*
X250780063Y-34615573D01*
X250763633Y-34448750D01*
X250780063Y-34281927D01*
X250828726Y-34121508D01*
X250907745Y-33973674D01*
X250907746Y-33973672D01*
X251014091Y-33844091D01*
X251143672Y-33737746D01*
X251172792Y-33722181D01*
X251291508Y-33658726D01*
X251451927Y-33610063D01*
X251576946Y-33597750D01*
X251660554Y-33597750D01*
X251785573Y-33610063D01*
X251785573Y-33610063D01*
G37*
G36*
X175585573Y-33610063D02*
G01*
X175745992Y-33658726D01*
X175864708Y-33722181D01*
X175893828Y-33737746D01*
X176023409Y-33844091D01*
X176129754Y-33973672D01*
X176129755Y-33973674D01*
X176208774Y-34121508D01*
X176257437Y-34281927D01*
X176273867Y-34448750D01*
X176257437Y-34615573D01*
X176208774Y-34775992D01*
X176137864Y-34908656D01*
X176129754Y-34923828D01*
X176023409Y-35053409D01*
X175893828Y-35159754D01*
X175893826Y-35159755D01*
X175745992Y-35238774D01*
X175585573Y-35287437D01*
X175460554Y-35299750D01*
X175376946Y-35299750D01*
X175251927Y-35287437D01*
X175091508Y-35238774D01*
X174943674Y-35159755D01*
X174943672Y-35159754D01*
X174814091Y-35053409D01*
X174707746Y-34923828D01*
X174699636Y-34908656D01*
X174628726Y-34775992D01*
X174580063Y-34615573D01*
X174563633Y-34448750D01*
X174580063Y-34281927D01*
X174628726Y-34121508D01*
X174707745Y-33973674D01*
X174707746Y-33973672D01*
X174814091Y-33844091D01*
X174943672Y-33737746D01*
X174972792Y-33722181D01*
X175091508Y-33658726D01*
X175251927Y-33610063D01*
X175376946Y-33597750D01*
X175460554Y-33597750D01*
X175585573Y-33610063D01*
X175585573Y-33610063D01*
G37*
G36*
X232735573Y-33610063D02*
G01*
X232895992Y-33658726D01*
X233014708Y-33722181D01*
X233043828Y-33737746D01*
X233173409Y-33844091D01*
X233279754Y-33973672D01*
X233279755Y-33973674D01*
X233358774Y-34121508D01*
X233407437Y-34281927D01*
X233423867Y-34448750D01*
X233407437Y-34615573D01*
X233358774Y-34775992D01*
X233287864Y-34908656D01*
X233279754Y-34923828D01*
X233173409Y-35053409D01*
X233043828Y-35159754D01*
X233043826Y-35159755D01*
X232895992Y-35238774D01*
X232735573Y-35287437D01*
X232610554Y-35299750D01*
X232526946Y-35299750D01*
X232401927Y-35287437D01*
X232241508Y-35238774D01*
X232093674Y-35159755D01*
X232093672Y-35159754D01*
X231964091Y-35053409D01*
X231857746Y-34923828D01*
X231849636Y-34908656D01*
X231778726Y-34775992D01*
X231730063Y-34615573D01*
X231713633Y-34448750D01*
X231730063Y-34281927D01*
X231778726Y-34121508D01*
X231857745Y-33973674D01*
X231857746Y-33973672D01*
X231964091Y-33844091D01*
X232093672Y-33737746D01*
X232122792Y-33722181D01*
X232241508Y-33658726D01*
X232401927Y-33610063D01*
X232526946Y-33597750D01*
X232610554Y-33597750D01*
X232735573Y-33610063D01*
X232735573Y-33610063D01*
G37*
G36*
X80335573Y-33610063D02*
G01*
X80495992Y-33658726D01*
X80614708Y-33722181D01*
X80643828Y-33737746D01*
X80773409Y-33844091D01*
X80879754Y-33973672D01*
X80879755Y-33973674D01*
X80958774Y-34121508D01*
X81007437Y-34281927D01*
X81023867Y-34448750D01*
X81007437Y-34615573D01*
X80958774Y-34775992D01*
X80887864Y-34908656D01*
X80879754Y-34923828D01*
X80773409Y-35053409D01*
X80643828Y-35159754D01*
X80643826Y-35159755D01*
X80495992Y-35238774D01*
X80335573Y-35287437D01*
X80210554Y-35299750D01*
X80126946Y-35299750D01*
X80001927Y-35287437D01*
X79841508Y-35238774D01*
X79693674Y-35159755D01*
X79693672Y-35159754D01*
X79564091Y-35053409D01*
X79457746Y-34923828D01*
X79449636Y-34908656D01*
X79378726Y-34775992D01*
X79330063Y-34615573D01*
X79313633Y-34448750D01*
X79330063Y-34281927D01*
X79378726Y-34121508D01*
X79457745Y-33973674D01*
X79457746Y-33973672D01*
X79564091Y-33844091D01*
X79693672Y-33737746D01*
X79722792Y-33722181D01*
X79841508Y-33658726D01*
X80001927Y-33610063D01*
X80126946Y-33597750D01*
X80210554Y-33597750D01*
X80335573Y-33610063D01*
X80335573Y-33610063D01*
G37*
G36*
X194635573Y-33610063D02*
G01*
X194795992Y-33658726D01*
X194914708Y-33722181D01*
X194943828Y-33737746D01*
X195073409Y-33844091D01*
X195179754Y-33973672D01*
X195179755Y-33973674D01*
X195258774Y-34121508D01*
X195307437Y-34281927D01*
X195323867Y-34448750D01*
X195307437Y-34615573D01*
X195258774Y-34775992D01*
X195187864Y-34908656D01*
X195179754Y-34923828D01*
X195073409Y-35053409D01*
X194943828Y-35159754D01*
X194943826Y-35159755D01*
X194795992Y-35238774D01*
X194635573Y-35287437D01*
X194510554Y-35299750D01*
X194426946Y-35299750D01*
X194301927Y-35287437D01*
X194141508Y-35238774D01*
X193993674Y-35159755D01*
X193993672Y-35159754D01*
X193864091Y-35053409D01*
X193757746Y-34923828D01*
X193749636Y-34908656D01*
X193678726Y-34775992D01*
X193630063Y-34615573D01*
X193613633Y-34448750D01*
X193630063Y-34281927D01*
X193678726Y-34121508D01*
X193757745Y-33973674D01*
X193757746Y-33973672D01*
X193864091Y-33844091D01*
X193993672Y-33737746D01*
X194022792Y-33722181D01*
X194141508Y-33658726D01*
X194301927Y-33610063D01*
X194426946Y-33597750D01*
X194510554Y-33597750D01*
X194635573Y-33610063D01*
X194635573Y-33610063D01*
G37*
G36*
X213685573Y-33610063D02*
G01*
X213845992Y-33658726D01*
X213964708Y-33722181D01*
X213993828Y-33737746D01*
X214123409Y-33844091D01*
X214229754Y-33973672D01*
X214229755Y-33973674D01*
X214308774Y-34121508D01*
X214357437Y-34281927D01*
X214373867Y-34448750D01*
X214357437Y-34615573D01*
X214308774Y-34775992D01*
X214237864Y-34908656D01*
X214229754Y-34923828D01*
X214123409Y-35053409D01*
X213993828Y-35159754D01*
X213993826Y-35159755D01*
X213845992Y-35238774D01*
X213685573Y-35287437D01*
X213560554Y-35299750D01*
X213476946Y-35299750D01*
X213351927Y-35287437D01*
X213191508Y-35238774D01*
X213043674Y-35159755D01*
X213043672Y-35159754D01*
X212914091Y-35053409D01*
X212807746Y-34923828D01*
X212799636Y-34908656D01*
X212728726Y-34775992D01*
X212680063Y-34615573D01*
X212663633Y-34448750D01*
X212680063Y-34281927D01*
X212728726Y-34121508D01*
X212807745Y-33973674D01*
X212807746Y-33973672D01*
X212914091Y-33844091D01*
X213043672Y-33737746D01*
X213072792Y-33722181D01*
X213191508Y-33658726D01*
X213351927Y-33610063D01*
X213476946Y-33597750D01*
X213560554Y-33597750D01*
X213685573Y-33610063D01*
X213685573Y-33610063D01*
G37*
G36*
X99385573Y-33610063D02*
G01*
X99545992Y-33658726D01*
X99664708Y-33722181D01*
X99693828Y-33737746D01*
X99823409Y-33844091D01*
X99929754Y-33973672D01*
X99929755Y-33973674D01*
X100008774Y-34121508D01*
X100057437Y-34281927D01*
X100073867Y-34448750D01*
X100057437Y-34615573D01*
X100008774Y-34775992D01*
X99937864Y-34908656D01*
X99929754Y-34923828D01*
X99823409Y-35053409D01*
X99693828Y-35159754D01*
X99693826Y-35159755D01*
X99545992Y-35238774D01*
X99385573Y-35287437D01*
X99260554Y-35299750D01*
X99176946Y-35299750D01*
X99051927Y-35287437D01*
X98891508Y-35238774D01*
X98743674Y-35159755D01*
X98743672Y-35159754D01*
X98614091Y-35053409D01*
X98507746Y-34923828D01*
X98499636Y-34908656D01*
X98428726Y-34775992D01*
X98380063Y-34615573D01*
X98363633Y-34448750D01*
X98380063Y-34281927D01*
X98428726Y-34121508D01*
X98507745Y-33973674D01*
X98507746Y-33973672D01*
X98614091Y-33844091D01*
X98743672Y-33737746D01*
X98772792Y-33722181D01*
X98891508Y-33658726D01*
X99051927Y-33610063D01*
X99176946Y-33597750D01*
X99260554Y-33597750D01*
X99385573Y-33610063D01*
X99385573Y-33610063D01*
G37*
G36*
X61285573Y-33610063D02*
G01*
X61445992Y-33658726D01*
X61564708Y-33722181D01*
X61593828Y-33737746D01*
X61723409Y-33844091D01*
X61829754Y-33973672D01*
X61829755Y-33973674D01*
X61908774Y-34121508D01*
X61957437Y-34281927D01*
X61973867Y-34448750D01*
X61957437Y-34615573D01*
X61908774Y-34775992D01*
X61837864Y-34908656D01*
X61829754Y-34923828D01*
X61723409Y-35053409D01*
X61593828Y-35159754D01*
X61593826Y-35159755D01*
X61445992Y-35238774D01*
X61285573Y-35287437D01*
X61160554Y-35299750D01*
X61076946Y-35299750D01*
X60951927Y-35287437D01*
X60791508Y-35238774D01*
X60643674Y-35159755D01*
X60643672Y-35159754D01*
X60514091Y-35053409D01*
X60407746Y-34923828D01*
X60399636Y-34908656D01*
X60328726Y-34775992D01*
X60280063Y-34615573D01*
X60263633Y-34448750D01*
X60280063Y-34281927D01*
X60328726Y-34121508D01*
X60407745Y-33973674D01*
X60407746Y-33973672D01*
X60514091Y-33844091D01*
X60643672Y-33737746D01*
X60672792Y-33722181D01*
X60791508Y-33658726D01*
X60951927Y-33610063D01*
X61076946Y-33597750D01*
X61160554Y-33597750D01*
X61285573Y-33610063D01*
X61285573Y-33610063D01*
G37*
G36*
X137485573Y-33610063D02*
G01*
X137645992Y-33658726D01*
X137764708Y-33722181D01*
X137793828Y-33737746D01*
X137923409Y-33844091D01*
X138029754Y-33973672D01*
X138029755Y-33973674D01*
X138108774Y-34121508D01*
X138157437Y-34281927D01*
X138173867Y-34448750D01*
X138157437Y-34615573D01*
X138108774Y-34775992D01*
X138037864Y-34908656D01*
X138029754Y-34923828D01*
X137923409Y-35053409D01*
X137793828Y-35159754D01*
X137793826Y-35159755D01*
X137645992Y-35238774D01*
X137485573Y-35287437D01*
X137360554Y-35299750D01*
X137276946Y-35299750D01*
X137151927Y-35287437D01*
X136991508Y-35238774D01*
X136843674Y-35159755D01*
X136843672Y-35159754D01*
X136714091Y-35053409D01*
X136607746Y-34923828D01*
X136599636Y-34908656D01*
X136528726Y-34775992D01*
X136480063Y-34615573D01*
X136463633Y-34448750D01*
X136480063Y-34281927D01*
X136528726Y-34121508D01*
X136607745Y-33973674D01*
X136607746Y-33973672D01*
X136714091Y-33844091D01*
X136843672Y-33737746D01*
X136872792Y-33722181D01*
X136991508Y-33658726D01*
X137151927Y-33610063D01*
X137276946Y-33597750D01*
X137360554Y-33597750D01*
X137485573Y-33610063D01*
X137485573Y-33610063D01*
G37*
G36*
X118435573Y-33610063D02*
G01*
X118595992Y-33658726D01*
X118714708Y-33722181D01*
X118743828Y-33737746D01*
X118873409Y-33844091D01*
X118979754Y-33973672D01*
X118979755Y-33973674D01*
X119058774Y-34121508D01*
X119107437Y-34281927D01*
X119123867Y-34448750D01*
X119107437Y-34615573D01*
X119058774Y-34775992D01*
X118987864Y-34908656D01*
X118979754Y-34923828D01*
X118873409Y-35053409D01*
X118743828Y-35159754D01*
X118743826Y-35159755D01*
X118595992Y-35238774D01*
X118435573Y-35287437D01*
X118310554Y-35299750D01*
X118226946Y-35299750D01*
X118101927Y-35287437D01*
X117941508Y-35238774D01*
X117793674Y-35159755D01*
X117793672Y-35159754D01*
X117664091Y-35053409D01*
X117557746Y-34923828D01*
X117549636Y-34908656D01*
X117478726Y-34775992D01*
X117430063Y-34615573D01*
X117413633Y-34448750D01*
X117430063Y-34281927D01*
X117478726Y-34121508D01*
X117557745Y-33973674D01*
X117557746Y-33973672D01*
X117664091Y-33844091D01*
X117793672Y-33737746D01*
X117822792Y-33722181D01*
X117941508Y-33658726D01*
X118101927Y-33610063D01*
X118226946Y-33597750D01*
X118310554Y-33597750D01*
X118435573Y-33610063D01*
X118435573Y-33610063D01*
G37*
G36*
X268885754Y-29777818D02*
G01*
X269259011Y-29932426D01*
X269259013Y-29932427D01*
X269594936Y-30156884D01*
X269880616Y-30442564D01*
X270104613Y-30777798D01*
X270105074Y-30778489D01*
X270259682Y-31151746D01*
X270338500Y-31547993D01*
X270338500Y-31952007D01*
X270259682Y-32348254D01*
X270147898Y-32618124D01*
X270105073Y-32721513D01*
X269880616Y-33057436D01*
X269594936Y-33343116D01*
X269259013Y-33567573D01*
X269259012Y-33567574D01*
X269259011Y-33567574D01*
X268885754Y-33722182D01*
X268489507Y-33801000D01*
X268085493Y-33801000D01*
X267689246Y-33722182D01*
X267315989Y-33567574D01*
X267315988Y-33567574D01*
X267315987Y-33567573D01*
X266980064Y-33343116D01*
X266694384Y-33057436D01*
X266469927Y-32721513D01*
X266427102Y-32618124D01*
X266315318Y-32348254D01*
X266236500Y-31952007D01*
X266236500Y-31547993D01*
X266315318Y-31151746D01*
X266469926Y-30778489D01*
X266470388Y-30777798D01*
X266694384Y-30442564D01*
X266980064Y-30156884D01*
X267315987Y-29932427D01*
X267315989Y-29932426D01*
X267689246Y-29777818D01*
X268085493Y-29699000D01*
X268489507Y-29699000D01*
X268885754Y-29777818D01*
X268885754Y-29777818D01*
G37*
G36*
X46635754Y-29777818D02*
G01*
X47009011Y-29932426D01*
X47009013Y-29932427D01*
X47344936Y-30156884D01*
X47630616Y-30442564D01*
X47854613Y-30777798D01*
X47855074Y-30778489D01*
X48009682Y-31151746D01*
X48088500Y-31547993D01*
X48088500Y-31952007D01*
X48009682Y-32348254D01*
X47897898Y-32618124D01*
X47855073Y-32721513D01*
X47630616Y-33057436D01*
X47344936Y-33343116D01*
X47009013Y-33567573D01*
X47009012Y-33567574D01*
X47009011Y-33567574D01*
X46635754Y-33722182D01*
X46239507Y-33801000D01*
X45835493Y-33801000D01*
X45439246Y-33722182D01*
X45065989Y-33567574D01*
X45065988Y-33567574D01*
X45065987Y-33567573D01*
X44730064Y-33343116D01*
X44444384Y-33057436D01*
X44219927Y-32721513D01*
X44177102Y-32618124D01*
X44065318Y-32348254D01*
X43986500Y-31952007D01*
X43986500Y-31547993D01*
X44065318Y-31151746D01*
X44219926Y-30778489D01*
X44220388Y-30777798D01*
X44444384Y-30442564D01*
X44730064Y-30156884D01*
X45065987Y-29932427D01*
X45065989Y-29932426D01*
X45439246Y-29777818D01*
X45835493Y-29699000D01*
X46239507Y-29699000D01*
X46635754Y-29777818D01*
X46635754Y-29777818D01*
G37*
M02*
