G04 #@! TF.GenerationSoftware,KiCad,Pcbnew,(5.1.4)-1*
G04 #@! TF.CreationDate,2020-10-25T14:57:06-07:00*
G04 #@! TF.ProjectId,cheepcheep,63686565-7063-4686-9565-702e6b696361,rev?*
G04 #@! TF.SameCoordinates,Original*
G04 #@! TF.FileFunction,Legend,Top*
G04 #@! TF.FilePolarity,Positive*
%FSLAX46Y46*%
G04 Gerber Fmt 4.6, Leading zero omitted, Abs format (unit mm)*
G04 Created by KiCad (PCBNEW (5.1.4)-1) date 2020-10-25 14:57:06*
%MOMM*%
%LPD*%
G04 APERTURE LIST*
%ADD10C,0.381000*%
%ADD11C,0.150000*%
G04 APERTURE END LIST*
D10*
X46672500Y-63500000D02*
X46672500Y-66040000D01*
X44132500Y-66040000D02*
X46672500Y-66040000D01*
X44132500Y-48260000D02*
X44132500Y-66040000D01*
X46672500Y-48260000D02*
X44132500Y-48260000D01*
D11*
G36*
X53151860Y-52218432D02*
G01*
X53351860Y-52218432D01*
X53351860Y-52318432D01*
X53151860Y-52318432D01*
X53151860Y-52218432D01*
G37*
X53151860Y-52218432D02*
X53351860Y-52218432D01*
X53351860Y-52318432D01*
X53151860Y-52318432D01*
X53151860Y-52218432D01*
G36*
X52551860Y-52618432D02*
G01*
X53351860Y-52618432D01*
X53351860Y-52718432D01*
X52551860Y-52718432D01*
X52551860Y-52618432D01*
G37*
X52551860Y-52618432D02*
X53351860Y-52618432D01*
X53351860Y-52718432D01*
X52551860Y-52718432D01*
X52551860Y-52618432D01*
G36*
X52551860Y-52218432D02*
G01*
X52651860Y-52218432D01*
X52651860Y-52718432D01*
X52551860Y-52718432D01*
X52551860Y-52218432D01*
G37*
X52551860Y-52218432D02*
X52651860Y-52218432D01*
X52651860Y-52718432D01*
X52551860Y-52718432D01*
X52551860Y-52218432D01*
G36*
X52951860Y-52418432D02*
G01*
X53051860Y-52418432D01*
X53051860Y-52518432D01*
X52951860Y-52518432D01*
X52951860Y-52418432D01*
G37*
X52951860Y-52418432D02*
X53051860Y-52418432D01*
X53051860Y-52518432D01*
X52951860Y-52518432D01*
X52951860Y-52418432D01*
G36*
X52551860Y-52218432D02*
G01*
X52851860Y-52218432D01*
X52851860Y-52318432D01*
X52551860Y-52318432D01*
X52551860Y-52218432D01*
G37*
X52551860Y-52218432D02*
X52851860Y-52218432D01*
X52851860Y-52318432D01*
X52551860Y-52318432D01*
X52551860Y-52218432D01*
D10*
X49212500Y-63500000D02*
X49212500Y-66040000D01*
X46672500Y-63500000D02*
X49212500Y-63500000D01*
X77152500Y-48260000D02*
X46672500Y-48260000D01*
X77152500Y-66040000D02*
X77152500Y-48260000D01*
X46672500Y-66040000D02*
X77152500Y-66040000D01*
D11*
X47504404Y-62912348D02*
X47504404Y-62455205D01*
X48304404Y-62683776D02*
X47504404Y-62683776D01*
X47504404Y-62264729D02*
X48304404Y-61731395D01*
X47504404Y-61731395D02*
X48304404Y-62264729D01*
X47504404Y-61274252D02*
X47504404Y-61198062D01*
X47542500Y-61121872D01*
X47580595Y-61083776D01*
X47656785Y-61045681D01*
X47809166Y-61007586D01*
X47999642Y-61007586D01*
X48152023Y-61045681D01*
X48228214Y-61083776D01*
X48266309Y-61121872D01*
X48304404Y-61198062D01*
X48304404Y-61274252D01*
X48266309Y-61350443D01*
X48228214Y-61388538D01*
X48152023Y-61426633D01*
X47999642Y-61464729D01*
X47809166Y-61464729D01*
X47656785Y-61426633D01*
X47580595Y-61388538D01*
X47542500Y-61350443D01*
X47504404Y-61274252D01*
X47466309Y-60093300D02*
X48494880Y-60779014D01*
X48304404Y-59826633D02*
X47504404Y-59826633D01*
X47504404Y-59636157D01*
X47542500Y-59521872D01*
X47618690Y-59445681D01*
X47694880Y-59407586D01*
X47847261Y-59369491D01*
X47961547Y-59369491D01*
X48113928Y-59407586D01*
X48190119Y-59445681D01*
X48266309Y-59521872D01*
X48304404Y-59636157D01*
X48304404Y-59826633D01*
X47504404Y-59102824D02*
X47504404Y-58607586D01*
X47809166Y-58874252D01*
X47809166Y-58759967D01*
X47847261Y-58683776D01*
X47885357Y-58645681D01*
X47961547Y-58607586D01*
X48152023Y-58607586D01*
X48228214Y-58645681D01*
X48266309Y-58683776D01*
X48304404Y-58759967D01*
X48304404Y-58988538D01*
X48266309Y-59064729D01*
X48228214Y-59102824D01*
X50844404Y-63201476D02*
X50044404Y-63201476D01*
X50044404Y-63011000D01*
X50082500Y-62896714D01*
X50158690Y-62820523D01*
X50234880Y-62782428D01*
X50387261Y-62744333D01*
X50501547Y-62744333D01*
X50653928Y-62782428D01*
X50730119Y-62820523D01*
X50806309Y-62896714D01*
X50844404Y-63011000D01*
X50844404Y-63201476D01*
X50120595Y-62439571D02*
X50082500Y-62401476D01*
X50044404Y-62325285D01*
X50044404Y-62134809D01*
X50082500Y-62058619D01*
X50120595Y-62020523D01*
X50196785Y-61982428D01*
X50272976Y-61982428D01*
X50387261Y-62020523D01*
X50844404Y-62477666D01*
X50844404Y-61982428D01*
X61004404Y-63201476D02*
X60204404Y-63201476D01*
X60204404Y-63011000D01*
X60242500Y-62896714D01*
X60318690Y-62820523D01*
X60394880Y-62782428D01*
X60547261Y-62744333D01*
X60661547Y-62744333D01*
X60813928Y-62782428D01*
X60890119Y-62820523D01*
X60966309Y-62896714D01*
X61004404Y-63011000D01*
X61004404Y-63201476D01*
X60204404Y-62249095D02*
X60204404Y-62172904D01*
X60242500Y-62096714D01*
X60280595Y-62058619D01*
X60356785Y-62020523D01*
X60509166Y-61982428D01*
X60699642Y-61982428D01*
X60852023Y-62020523D01*
X60928214Y-62058619D01*
X60966309Y-62096714D01*
X61004404Y-62172904D01*
X61004404Y-62249095D01*
X60966309Y-62325285D01*
X60928214Y-62363380D01*
X60852023Y-62401476D01*
X60699642Y-62439571D01*
X60509166Y-62439571D01*
X60356785Y-62401476D01*
X60280595Y-62363380D01*
X60242500Y-62325285D01*
X60204404Y-62249095D01*
X58464404Y-63201476D02*
X57664404Y-63201476D01*
X57664404Y-63011000D01*
X57702500Y-62896714D01*
X57778690Y-62820523D01*
X57854880Y-62782428D01*
X58007261Y-62744333D01*
X58121547Y-62744333D01*
X58273928Y-62782428D01*
X58350119Y-62820523D01*
X58426309Y-62896714D01*
X58464404Y-63011000D01*
X58464404Y-63201476D01*
X58464404Y-61982428D02*
X58464404Y-62439571D01*
X58464404Y-62211000D02*
X57664404Y-62211000D01*
X57778690Y-62287190D01*
X57854880Y-62363380D01*
X57892976Y-62439571D01*
X55162500Y-63220523D02*
X55124404Y-63296714D01*
X55124404Y-63411000D01*
X55162500Y-63525285D01*
X55238690Y-63601476D01*
X55314880Y-63639571D01*
X55467261Y-63677666D01*
X55581547Y-63677666D01*
X55733928Y-63639571D01*
X55810119Y-63601476D01*
X55886309Y-63525285D01*
X55924404Y-63411000D01*
X55924404Y-63334809D01*
X55886309Y-63220523D01*
X55848214Y-63182428D01*
X55581547Y-63182428D01*
X55581547Y-63334809D01*
X55924404Y-62839571D02*
X55124404Y-62839571D01*
X55924404Y-62382428D01*
X55124404Y-62382428D01*
X55924404Y-62001476D02*
X55124404Y-62001476D01*
X55124404Y-61811000D01*
X55162500Y-61696714D01*
X55238690Y-61620523D01*
X55314880Y-61582428D01*
X55467261Y-61544333D01*
X55581547Y-61544333D01*
X55733928Y-61582428D01*
X55810119Y-61620523D01*
X55886309Y-61696714D01*
X55924404Y-61811000D01*
X55924404Y-62001476D01*
X52622500Y-63220523D02*
X52584404Y-63296714D01*
X52584404Y-63411000D01*
X52622500Y-63525285D01*
X52698690Y-63601476D01*
X52774880Y-63639571D01*
X52927261Y-63677666D01*
X53041547Y-63677666D01*
X53193928Y-63639571D01*
X53270119Y-63601476D01*
X53346309Y-63525285D01*
X53384404Y-63411000D01*
X53384404Y-63334809D01*
X53346309Y-63220523D01*
X53308214Y-63182428D01*
X53041547Y-63182428D01*
X53041547Y-63334809D01*
X53384404Y-62839571D02*
X52584404Y-62839571D01*
X53384404Y-62382428D01*
X52584404Y-62382428D01*
X53384404Y-62001476D02*
X52584404Y-62001476D01*
X52584404Y-61811000D01*
X52622500Y-61696714D01*
X52698690Y-61620523D01*
X52774880Y-61582428D01*
X52927261Y-61544333D01*
X53041547Y-61544333D01*
X53193928Y-61582428D01*
X53270119Y-61620523D01*
X53346309Y-61696714D01*
X53384404Y-61811000D01*
X53384404Y-62001476D01*
X63544404Y-63201476D02*
X62744404Y-63201476D01*
X62744404Y-63011000D01*
X62782500Y-62896714D01*
X62858690Y-62820523D01*
X62934880Y-62782428D01*
X63087261Y-62744333D01*
X63201547Y-62744333D01*
X63353928Y-62782428D01*
X63430119Y-62820523D01*
X63506309Y-62896714D01*
X63544404Y-63011000D01*
X63544404Y-63201476D01*
X63011071Y-62058619D02*
X63544404Y-62058619D01*
X62706309Y-62249095D02*
X63277738Y-62439571D01*
X63277738Y-61944333D01*
X66008214Y-62744333D02*
X66046309Y-62782428D01*
X66084404Y-62896714D01*
X66084404Y-62972904D01*
X66046309Y-63087190D01*
X65970119Y-63163380D01*
X65893928Y-63201476D01*
X65741547Y-63239571D01*
X65627261Y-63239571D01*
X65474880Y-63201476D01*
X65398690Y-63163380D01*
X65322500Y-63087190D01*
X65284404Y-62972904D01*
X65284404Y-62896714D01*
X65322500Y-62782428D01*
X65360595Y-62744333D01*
X65284404Y-62058619D02*
X65284404Y-62211000D01*
X65322500Y-62287190D01*
X65360595Y-62325285D01*
X65474880Y-62401476D01*
X65627261Y-62439571D01*
X65932023Y-62439571D01*
X66008214Y-62401476D01*
X66046309Y-62363380D01*
X66084404Y-62287190D01*
X66084404Y-62134809D01*
X66046309Y-62058619D01*
X66008214Y-62020523D01*
X65932023Y-61982428D01*
X65741547Y-61982428D01*
X65665357Y-62020523D01*
X65627261Y-62058619D01*
X65589166Y-62134809D01*
X65589166Y-62287190D01*
X65627261Y-62363380D01*
X65665357Y-62401476D01*
X65741547Y-62439571D01*
X68624404Y-63201476D02*
X67824404Y-63201476D01*
X67824404Y-63011000D01*
X67862500Y-62896714D01*
X67938690Y-62820523D01*
X68014880Y-62782428D01*
X68167261Y-62744333D01*
X68281547Y-62744333D01*
X68433928Y-62782428D01*
X68510119Y-62820523D01*
X68586309Y-62896714D01*
X68624404Y-63011000D01*
X68624404Y-63201476D01*
X67824404Y-62477666D02*
X67824404Y-61944333D01*
X68624404Y-62287190D01*
X70745357Y-63163380D02*
X70745357Y-62896714D01*
X71164404Y-62782428D02*
X71164404Y-63163380D01*
X70364404Y-63163380D01*
X70364404Y-62782428D01*
X70364404Y-62096714D02*
X70364404Y-62249095D01*
X70402500Y-62325285D01*
X70440595Y-62363380D01*
X70554880Y-62439571D01*
X70707261Y-62477666D01*
X71012023Y-62477666D01*
X71088214Y-62439571D01*
X71126309Y-62401476D01*
X71164404Y-62325285D01*
X71164404Y-62172904D01*
X71126309Y-62096714D01*
X71088214Y-62058619D01*
X71012023Y-62020523D01*
X70821547Y-62020523D01*
X70745357Y-62058619D01*
X70707261Y-62096714D01*
X70669166Y-62172904D01*
X70669166Y-62325285D01*
X70707261Y-62401476D01*
X70745357Y-62439571D01*
X70821547Y-62477666D01*
X73285357Y-62934809D02*
X73323452Y-62820523D01*
X73361547Y-62782428D01*
X73437738Y-62744333D01*
X73552023Y-62744333D01*
X73628214Y-62782428D01*
X73666309Y-62820523D01*
X73704404Y-62896714D01*
X73704404Y-63201476D01*
X72904404Y-63201476D01*
X72904404Y-62934809D01*
X72942500Y-62858619D01*
X72980595Y-62820523D01*
X73056785Y-62782428D01*
X73132976Y-62782428D01*
X73209166Y-62820523D01*
X73247261Y-62858619D01*
X73285357Y-62934809D01*
X73285357Y-63201476D01*
X73171071Y-62058619D02*
X73704404Y-62058619D01*
X72866309Y-62249095D02*
X73437738Y-62439571D01*
X73437738Y-61944333D01*
X75825357Y-62934809D02*
X75863452Y-62820523D01*
X75901547Y-62782428D01*
X75977738Y-62744333D01*
X76092023Y-62744333D01*
X76168214Y-62782428D01*
X76206309Y-62820523D01*
X76244404Y-62896714D01*
X76244404Y-63201476D01*
X75444404Y-63201476D01*
X75444404Y-62934809D01*
X75482500Y-62858619D01*
X75520595Y-62820523D01*
X75596785Y-62782428D01*
X75672976Y-62782428D01*
X75749166Y-62820523D01*
X75787261Y-62858619D01*
X75825357Y-62934809D01*
X75825357Y-63201476D01*
X75444404Y-62020523D02*
X75444404Y-62401476D01*
X75825357Y-62439571D01*
X75787261Y-62401476D01*
X75749166Y-62325285D01*
X75749166Y-62134809D01*
X75787261Y-62058619D01*
X75825357Y-62020523D01*
X75901547Y-61982428D01*
X76092023Y-61982428D01*
X76168214Y-62020523D01*
X76206309Y-62058619D01*
X76244404Y-62134809D01*
X76244404Y-62325285D01*
X76206309Y-62401476D01*
X76168214Y-62439571D01*
X75825357Y-52012809D02*
X75863452Y-51898523D01*
X75901547Y-51860428D01*
X75977738Y-51822333D01*
X76092023Y-51822333D01*
X76168214Y-51860428D01*
X76206309Y-51898523D01*
X76244404Y-51974714D01*
X76244404Y-52279476D01*
X75444404Y-52279476D01*
X75444404Y-52012809D01*
X75482500Y-51936619D01*
X75520595Y-51898523D01*
X75596785Y-51860428D01*
X75672976Y-51860428D01*
X75749166Y-51898523D01*
X75787261Y-51936619D01*
X75825357Y-52012809D01*
X75825357Y-52279476D01*
X75444404Y-51136619D02*
X75444404Y-51289000D01*
X75482500Y-51365190D01*
X75520595Y-51403285D01*
X75634880Y-51479476D01*
X75787261Y-51517571D01*
X76092023Y-51517571D01*
X76168214Y-51479476D01*
X76206309Y-51441380D01*
X76244404Y-51365190D01*
X76244404Y-51212809D01*
X76206309Y-51136619D01*
X76168214Y-51098523D01*
X76092023Y-51060428D01*
X75901547Y-51060428D01*
X75825357Y-51098523D01*
X75787261Y-51136619D01*
X75749166Y-51212809D01*
X75749166Y-51365190D01*
X75787261Y-51441380D01*
X75825357Y-51479476D01*
X75901547Y-51517571D01*
X70745357Y-52012809D02*
X70783452Y-51898523D01*
X70821547Y-51860428D01*
X70897738Y-51822333D01*
X71012023Y-51822333D01*
X71088214Y-51860428D01*
X71126309Y-51898523D01*
X71164404Y-51974714D01*
X71164404Y-52279476D01*
X70364404Y-52279476D01*
X70364404Y-52012809D01*
X70402500Y-51936619D01*
X70440595Y-51898523D01*
X70516785Y-51860428D01*
X70592976Y-51860428D01*
X70669166Y-51898523D01*
X70707261Y-51936619D01*
X70745357Y-52012809D01*
X70745357Y-52279476D01*
X70364404Y-51555666D02*
X70364404Y-51060428D01*
X70669166Y-51327095D01*
X70669166Y-51212809D01*
X70707261Y-51136619D01*
X70745357Y-51098523D01*
X70821547Y-51060428D01*
X71012023Y-51060428D01*
X71088214Y-51098523D01*
X71126309Y-51136619D01*
X71164404Y-51212809D01*
X71164404Y-51441380D01*
X71126309Y-51517571D01*
X71088214Y-51555666D01*
X68205357Y-52012809D02*
X68243452Y-51898523D01*
X68281547Y-51860428D01*
X68357738Y-51822333D01*
X68472023Y-51822333D01*
X68548214Y-51860428D01*
X68586309Y-51898523D01*
X68624404Y-51974714D01*
X68624404Y-52279476D01*
X67824404Y-52279476D01*
X67824404Y-52012809D01*
X67862500Y-51936619D01*
X67900595Y-51898523D01*
X67976785Y-51860428D01*
X68052976Y-51860428D01*
X68129166Y-51898523D01*
X68167261Y-51936619D01*
X68205357Y-52012809D01*
X68205357Y-52279476D01*
X68624404Y-51060428D02*
X68624404Y-51517571D01*
X68624404Y-51289000D02*
X67824404Y-51289000D01*
X67938690Y-51365190D01*
X68014880Y-51441380D01*
X68052976Y-51517571D01*
X58045357Y-51955666D02*
X58045357Y-52222333D01*
X58464404Y-52222333D02*
X57664404Y-52222333D01*
X57664404Y-51841380D01*
X57931071Y-51193761D02*
X58464404Y-51193761D01*
X57626309Y-51384238D02*
X58197738Y-51574714D01*
X58197738Y-51079476D01*
X55124404Y-52755666D02*
X55924404Y-52489000D01*
X55124404Y-52222333D01*
X55848214Y-51498523D02*
X55886309Y-51536619D01*
X55924404Y-51650904D01*
X55924404Y-51727095D01*
X55886309Y-51841380D01*
X55810119Y-51917571D01*
X55733928Y-51955666D01*
X55581547Y-51993761D01*
X55467261Y-51993761D01*
X55314880Y-51955666D01*
X55238690Y-51917571D01*
X55162500Y-51841380D01*
X55124404Y-51727095D01*
X55124404Y-51650904D01*
X55162500Y-51536619D01*
X55200595Y-51498523D01*
X55848214Y-50698523D02*
X55886309Y-50736619D01*
X55924404Y-50850904D01*
X55924404Y-50927095D01*
X55886309Y-51041380D01*
X55810119Y-51117571D01*
X55733928Y-51155666D01*
X55581547Y-51193761D01*
X55467261Y-51193761D01*
X55314880Y-51155666D01*
X55238690Y-51117571D01*
X55162500Y-51041380D01*
X55124404Y-50927095D01*
X55124404Y-50850904D01*
X55162500Y-50736619D01*
X55200595Y-50698523D01*
X53316309Y-51950213D02*
X53354404Y-51835927D01*
X53354404Y-51645451D01*
X53316309Y-51569260D01*
X53278214Y-51531165D01*
X53202023Y-51493070D01*
X53125833Y-51493070D01*
X53049642Y-51531165D01*
X53011547Y-51569260D01*
X52973452Y-51645451D01*
X52935357Y-51797832D01*
X52897261Y-51874022D01*
X52859166Y-51912118D01*
X52782976Y-51950213D01*
X52706785Y-51950213D01*
X52630595Y-51912118D01*
X52592500Y-51874022D01*
X52554404Y-51797832D01*
X52554404Y-51607356D01*
X52592500Y-51493070D01*
X52554404Y-51264499D02*
X52554404Y-50807356D01*
X53354404Y-51035927D02*
X52554404Y-51035927D01*
X50082500Y-52298523D02*
X50044404Y-52374714D01*
X50044404Y-52489000D01*
X50082500Y-52603285D01*
X50158690Y-52679476D01*
X50234880Y-52717571D01*
X50387261Y-52755666D01*
X50501547Y-52755666D01*
X50653928Y-52717571D01*
X50730119Y-52679476D01*
X50806309Y-52603285D01*
X50844404Y-52489000D01*
X50844404Y-52412809D01*
X50806309Y-52298523D01*
X50768214Y-52260428D01*
X50501547Y-52260428D01*
X50501547Y-52412809D01*
X50844404Y-51917571D02*
X50044404Y-51917571D01*
X50844404Y-51460428D01*
X50044404Y-51460428D01*
X50844404Y-51079476D02*
X50044404Y-51079476D01*
X50044404Y-50889000D01*
X50082500Y-50774714D01*
X50158690Y-50698523D01*
X50234880Y-50660428D01*
X50387261Y-50622333D01*
X50501547Y-50622333D01*
X50653928Y-50660428D01*
X50730119Y-50698523D01*
X50806309Y-50774714D01*
X50844404Y-50889000D01*
X50844404Y-51079476D01*
X48304404Y-52241380D02*
X47923452Y-52508047D01*
X48304404Y-52698523D02*
X47504404Y-52698523D01*
X47504404Y-52393761D01*
X47542500Y-52317571D01*
X47580595Y-52279476D01*
X47656785Y-52241380D01*
X47771071Y-52241380D01*
X47847261Y-52279476D01*
X47885357Y-52317571D01*
X47923452Y-52393761D01*
X47923452Y-52698523D01*
X48075833Y-51936619D02*
X48075833Y-51555666D01*
X48304404Y-52012809D02*
X47504404Y-51746142D01*
X48304404Y-51479476D01*
X47504404Y-51289000D02*
X48304404Y-51098523D01*
X47732976Y-50946142D01*
X48304404Y-50793761D01*
X47504404Y-50603285D01*
X60585357Y-51955666D02*
X60585357Y-52222333D01*
X61004404Y-52222333D02*
X60204404Y-52222333D01*
X60204404Y-51841380D01*
X60204404Y-51155666D02*
X60204404Y-51536619D01*
X60585357Y-51574714D01*
X60547261Y-51536619D01*
X60509166Y-51460428D01*
X60509166Y-51269952D01*
X60547261Y-51193761D01*
X60585357Y-51155666D01*
X60661547Y-51117571D01*
X60852023Y-51117571D01*
X60928214Y-51155666D01*
X60966309Y-51193761D01*
X61004404Y-51269952D01*
X61004404Y-51460428D01*
X60966309Y-51536619D01*
X60928214Y-51574714D01*
X63125357Y-51955666D02*
X63125357Y-52222333D01*
X63544404Y-52222333D02*
X62744404Y-52222333D01*
X62744404Y-51841380D01*
X62744404Y-51193761D02*
X62744404Y-51346142D01*
X62782500Y-51422333D01*
X62820595Y-51460428D01*
X62934880Y-51536619D01*
X63087261Y-51574714D01*
X63392023Y-51574714D01*
X63468214Y-51536619D01*
X63506309Y-51498523D01*
X63544404Y-51422333D01*
X63544404Y-51269952D01*
X63506309Y-51193761D01*
X63468214Y-51155666D01*
X63392023Y-51117571D01*
X63201547Y-51117571D01*
X63125357Y-51155666D01*
X63087261Y-51193761D01*
X63049166Y-51269952D01*
X63049166Y-51422333D01*
X63087261Y-51498523D01*
X63125357Y-51536619D01*
X63201547Y-51574714D01*
X65665357Y-51955666D02*
X65665357Y-52222333D01*
X66084404Y-52222333D02*
X65284404Y-52222333D01*
X65284404Y-51841380D01*
X65284404Y-51612809D02*
X65284404Y-51079476D01*
X66084404Y-51422333D01*
X73285357Y-52012809D02*
X73323452Y-51898523D01*
X73361547Y-51860428D01*
X73437738Y-51822333D01*
X73552023Y-51822333D01*
X73628214Y-51860428D01*
X73666309Y-51898523D01*
X73704404Y-51974714D01*
X73704404Y-52279476D01*
X72904404Y-52279476D01*
X72904404Y-52012809D01*
X72942500Y-51936619D01*
X72980595Y-51898523D01*
X73056785Y-51860428D01*
X73132976Y-51860428D01*
X73209166Y-51898523D01*
X73247261Y-51936619D01*
X73285357Y-52012809D01*
X73285357Y-52279476D01*
X72980595Y-51517571D02*
X72942500Y-51479476D01*
X72904404Y-51403285D01*
X72904404Y-51212809D01*
X72942500Y-51136619D01*
X72980595Y-51098523D01*
X73056785Y-51060428D01*
X73132976Y-51060428D01*
X73247261Y-51098523D01*
X73704404Y-51555666D01*
X73704404Y-51060428D01*
M02*
