M48
; DRILL file {KiCad (5.1.4)-1} date 10/25/2020 2:57:08 PM
; FORMAT={-:-/ absolute / inch / decimal}
; #@! TF.CreationDate,2020-10-25T14:57:08-07:00
; #@! TF.GenerationSoftware,Kicad,Pcbnew,(5.1.4)-1
; #@! TF.FileFunction,Plated,1,2,PTH
FMAT,2
INCH
T1C0.0157
T2C0.0315
T3C0.0430
T4C0.0579
T5C0.0906
%
G90
G05
T1
X6.1284Y-3.7534
X6.1458Y-3.7117
X6.1458Y-3.7952
X6.1875Y-3.6944
X6.1875Y-3.8125
X6.2292Y-3.7117
X6.2292Y-3.7952
X6.2466Y-3.7534
X1.7534Y-4.0
X1.7708Y-3.9583
X1.7708Y-4.0417
X1.8125Y-3.9409
X1.8125Y-4.0591
X1.8542Y-3.9583
X1.8542Y-4.0417
X1.8716Y-4.0
X6.1284Y-1.5
X6.1458Y-1.4583
X6.1458Y-1.5417
X6.1875Y-1.4409
X6.1875Y-1.5591
X6.2292Y-1.4583
X6.2292Y-1.5417
X6.2466Y-1.5
X10.5034Y-4.0
X10.5208Y-3.9583
X10.5208Y-4.0417
X10.5625Y-3.9409
X10.5625Y-4.0591
X10.6042Y-3.9583
X10.6042Y-4.0417
X10.6216Y-4.0
X1.7534Y-1.25
X1.7708Y-1.2083
X1.7708Y-1.2917
X1.8125Y-1.1909
X1.8125Y-1.3091
X1.8542Y-1.2083
X1.8542Y-1.2917
X1.8716Y-1.25
X10.5034Y-1.25
X10.5208Y-1.2083
X10.5208Y-1.2917
X10.5625Y-1.1909
X10.5625Y-1.3091
X10.6042Y-1.2083
X10.6042Y-1.2917
X10.6216Y-1.25
T2
X2.4062Y-1.3562
X2.4062Y-1.6562
X7.6562Y-1.3562
X7.6562Y-1.6562
X4.6562Y-1.3562
X4.6562Y-1.6562
X3.9062Y-1.3562
X3.9062Y-1.6562
X5.4062Y-1.3562
X5.4062Y-1.6562
X6.9062Y-1.3562
X6.9062Y-1.6562
X6.0438Y-1.8438
X6.3438Y-1.8438
X3.1562Y-1.3562
X3.1562Y-1.6562
X5.7812Y-2.1062
X5.7812Y-2.4062
X6.1562Y-2.8562
X6.1562Y-3.1562
X5.0312Y-2.1062
X5.0312Y-2.4062
X2.5938Y-2.1062
X2.5938Y-2.4062
X7.2812Y-2.1062
X7.2812Y-2.4062
X10.625Y-1.4187
X10.625Y-1.7188
X7.6562Y-2.8562
X7.6562Y-3.1562
X9.9062Y-1.3562
X9.9062Y-1.6562
X9.1562Y-1.3562
X9.1562Y-1.6562
X10.4688Y-2.1062
X10.4688Y-2.4062
X8.4062Y-1.3562
X8.4062Y-1.6562
X9.1562Y-2.8562
X9.1562Y-3.1562
X6.9062Y-2.8562
X6.9062Y-3.1562
X3.9062Y-2.8562
X3.9062Y-3.1562
X8.4062Y-2.8562
X8.4062Y-3.1562
X4.6562Y-2.8562
X4.6562Y-3.1562
X9.5312Y-2.1062
X9.5312Y-2.4062
X8.0312Y-2.1062
X8.0312Y-2.4062
X4.2812Y-2.1062
X4.2812Y-2.4062
X2.7812Y-2.8562
X2.7812Y-3.1562
X5.4062Y-2.8562
X5.4062Y-3.1562
X8.7812Y-2.1062
X8.7812Y-2.4062
X6.5312Y-2.1062
X6.5312Y-2.4062
X3.5312Y-2.1062
X3.5312Y-2.4062
X10.5625Y-3.5312
X10.5625Y-3.8312
X9.7188Y-3.6062
X9.7188Y-3.9062
X7.0Y-3.6062
X7.0Y-3.9062
X4.2812Y-3.6062
X4.2812Y-3.9062
X3.4375Y-3.6062
X3.4375Y-3.9062
X2.5Y-3.6062
X2.5Y-3.9062
X10.2812Y-2.8562
X10.2812Y-3.1562
T3
X1.8875Y-1.95
X1.8875Y-2.55
X1.9875Y-1.95
X1.9875Y-2.55
X2.0875Y-1.95
X2.0875Y-2.55
X2.1875Y-1.95
X2.1875Y-2.55
X2.2875Y-1.95
X2.2875Y-2.55
X2.3875Y-1.95
X2.3875Y-2.55
X2.4875Y-1.95
X2.4875Y-2.55
X2.5875Y-1.95
X2.5875Y-2.55
X2.6875Y-1.95
X2.6875Y-2.55
X2.7875Y-1.95
X2.7875Y-2.55
X2.8875Y-1.95
X2.8875Y-2.55
X2.9875Y-1.95
X2.9875Y-2.55
T4
X4.9125Y-2.9
X5.1625Y-2.8
X6.4125Y-2.9
X6.6625Y-2.8
X8.6625Y-2.9
X8.9125Y-2.8
X7.1625Y-2.9
X7.4125Y-2.8
X4.1625Y-2.9
X4.4125Y-2.8
X3.4125Y-2.9
X3.6625Y-2.8
X7.9125Y-2.9
X8.1625Y-2.8
X5.6625Y-2.9
X5.9125Y-2.8
X3.0375Y-2.15
X3.2875Y-2.05
X9.0375Y-2.15
X9.2875Y-2.05
X9.7875Y-2.9
X10.0375Y-2.8
X6.5062Y-3.65
X6.7562Y-3.55
X2.2875Y-2.9
X2.5375Y-2.8
X2.9438Y-3.65
X3.1938Y-3.55
X9.975Y-2.15
X10.225Y-2.05
X2.0063Y-3.65
X2.2563Y-3.55
X6.4125Y-1.4
X6.6625Y-1.3
X10.0687Y-3.65
X10.3187Y-3.55
X9.225Y-3.65
X9.475Y-3.55
X2.1Y-2.15
X2.35Y-2.05
X1.9125Y-1.4
X2.1625Y-1.3
X3.7875Y-3.65
X4.0375Y-3.55
X10.1625Y-1.4
X10.4125Y-1.3
X9.4125Y-1.4
X9.6625Y-1.3
X7.9125Y-1.4
X8.1625Y-1.3
X5.6625Y-1.4
X5.9125Y-1.3
X3.4125Y-1.4
X3.6625Y-1.3
X4.1625Y-1.4
X4.4125Y-1.3
X7.1625Y-1.4
X7.4125Y-1.3
X8.6625Y-1.4
X8.9125Y-1.3
X2.6625Y-1.4
X2.9125Y-1.3
X4.9125Y-1.4
X5.1625Y-1.3
X4.5375Y-2.15
X4.7875Y-2.05
X5.2875Y-2.15
X5.5375Y-2.05
X6.7875Y-2.15
X7.0375Y-2.05
X8.2875Y-2.15
X8.5375Y-2.05
X6.0375Y-2.15
X6.2875Y-2.05
X3.7875Y-2.15
X4.0375Y-2.05
X7.5375Y-2.15
X7.7875Y-2.05
T5
X6.1875Y-3.7534
X1.8125Y-4.0
X6.1875Y-1.5
X10.5625Y-4.0
X1.8125Y-1.25
X10.5625Y-1.25
T0
M30
