M48
; DRILL file {KiCad (5.1.4)-1} date 10/25/2020 2:57:08 PM
; FORMAT={-:-/ absolute / inch / decimal}
; #@! TF.CreationDate,2020-10-25T14:57:08-07:00
; #@! TF.GenerationSoftware,Kicad,Pcbnew,(5.1.4)-1
; #@! TF.FileFunction,NonPlated,1,2,NPTH
FMAT,2
INCH
T1C0.0689
T2C0.1200
T3C0.1570
%
G90
G05
T1
X4.8625Y-3.0
X5.2625Y-3.0
X6.3625Y-3.0
X6.7625Y-3.0
X8.6125Y-3.0
X9.0125Y-3.0
X7.1125Y-3.0
X7.5125Y-3.0
X4.1125Y-3.0
X4.5125Y-3.0
X3.3625Y-3.0
X3.7625Y-3.0
X7.8625Y-3.0
X8.2625Y-3.0
X5.6125Y-3.0
X6.0125Y-3.0
X2.9875Y-2.25
X3.3875Y-2.25
X8.9875Y-2.25
X9.3875Y-2.25
X9.7375Y-3.0
X10.1375Y-3.0
X6.4562Y-3.75
X6.8563Y-3.75
X2.2375Y-3.0
X2.6375Y-3.0
X2.8937Y-3.75
X3.2937Y-3.75
X9.925Y-2.25
X10.325Y-2.25
X1.9563Y-3.75
X2.3562Y-3.75
X6.3625Y-1.5
X6.7625Y-1.5
X10.0187Y-3.75
X10.4187Y-3.75
X9.175Y-3.75
X9.575Y-3.75
X2.05Y-2.25
X2.45Y-2.25
X1.8625Y-1.5
X2.2625Y-1.5
X3.7375Y-3.75
X4.1375Y-3.75
X10.1125Y-1.5
X10.5125Y-1.5
X9.3625Y-1.5
X9.7625Y-1.5
X7.8625Y-1.5
X8.2625Y-1.5
X5.6125Y-1.5
X6.0125Y-1.5
X3.3625Y-1.5
X3.7625Y-1.5
X4.1125Y-1.5
X4.5125Y-1.5
X7.1125Y-1.5
X7.5125Y-1.5
X8.6125Y-1.5
X9.0125Y-1.5
X2.6125Y-1.5
X3.0125Y-1.5
X4.8625Y-1.5
X5.2625Y-1.5
X4.4875Y-2.25
X4.8875Y-2.25
X5.2375Y-2.25
X5.6375Y-2.25
X6.7375Y-2.25
X7.1375Y-2.25
X8.2375Y-2.25
X8.6375Y-2.25
X5.9875Y-2.25
X6.3875Y-2.25
X3.7375Y-2.25
X4.1375Y-2.25
X7.4875Y-2.25
X7.8875Y-2.25
T2
X9.4688Y-2.725
X10.4062Y-2.725
X4.6878Y-4.025
X8.6248Y-4.025
X1.9688Y-2.725
X2.9062Y-2.725
T3
X5.0625Y-3.0
X6.5625Y-3.0
X8.8125Y-3.0
X7.3125Y-3.0
X4.3125Y-3.0
X3.5625Y-3.0
X8.0625Y-3.0
X5.8125Y-3.0
X3.1875Y-2.25
X9.1875Y-2.25
X9.4688Y-3.325
X9.9375Y-3.0
X10.4062Y-3.325
X4.6878Y-3.425
X6.6562Y-3.75
X8.6248Y-3.425
X1.9688Y-3.325
X2.4375Y-3.0
X2.9062Y-3.325
X3.0938Y-3.75
X10.125Y-2.25
X2.1562Y-3.75
X6.5625Y-1.5
X10.2188Y-3.75
X9.375Y-3.75
X2.25Y-2.25
X2.0625Y-1.5
X3.9375Y-3.75
X10.3125Y-1.5
X9.5625Y-1.5
X8.0625Y-1.5
X5.8125Y-1.5
X3.5625Y-1.5
X4.3125Y-1.5
X7.3125Y-1.5
X8.8125Y-1.5
X2.8125Y-1.5
X5.0625Y-1.5
X4.6875Y-2.25
X5.4375Y-2.25
X6.9375Y-2.25
X8.4375Y-2.25
X6.1875Y-2.25
X3.9375Y-2.25
X7.6875Y-2.25
T0
M30
